<svg width="697" height="527" fill="none" xmlns="http://www.w3.org/2000/svg"><path d="M201.083 0v135.281h156.261V0H201.083z" fill="url(#paint0_linear)"/><path d="M356.344 0H202.083v4.37h154.261V0z" fill="#535461"/><path d="M356.344 4.247H202.083V133.58h154.261V4.247z" fill="#EDEDF4"/><path d="M349.528 24.373H209.292v87.535h140.236V24.373z" fill="#fff"/><path d="M204.953 2.87a.747.747 0 1 0 0-1.494.747.747 0 0 0 0 1.494z" fill="#FA595F"/><path d="M207.199 2.87a.746.746 0 1 0 .001-1.493.746.746 0 0 0-.001 1.493z" fill="#FFC74C"/><path d="M209.445 2.87a.746.746 0 1 0 .001-1.493.746.746 0 0 0-.001 1.493z" fill="#85D459"/><path d="M223.702 31.873v68.603h113.455" stroke="#535461" stroke-width="2" stroke-miterlimit="10"/><path opacity=".5" d="M245.459 79.727h-11.717V97.8h11.717V79.727z" fill="#6E1866"/><path opacity=".7" d="M265.538 63.663h-11.717V97.8h11.717V63.663z" fill="#6E1866"/><path opacity=".5" d="M285.618 73.372h-11.717v24.434h11.717V73.372z" fill="#6E1866"/><path opacity=".8" d="M305.706 58.309h-11.717v39.49h11.717v-39.49z" fill="#6E1866"/><path d="M325.785 44.253h-11.717v53.546h11.717V44.253z" fill="#6E1866"/><path d="M239.435 68.687l20.41-18.41 20.088 17.402 19.741-21.08 20.08-8.37" stroke="#535461" stroke-width="2" stroke-miterlimit="10"/><path d="M239.435 71.033a2.347 2.347 0 1 0 0-4.693 2.347 2.347 0 0 0 0 4.693zm40.16-1.338a2.347 2.347 0 1 0-.001-4.693 2.347 2.347 0 0 0 .001 4.693zm20.418-20.749a2.347 2.347 0 1 0-.001-4.694 2.347 2.347 0 0 0 .001 4.694zm-40.167 3.346a2.347 2.347 0 1 0-.001-4.693 2.347 2.347 0 0 0 .001 4.693zm59.909-11.717a2.346 2.346 0 1 0 0-4.692 2.346 2.346 0 0 0 0 4.692z" fill="#6E1866"/><path d="M346.404 527c191.314 0 346.405-44.31 346.405-98.968 0-54.659-155.091-98.969-346.405-98.969C155.09 329.063 0 373.373 0 428.032 0 482.69 155.09 527 346.404 527z" fill="#F5F5F5"/><path d="M420.385 237.419s9.57-46.999 46.16-42.644c0 0 25.242 1.738 30.466 18.279v36.552l-76.626-12.187z" fill="#535461"/><path d="M506.059 160.008c-4.293-.485-8.363-2.308-12.364-4.093-6.724-3.039-13.609-6.247-18.81-11.886-7.817-8.463-10.655-20.957-16.156-31.443a40.166 40.166 0 0 0-8.055-11.025 30.106 30.106 0 0 0-9.317-5.778 31.544 31.544 0 0 0-21.134-.77l3.847-.638-16.456 5.255c-2.047.662-4.293 1.5-5.332 3.57-1.039 2.069-.377 5.031 1.1 6.924 1.477 1.892 3.555 2.992 5.57 4.054l1.731.908a20.906 20.906 0 0 0 2.193 20.326v16.872a29.395 29.395 0 0 1-12.71 1.615 9.07 9.07 0 0 0-3.2 1.862c-2.008 1.539-4.555 4.616-5.593 10.302-1.747 9.586-21.542 42.237-23.604 45.591l-32.312 8.463.192.184-.623.162s.254.238.654.662c-3.647.246-10.063.23-15.164-2.17-5.231-2.462-13.632.061-18.31 1.846a1.998 1.998 0 0 0-1.273 1.703 1.99 1.99 0 0 0 .988 1.883 45.318 45.318 0 0 0 20.596 5.87c7.893.415 14.356.469 18.779.423a4.94 4.94 0 0 1-.992 3.8l38.613-5.524a21.115 21.115 0 0 0 3.193-2.238 27.476 27.476 0 0 0 6.055-6.709l8.316-10.871c.523 1.877 5.947 21.803 4.124 28.412l-1.947 7.324 11.371 1.177v-.246l34.413 4.616v-.769h.062l.146-6.455 39.89-1.285s6.924-5.624 3.901-14.617c-3.024-8.994-1.908-35.067-1.908-35.067a146.4 146.4 0 0 0-4.732-21.365 100.304 100.304 0 0 0 25.596-7.216c3.97-1.708 7.978-3.778 10.771-7.386-3.2 3.231-7.816 4.232-12.109 3.747z" fill="url(#paint1_linear)"/><path d="M445.08 115.786h-32.312v50.007h32.312v-50.007z" fill="#FE5858"/><path opacity=".1" d="M445.08 115.786h-32.312v50.007h32.312v-50.007z" fill="#000"/><path d="M419.453 134.166a17.848 17.848 0 0 1 1.908 18.625c-4.939 10.617-1.915 25.904 2.062 28.235 3.978 2.331 19.772 5.509 24.704-1.277 4.931-6.785 4.654-26.388 3.031-29.235-1.623-2.846-13.656-5.254-13.141-21.326l-18.564 4.978z" fill="#F2B08D"/><path opacity=".1" d="M417.384 153.915s6.34 42.498 27.804 13.248l-1.777 80.011-38.813-5.177 12.786-88.082z" fill="#000"/><path d="M417.33 154.676s6.34 42.499 27.804 13.248l-1.777 80.012-38.813-5.178 12.786-88.082z" fill="#F1C413"/><path d="M441.026 229.649s-11.671 1.477-19.749-2.047c0 0-15.387 4.162-13.849 7.778 1.539 3.616 36.844 3.847 36.844 3.847l-3.246-9.578zm-100.269-10.363s-10.148 1.631-17.472-1.816c-5.062-2.385-13.202.062-17.741 1.793a1.926 1.926 0 0 0-1.229 1.648 1.934 1.934 0 0 0 .952 1.822 43.903 43.903 0 0 0 19.949 5.685c14.895.769 24.542.246 24.542.246l-9.001-9.378z" fill="#F2B08D"/><path opacity=".1" d="M438.379 173.748l-5.908 56.932 5.477-.97s8.463 7.024 1.139 11.248l42.368-1.308s6.708-5.447 3.777-14.194c-2.931-8.748-1.846-33.974-1.846-33.974s-4.362-31.928-13.025-33.598c0 0-17.518-3.431-27.75-14.817l-4.232 30.681z" fill="#000"/><path d="M439.141 173.826l-5.909 56.931 5.478-.969s8.463 7.024 1.139 11.247l42.368-1.361s6.708-5.447 3.777-14.195c-2.931-8.747-1.846-33.974-1.846-33.974s-4.363-31.928-13.025-33.597c0 0-17.518-3.431-27.751-14.818l-4.231 30.736z" fill="#39447A"/><path opacity=".1" d="M422.461 147.721s-9.893 8.378-22.426 7.078c0 0-6.316 1.647-8.093 11.448-1.778 9.801-23.027 44.437-23.027 44.437l-31.543 8.24s9.086 8.616 5.116 13.586l37.406-5.331a25.44 25.44 0 0 0 8.509-8.301l8.462-11.025s5.886 20.957 4.039 27.696l-1.884 7.101 11.017 1.147s.538-27.866 3.131-38.691c1.123-4.685 2.092-9.393 2.8-14.155 1.8-12.156 4.616-30.643 5.67-33.082l.823-10.148z" fill="#000"/><path d="M422.884 147.383s-9.894 8.409-22.426 7.078c0 0-6.317 1.646-8.094 11.448-1.777 9.801-23.034 44.445-23.034 44.445l-31.543 8.239s9.086 8.617 5.116 13.587l37.406-5.332a25.431 25.431 0 0 0 8.539-8.324l8.463-11.025s5.886 20.957 4.039 27.697l-1.885 7.101 10.994 1.107s.539-27.865 3.131-38.69c1.124-4.685 2.093-9.393 2.801-14.156 1.8-12.155 4.616-30.643 5.67-33.081l.823-10.094z" fill="#39447A"/><path opacity=".1" d="M441.072 139.828c-1.808-2.854-3.355-4.07-3.178-9.509l-18.556 4.985a17.944 17.944 0 0 1 3.67 9.94c1.314.416 2.667.697 4.039.839 5.07.531 10.17-3.532 14.025-6.255z" fill="#000"/><path d="M449.357 126.892c1.153-11.115-6.924-21.06-18.039-22.212-11.115-1.153-21.06 6.923-22.213 18.038-1.152 11.116 6.924 21.061 18.039 22.213 11.116 1.153 21.061-6.924 22.213-18.039z" fill="#F2B08D"/><path opacity=".1" d="M400.374 183.05s3.662 5.385 1.415 8.593c-2.246 3.209-2.762 8.155-1.939 11.317m59.717-20.68s6.763 31.028 4.932 33.913l-4.932-33.913zm-15.302 42.684s19.172 1.477 18.079-2.862l-18.079 2.862z" fill="#000"/><path d="M419.885 97.322a30.58 30.58 0 0 1 20.472.769 29.173 29.173 0 0 1 9.047 5.624 38.884 38.884 0 0 1 7.801 10.678c5.309 10.163 8.063 22.273 15.633 30.466 5.04 5.455 11.71 8.571 18.226 11.54 3.847 1.747 7.817 3.501 11.979 3.97 4.162.47 8.632-.5 11.732-3.623-2.677 3.492-6.562 5.5-10.409 7.155a96.269 96.269 0 0 1-48.115 7.362c-4.616-.492-9.232-1.338-13.509-3.385-3.078-1.477-6.063-3.793-7.278-7.263-2.801-8.001 5.062-16.494 3.585-24.934-.77-4.331-3.916-7.693-7.424-9.771-3.508-2.077-7.424-3.077-11.171-4.462a104.364 104.364 0 0 1-11.486-5.485c-1.955-1.031-3.97-2.116-5.386-3.932-1.415-1.815-2.116-4.616-1.062-6.685 1.054-2.07 3.186-2.816 5.163-3.462l15.948-5.162" fill="#FE5858"/><path d="M620.56 254.829l-325.509-26.98-41.776 8.701 2.608 58.316 2.855.346 3.239 87.559L581.4 440.21l33.944-28.719v-94.929l4.346-2.547.87-59.186z" fill="#EDEDF4"/><path opacity=".05" d="M620.998 254.83l-.87 59.185-35.251 16.533-.439-61.793 36.56-13.925z" fill="#000"/><path opacity=".05" d="M615.344 316.623l.43 93.129-33.943 28.72 2.177-107.924 31.336-13.925z" fill="#000"/><path opacity=".05" d="M259.168 298.69l325.101 39.675.17-7.525-325.509-35.105.238 2.955z" fill="#000"/><path opacity=".05" d="M615.343 320.039v-3.416l-32.204 14.218v7.539l32.204-18.341z" fill="#000"/><path d="M252.837 236.55l41.775-8.701 325.517 26.98-36.559 13.926-330.733-32.205z" fill="#F4F4F8"/><path d="M653.733 375.055c13.839 0 25.058-4.12 25.058-9.202s-11.219-9.201-25.058-9.201-25.057 4.119-25.057 9.201c0 5.082 11.218 9.202 25.057 9.202z" fill="#CD9494"/><path opacity=".05" d="M653.734 369.523c7.062 0 12.786-2.101 12.786-4.693 0-2.592-5.724-4.693-12.786-4.693-7.062 0-12.787 2.101-12.787 4.693 0 2.592 5.725 4.693 12.787 4.693z" fill="#000"/><path d="M628.684 363.807s27.612 15.34 50.115 2.046c0 0-3.078 53.177-18.411 58.293h-20.456s-17.388-35.797-11.248-60.339z" fill="#FF7361"/><path d="M675.376 266.362c7.024 25.688-22.942 98.868-22.942 98.868s-63.086-47.699-70.08-73.418a48.221 48.221 0 0 1 33.914-58.767 48.225 48.225 0 0 1 59.108 33.317z" fill="#6E1866"/><path opacity=".1" d="M675.376 266.362c7.024 25.688-22.942 98.868-22.942 98.868s-63.086-47.699-70.08-73.418a48.221 48.221 0 0 1 33.914-58.767 48.225 48.225 0 0 1 59.108 33.317z" fill="#000"/><path d="M616.397 232.726s39.237 59.239 36.29 132.65" stroke="#535461" stroke-miterlimit="10"/><path d="M685.392 313.315s-35.59-19.357-31.051 52.107c0 0 29.689-1.061 40.222-25.28a21.009 21.009 0 0 0-8.617-26.527l-.554-.3z" fill="#6E1866"/><path d="M685.977 313.438s-4.616 37.098-31.666 51.984" stroke="#535461" stroke-miterlimit="10"/><path opacity=".05" d="M675.445 367.592c-1.039 12.233-5.278 50.231-18.126 54.508h-18.364c.585 1.308.939 2.047.939 2.047h20.457c15.34-5.116 18.41-58.293 18.41-58.293a37.33 37.33 0 0 1-3.316 1.738z" fill="#000"/><path d="M531.785 141.682c15.861 0 28.72-12.858 28.72-28.719 0-15.862-12.859-28.72-28.72-28.72-15.861 0-28.72 12.858-28.72 28.72 0 15.861 12.859 28.719 28.72 28.719z" fill="#535461"/><path d="M531.785 137.335c13.461 0 24.373-10.912 24.373-24.372 0-13.461-10.912-24.373-24.373-24.373s-24.373 10.912-24.373 24.373c0 13.46 10.912 24.372 24.373 24.372z" fill="#EDEDF4"/><path d="M531.786 114.701a1.738 1.738 0 1 0 0-3.476 1.738 1.738 0 0 0 0 3.476z" fill="#535461"/><path d="M542.233 94.683l-10.448 18.28" stroke="#535461" stroke-miterlimit="10" stroke-linecap="round"/><path d="M532.285 113.155l10.379 5.462" stroke="#535461" stroke-width="2" stroke-miterlimit="10" stroke-linecap="round"/><path d="M156.515 431.655c-2.985-1.846-4.562-6.478-5.385-10.371l1.916-.653s-6.255-64.795-7.64-68.241c-1.385-3.447-2.777-15.856-2.777-15.856l-2.254-67.579c10.378-3.77 14.74-11.064 16.21-14.256.53-.94.973-1.926 1.323-2.947-14.618-17.918-26.396-66.163-26.396-66.163l1.977-5.093.869-2.239c2.901 12.232 15.91 17.695 15.91 17.695l-.192-1.793c.515.254.831.392.877.408 2.731 2.023 5.632 3.077 8.347 2.077 8.525-3.254 8.386-18.172 8.34-19.834v-1.538l-8.347-31.02a26.49 26.49 0 0 1-1.07 4.616c-.484-6.424-1.1-18.464.377-25.304 1.639-7.601-14.386-2.369-18.549 6.593a16.394 16.394 0 0 0-12.709-6.616c-14.525-.623-24.457-9.801-26.158-11.455a43.95 43.95 0 0 1-.854-4.763 22.626 22.626 0 0 0 7.255-20.456c.374-.168.739-.356 1.093-.562 5.154-3.077 6.808-9.67 7.131-15.625v-.97c.077-1.977-.376-4.423-2.308-4.824-2.531-.53-4.385 3.278-6.924 2.87a3.851 3.851 0 0 1-2.008-1.208c-1.746-1.73-2.923-3.954-4.654-5.685-2.585-2.585-6.263-3.9-9.925-4.216a37.389 37.389 0 0 0-10.924 1.023 18.04 18.04 0 0 0-5.624 1.908 6.716 6.716 0 0 0-3.385 4.616c-.048.419-.061.84-.039 1.262 0 .638 0 1.292.054 1.93a5.27 5.27 0 0 1-.092.832c-.37 1.808-1.862 3.192-3.455 4.139-1.592.946-3.37 1.608-4.87 2.692a12.786 12.786 0 0 0-4.7 7.44 20.562 20.562 0 0 0-.523 5.085 32.781 32.781 0 0 0 .269 4.616 49.092 49.092 0 0 0 4.285 14.864 21.028 21.028 0 0 0 2.785 4.616 25.866 25.866 0 0 0 5.624 4.616c.846.57 1.854 1.154 2.824.839.282-.105.543-.262.769-.462 1.43-1.185 1.915-3.077 1.87-4.97 0 .2.06.408.084.6l.139.062a23.573 23.573 0 0 1 0 3.739c-1.285 1.092-10.002 8.355-19.757 12.371a24.088 24.088 0 0 0-13.848 15.341 53.426 53.426 0 0 1-6.54 14.186c-1.392 2.07-7.64 30.328-11.81 35.844-3.484 4.616 10.54 30.004 20.504 39.76l.446.423c2.308 2.415 4.431 4.1 6.155 4.616a31.631 31.631 0 0 1-.385-4.724c1.131 1.539 2.223 3.039 3.208 4.524a88.2 88.2 0 0 1-1.439 6.401c-6.924 26.157-2.777 26.881-2.777 26.881s.208.1.57.238c.361 1.054.815 1.139.815 1.139s.215.107.608.254c.169 30.165 4.947 63.163 4.947 63.163s-4.17 41.359-2.085 48.937c2.085 7.579 0 40.006 0 40.006l1.423.377c-.77 4.093-2.308 9.117-5.593 12.033-6.255 5.516-12.502 15.164-4.17 17.918 8.332 2.754 19.449.692 20.834-7.586l.692-6.201 9.725-3.446-1.662-11.541c2.739-4.377-.423-26.373-.423-26.373s2.085-7.585 4.862-52.384c.077-1.262.17-2.485.262-3.701 0-.354.053-.7.084-1.046.077-.918.16-1.823.246-2.716 0-.308.062-.623.093-.931.115-1.146.238-2.308.37-3.393 0-.169.045-.338.06-.507.119-.949.24-1.883.362-2.801l.131-.954c.118-.836.241-1.656.37-2.462 0-.238.069-.477.107-.707.164-1.026.333-2.019.508-2.978l.123-.654c.138-.764.282-1.518.43-2.262l.17-.838c.159-.78.32-1.549.485-2.308l.092-.431c.2-.885.4-1.746.6-2.585l.162-.669c.159-.641.318-1.27.477-1.885l.184-.7c.208-.77.416-1.539.631-2.308v-.062c.215-.769.439-1.492.662-2.216l.192-.623c.17-.538.339-1.067.508-1.585l.184-.554c.224-.669.447-1.323.67-1.954l.1-.269c.195-.544.39-1.075.584-1.593l.2-.53c.175-.462.35-.911.524-1.347l.161-.4a71.7 71.7 0 0 1 .662-1.592l.146-.339c.174-.405.349-.8.523-1.185l.2-.438c.18-.39.357-.769.531-1.139l.108-.238c.208-.439.415-.854.615-1.254l.17-.323.446-.87.177-.331.523-.969v-.069l.53-.931.155-.262a32.866 32.866 0 0 1 2.777-4.154s24.411 59.309 23.742 69.633c-.669 10.325 4.17 33.082 4.17 33.082s2.085 7.586 2.777 12.409c.592 4.101 4.193 20.142 5.255 24.873l.169.77v.084l.046.208v.185l-.677 8.362 9.032 5.516c4.862 13.787 15.279 13.079 23.619 9.648 8.34-3.431-2.739-15.895-8.294-19.303zm-10.17-280.371l-.108-.093v-.13l.108.223zm-90.99 61.755c-.5-.416-1.016-.877-1.54-1.37a24.483 24.483 0 0 1-1.684-1.961l.37.4a31.53 31.53 0 0 0 1.592 1.407c.078-7.901-.24-15.802-.954-23.672.338-.57.646-1.07.923-1.485.95 8.861 1.382 17.77 1.293 26.681z" fill="url(#paint2_linear)"/><path d="M74.673 107.562v.169l-.162-.238.162.069zM53.662 209.5c-2.793-2.97-5.3-6.855-4.978-11.048.508-6.562 3.57-12.025 5.224-14.541a232.709 232.709 0 0 1 1.3 26.966c-.5-.415-1.023-.885-1.546-1.377zm92.744-61.248l.116.208-.108-.092-.008-.116z" fill="url(#paint3_linear)"/><path d="M148.76 410.444s.677 12.841 6.078 16.218c5.401 3.378 16.218 15.541 8.109 18.918-8.109 3.378-18.241 4.055-22.973-9.455l-8.786-5.385 1.355-16.926 16.217-3.37zm-91.89 4.039s0 12.841-6.078 18.242c-6.078 5.4-12.163 14.863-4.055 17.564 8.11 2.7 18.919.677 20.273-7.432l.677-6.078 9.455-3.377-2.7-18.919H56.87z" fill="#1A2246"/><path d="M138.627 251.66l2.701 81.75s1.354 12.164 2.7 15.541c1.347 3.377 7.432 66.879 7.432 66.879l-19.595 6.755s-4.732-20.942-5.385-25.673c-.654-4.732-2.701-12.164-2.701-12.164s-4.731-22.31-4.054-32.427c.677-10.117-22.973-68.241-22.973-68.241s-14.186 16.926-16.925 60.778c-2.74 43.853-4.732 51.346-4.732 51.346s3.377 23.65 0 26.35c-3.377 2.7-20.272-2.023-20.272-2.023s2.023-31.751 0-39.183c-2.023-7.432 2.023-47.969 2.023-47.969s-12.81-89.112 3.409-106.715l70.264-4.708 8.108 29.704z" fill="#3B477B"/><path opacity=".1" d="M147.406 415.83s-6.078-63.51-7.432-66.887c-1.354-3.377-2.7-15.541-2.7-15.541l-2.701-81.742-8.001-29.459 3.978-.269 8.109 29.728 2.7 81.75s1.354 12.163 2.7 15.541c1.347 3.377 7.402 66.879 7.402 66.879l-19.596 6.754-.292-1.3 15.833-5.454zm-76.342 6.762c3.378-2.7 0-26.35 0-26.35s2.024-7.432 4.732-51.346c2.708-43.914 16.925-60.778 16.925-60.778s.57 1.393 1.54 3.785c-4.21 7.124-12.38 24.796-14.357 57.024-2.7 43.914-4.731 51.346-4.731 51.346s3.377 23.65 0 26.35c-1.054.846-3.432.962-6.194.731a4.404 4.404 0 0 0 2.085-.762z" fill="#000"/><path d="M100.791 92.213s-5.385 24.319 9.455 37.16c14.841 12.84-35.135 22.972-43.914 12.163-8.778-10.809 6.078-16.218 6.078-16.218s7.432-6.078 0-24.319l28.381-8.786z" fill="#E0A17E"/><path d="M104.846 119.241l-17.564 18.918-13.617-18.126-11.387 54.623 4.055 63.456s32.428 8.786 50.669-8.109l-5.386-58.778-6.77-51.984z" fill="#F0F1F5"/><path opacity=".1" d="M106.192 235.45l2.685 8.816s-31.75 5.386-42.567 2.701l2.7-9.455s29.75 7.393 37.182-2.062z" fill="#000"/><path d="M106.192 234.096l2.685 8.786s-31.75 5.385-42.567 2.7l2.7-9.455s29.75 7.424 37.182-2.031z" fill="#1A2246"/><path opacity=".1" d="M100.115 114.509s10.132 10.809 25.673 11.486c15.541.677 17.564 19.595 17.564 19.595l5.385 50.008s-12.84-5.386-15.54-17.565l-3.378 8.786s11.487 47.292 25.673 64.864c0 0-6.078 20.272-35.805 17.564 0 0-16.218-7.432-15.541-26.35l-5.27-29.62a151.201 151.201 0 0 1-2.308-31.543l3.547-67.225z" fill="#000"/><path d="M100.792 113.155s10.132 10.809 25.673 11.486c15.54.677 17.564 19.611 17.564 19.611l5.385 50.007s-12.84-5.385-15.541-17.564l-3.377 8.786s11.509 47.245 25.696 64.832c0 0-6.078 20.272-35.805 17.564 0 0-16.218-7.432-15.541-26.35l-5.309-29.573a151.201 151.201 0 0 1-2.308-31.543l3.563-67.256z" fill="#293158"/><path opacity=".1" d="M75.603 117.794s-7.563 8.77-17.849 13.04a23.527 23.527 0 0 0-13.44 15.041 52.264 52.264 0 0 1-6.362 13.902c-1.355 2.023-7.432 29.727-11.487 35.136-4.054 5.408 16.218 39.86 24.996 42.568 0 0-3.377-18.919 10.132-20.942 0 0-12.163-7.432-11.486-16.218.677-8.786 6.078-15.54 6.078-15.54s4.731 34.459-2.023 60.131c-6.755 25.673-2.7 26.35-2.7 26.35s27.695 13.51 23.649-50.007c-4.047-63.517-.677-87.159-.677-87.159l1.17-16.302z" fill="#000"/><path d="M50.115 236.119s-2.67-14.948 6.232-19.688c-.293 8.948-1.262 18.526-3.524 27.12-6.755 25.673-2.7 26.35-2.7 26.35.707.327 1.444.585 2.2.769 6.478 1.623 24.796 1.708 21.442-50.777-4.055-63.509-.677-87.158-.677-87.158l2.7-15.541s-9.101 8.001-19.387 12.271a23.537 23.537 0 0 0-13.44 15.041 52.549 52.549 0 0 1-6.363 13.902c-1.354 2.023-7.432 29.727-11.486 35.135-3.393 4.524 10.255 29.405 19.94 38.968 1.894 1.885 3.632 3.169 5.063 3.608zm-.377-32.013a10.722 10.722 0 0 1-.97-5.146c.5-6.478 3.578-11.856 5.148-14.226.561-.846.93-1.307.93-1.307a218.175 218.175 0 0 1 1.593 28.942c-2.362-1.954-5.216-4.893-6.7-8.255v-.008z" fill="#293158"/><path opacity=".1" d="M85.251 115.863a22.2 22.2 0 0 1-9.732-2.231 43.73 43.73 0 0 0-3.078-11.279l28.374-8.786a54.3 54.3 0 0 0-.585 16.534 22.215 22.215 0 0 1-14.979 5.762z" fill="#000"/><path d="M85.25 114.509c12.314 0 22.296-9.982 22.296-22.296 0-12.313-9.982-22.295-22.295-22.295-12.314 0-22.296 9.982-22.296 22.295 0 12.314 9.982 22.296 22.296 22.296z" fill="#E0A17E"/><path opacity=".1" d="M153.5 250.313c-14.187-17.564-25.673-64.863-25.673-64.863l3.362-8.786a20.563 20.563 0 0 0 1.246 3.793l-1.923 4.993s11.494 47.276 25.68 64.863c0 0-5.547 18.464-31.866 17.78 23.996-.631 29.174-17.78 29.174-17.78z" fill="#000"/><path d="M156.869 153.7s-2.023-19.596 0-29.051c2.024-9.455-23.649 1.354-18.241 14.187 5.409 12.832 10.81 20.272 10.81 20.272l7.431-5.408z" fill="#E0A17E"/><path opacity=".1" d="M157.539 144.913l8.108 30.405s.677 16.217-8.108 19.595c-8.786 3.377-19.596-16.218-19.596-16.218l5.386-28.373s11.509 12.832 14.21-5.409z" fill="#000"/><path d="M157.539 146.268l8.108 30.404s.677 16.218-8.108 19.595c-8.786 3.378-19.596-16.218-19.596-16.218l5.386-28.373s11.509 12.833 14.21-5.408z" fill="#293158"/><path opacity=".02" d="M157.539 146.268l8.108 30.404s.677 16.218-8.108 19.595c-8.786 3.378-19.596-16.218-19.596-16.218l5.386-28.373s11.509 12.833 14.21-5.408z" fill="#000"/><path opacity=".1" d="M52.823 243.551c-6.755 25.673-2.7 26.35-2.7 26.35.706.327 1.443.585 2.2.769 6.809-13.702 7.963-36.082 7.37-55.392v-.47a349.06 349.06 0 0 0-3.13-36.451c-.77.669-1.678 2.977-2.624 6.378.561-.846.93-1.308.93-1.308a218.19 218.19 0 0 1 1.593 28.943 20.126 20.126 0 0 1-.092 4.069c-.316 8.94-1.285 18.519-3.547 27.112z" fill="#000"/><path d="M49.746 231.057l.77.969a62.757 62.757 0 0 1 6.739 10.509c4.047 8.794 18.126-15.248 6.108-22.311-1.97-1.146-3.846-2.185-5.616-3.077l-1.361-.7c-5.555 2.939-6.632 9.817-6.64 14.61z" fill="#E0A17E"/><path opacity=".1" d="M49.746 231.057l.77.969s.315-12.586 7.239-14.886l-1.362-.701c-5.562 2.947-6.64 9.825-6.647 14.618zM85.52 86.075c1.254-.431 2.57-1.116 3.847-.693a4.359 4.359 0 0 1 1.538 1.046c1.762 1.662 3.5 3.593 5.863 4.109 1.46.222 2.95.157 4.385-.193 2.493-.438 5.055-.907 7.224-2.2 5.016-2.993 6.616-9.486 6.924-15.318.108-1.961-.3-4.5-2.223-4.908-2.462-.523-4.262 3.216-6.747 2.808a3.758 3.758 0 0 1-1.955-1.185c-1.692-1.692-2.838-3.846-4.53-5.577a15.449 15.449 0 0 0-9.648-4.132 36.104 36.104 0 0 0-10.633 1 17.463 17.463 0 0 0-5.47 1.87 6.578 6.578 0 0 0-3.293 4.547c-.169 1.308.185 2.654-.077 3.939-.361 1.777-1.807 3.123-3.362 4.062-1.554.938-3.277 1.538-4.739 2.639a12.548 12.548 0 0 0-4.57 7.285 24.67 24.67 0 0 0-.246 8.74 48.39 48.39 0 0 0 4.14 14.571 20.623 20.623 0 0 0 2.707 4.516 25.203 25.203 0 0 0 5.47 4.54c.823.554 1.808 1.131 2.747.823.283-.102.544-.256.77-.454 1.915-1.6 2.1-4.501 1.538-6.924-.562-2.424-1.623-4.77-1.739-7.263a3.492 3.492 0 0 1 .4-2.023 8.947 8.947 0 0 1 1.354-1.362 8.16 8.16 0 0 0 1.539-2.539c1.023-2.308 2.062-4.731 2.308-7.278a9.816 9.816 0 0 0-1.3-5.993 7.755 7.755 0 0 0 7.778 1.546z" fill="#000"/><path d="M85.52 85.305c1.254-.43 2.57-1.116 3.847-.693a4.363 4.363 0 0 1 1.538 1.047c1.762 1.662 3.5 3.593 5.863 4.108 1.46.222 2.95.157 4.385-.192 2.493-.439 5.055-.908 7.224-2.2 5.016-2.993 6.616-9.487 6.924-15.318.108-1.962-.3-4.5-2.223-4.909-2.462-.523-4.262 3.216-6.747 2.809a3.758 3.758 0 0 1-1.955-1.185c-1.692-1.693-2.838-3.847-4.53-5.578a15.449 15.449 0 0 0-9.648-4.131 36.107 36.107 0 0 0-10.633 1 17.465 17.465 0 0 0-5.47 1.87 6.578 6.578 0 0 0-3.293 4.546c-.169 1.308.185 2.654-.077 3.94-.361 1.776-1.807 3.123-3.362 4.061-1.554.939-3.277 1.539-4.739 2.64a12.548 12.548 0 0 0-4.57 7.285 24.67 24.67 0 0 0-.246 8.74 48.401 48.401 0 0 0 4.14 14.571 20.647 20.647 0 0 0 2.707 4.516 25.199 25.199 0 0 0 5.47 4.539c.823.554 1.808 1.131 2.747.823a2.37 2.37 0 0 0 .77-.454c1.915-1.6 2.1-4.5 1.538-6.924-.562-2.423-1.623-4.77-1.739-7.262-.073-.7.066-1.405.4-2.024a8.938 8.938 0 0 1 1.354-1.361 8.161 8.161 0 0 0 1.539-2.54c1.023-2.307 2.062-4.73 2.308-7.277a9.816 9.816 0 0 0-1.3-5.993 7.756 7.756 0 0 0 7.778 1.546z" fill="#463E3B"/><defs><linearGradient id="paint0_linear" x1="279.21" y1="135.281" x2="279.21" y2="0" gradientUnits="userSpaceOnUse"><stop stop-color="gray" stop-opacity=".25"/><stop offset=".54" stop-color="gray" stop-opacity=".12"/><stop offset="1" stop-color="gray" stop-opacity=".1"/></linearGradient><linearGradient id="paint1_linear" x1="147984" y1="68017.1" x2="147984" y2="36020.9" gradientUnits="userSpaceOnUse"><stop stop-color="gray" stop-opacity=".25"/><stop offset=".54" stop-color="gray" stop-opacity=".12"/><stop offset="1" stop-color="gray" stop-opacity=".1"/></linearGradient><linearGradient id="paint2_linear" x1="39418.1" y1="280863" x2="39418.1" y2="72518.1" gradientUnits="userSpaceOnUse"><stop stop-color="gray" stop-opacity=".25"/><stop offset=".54" stop-color="gray" stop-opacity=".12"/><stop offset="1" stop-color="gray" stop-opacity=".1"/></linearGradient><linearGradient id="paint3_linear" x1="-36734.8" y1="39558.9" x2="-36734.8" y2="25666.2" gradientUnits="userSpaceOnUse"><stop stop-color="gray" stop-opacity=".25"/><stop offset=".54" stop-color="gray" stop-opacity=".12"/><stop offset="1" stop-color="gray" stop-opacity=".1"/></linearGradient></defs></svg>