<svg width="707" height="529" fill="none" xmlns="http://www.w3.org/2000/svg"><path opacity=".1" d="M75.408 228.127c10.11 39.402 31.512 73.462 65.338 89.97 70.325 34.313 228.828 16.615 347.143-3.696 61.215-10.509 114.984-39.486 154.067-80.32l-566.548-5.954zm619.41-185.241H630.08c-3.08 0-5.6-2.304-5.6-5.119s2.514-5.12 5.6-5.12h11.201c-3.08 0-5.6-2.303-5.6-5.119 0-2.815 2.514-5.114 5.6-5.114h-7.992c-3.08 0-5.6-2.304-5.6-5.12 0-2.815 2.514-5.119 5.6-5.119h33.789c-7.499-3.191-16.242-5.456-26.357-6.642-92.135-10.829-125.033-3.67-136.655 3.698a135.332 135.332 0 0 1-47.353 18.988c-56.846 10.728-163.157 23.636-259.515-4.136-47.891-13.796-83.483 9.554-104.821 48.503h613.681c-.801-11.33-3.198-21.793-7.6-30.947a5.857 5.857 0 0 1-3.64 1.247zM70.203 146.115a237.988 237.988 0 0 0 2.519 68.679l569.276 18.989a243.05 243.05 0 0 0 39.551-54.993L70.203 146.115zm225.141 48.994h-11.219c3.079 0 5.609 2.3 5.609 5.112 0 2.811-2.524 5.106-5.609 5.106h-64.81c-3.079 0-5.609-2.295-5.609-5.106 0-2.812 2.524-5.112 5.609-5.112h11.219c-3.08 0-5.61-2.301-5.61-5.112 0-2.812 2.525-5.112 5.61-5.112h-8.016c-3.079 0-5.609-2.296-5.609-5.107 0-2.811 2.524-5.112 5.609-5.112h64.838c3.085 0 5.609 2.301 5.609 5.112s-2.518 5.107-5.609 5.107h7.988c3.085 0 5.609 2.3 5.609 5.112 0 2.811-2.508 5.112-5.609 5.112zM706.715 72.586L85.579 86.423c-7.568 17.79-12.574 37.901-14.884 58.749h625.133a225.588 225.588 0 0 0 9.026-37.445c1.861-12.254 2.606-24.103 1.861-35.141zm-509.903 45.34H185.6c3.077 0 5.606 2.309 5.606 5.131 0 2.821-2.523 5.13-5.606 5.13h-64.793c-3.078 0-5.606-2.309-5.606-5.13 0-2.822 2.522-5.131 5.606-5.131h11.211c-3.077 0-5.605-2.303-5.605-5.125 0-2.821 2.522-5.13 5.605-5.13h-8.01c-3.078 0-5.606-2.309-5.606-5.13 0-2.822 2.522-5.13 5.606-5.13h64.798c3.084 0 5.606 2.308 5.606 5.13 0 2.821-2.517 5.13-5.606 5.13h8.006c3.077 0 5.606 2.309 5.606 5.13 0 2.822-2.529 5.125-5.606 5.125zm221.873 350.178c26.924 0 48.751-4.9 48.751-10.945s-21.827-10.946-48.751-10.946c-26.925 0-48.752 4.901-48.752 10.946s21.827 10.945 48.752 10.945zm113.283 31.035c48.575 0 87.952-3.232 87.952-7.219 0-3.988-39.377-7.22-87.952-7.22-48.574 0-87.951 3.232-87.951 7.22 0 3.987 39.377 7.219 87.951 7.219zm-353.134-7.219c48.574 0 87.951-4.901 87.951-10.946s-39.377-10.945-87.951-10.945c-48.575 0-87.952 4.9-87.952 10.945s39.377 10.946 87.952 10.946zm134.098-54.792c36.548 0 66.177-4.9 66.177-10.945s-29.629-10.946-66.177-10.946c-36.549 0-66.178 4.901-66.178 10.946s29.629 10.945 66.178 10.945zm18.475 91.166c29.258 0 52.977-4.901 52.977-10.946 0-6.044-23.719-10.945-52.977-10.945-29.259 0-52.977 4.901-52.977 10.945 0 6.045 23.718 10.946 52.977 10.946z" fill="#6E1866"/><path d="M362.383 165.794c-1.399-9.422-9.96-31.41-9.96-31.41a36.568 36.568 0 0 0-.505-1.944c-6.073-20.867-14.478-22.681-14.478-22.681l-30.107-6.481c.252.158.472.362.648.603a4.183 4.183 0 0 0-.473.071 11.786 11.786 0 0 1-2.638-5.703c-.058-.31-.11-.648-.149-.965a21.188 21.188 0 0 0 6.365-16.31 21.19 21.19 0 0 0-8.089-15.528 30.594 30.594 0 0 0-.965-.713c1.419-1.51 1.464-3.61.401-5.71-2.371-4.925-7.53-8.042-12.831-9.564-4.05-1.16-8.424-1.536-12.455-.266-2.288.726-4.374 1.944-6.519 3.026-3.999 1.996-8.425 3.577-11.412 6.863-.7.765-1.348 1.743-1.141 2.754.156.752.752 1.335 1.134 2.003.862 1.496.648 3.382.059 5.015-.59 1.633-1.452 3.15-1.86 4.822-.409 1.672-.253 3.642 1.004 4.84.603.466 1.23.898 1.879 1.297a9.883 9.883 0 0 1 1.796 2.015 844.496 844.496 0 0 1 3.564 4.815 49.688 49.688 0 0 1 4.465 6.785c.888 1.75 1.574 3.616 2.76 5.184.348.458.746.875 1.186 1.245l-.35-.137a5.412 5.412 0 0 0 3.96 1.614h.181a1.09 1.09 0 0 0 .726-.298v.648c.071 2.313.058 4.776-.104 7.089l-.278-.142a2.43 2.43 0 0 0-2.592.272l-27.717 22.241s-6.027 8.243-5.184 22.474l-4.861 21.34s-6.072 18.106-1.399 31.034a5424.673 5424.673 0 0 0 7.381 20.323s1.866 14.691 4.672 15.89c2.806 1.198 4.018 1.846 4.018 1.846l.557 3.513s.188.343.519.92c2.041 3.551 9.604 16.084 13.997 14.743.553 3.403.792 6.85.713 10.297l4.349 29.194s3.032 7.939 2.844 12.099c-.187 4.161 3.539 10.09 3.539 10.09a19.282 19.282 0 0 0-1.867 13.577c1.776 7.776 4.018 43.6 4.018 43.6l3.24 8.683-.09 10.181a9.73 9.73 0 0 1-2.009 4.536c-2.1 2.281-1.944 4.919-7.006 8.036-5.061 3.117-8.268 4.296-8.268 8.424-.007.576-.059 1.15-.156 1.718-.467 3.033-1.374 4.679 7.932 5.56 10.932 1.037 18.223-6.092 18.223-6.092s1.607-2.916 9.176-4.095c0 0 2.592-.136 2.728-2.424.052-.791.039-2.3 0-3.966-.123-3.169-.427-6.869-.829-7.051-.506-.226-1.387-3.415-1.692-4.568h2.107s1.944-14.691 0-24.204c-1.945-9.514-.188-16.26-.188-16.26l-.376-25.124s-2.592-2.774-.558-7.673c2.035-4.899 0-29.097 0-29.097s.752-8.684 2.897-10.718c2.145-2.035.104-12.721 0-13.279l3.824 12.825s1.678 25.494 5.236 30.108l1.024 11.548s7.284 10.628 5.884 16.35c-1.4 5.722 1.497 26.42 1.497 26.42v21.159s-3.273 8.496 1.296 11.548l1.944-.078c-.648.603-1.147 1.51-1.905 2.294-.875.901-1.374 4.329-1.653 7.278-.233 2.495-.311 4.64-.311 4.64s1.944 3.11 5.606 3.324c3.661.214 15.728 9.39 15.728 9.39s11.917 0 15.002-.648l.181-.045a4.054 4.054 0 0 0 2.327-1.899c.617-1.053.816-2.3.557-3.493-.382-1.821-1.828-3.817-5.029-5.515-7.964-4.199-9.15-8.133-9.15-8.133l-5.23-7.847h.745s-.46-8.315 5.23-17.647l-.369-41.105s2.333-14.133-1.679-21.806c0 0-.33-8.126 2.353-10.621 2.683-2.495-3.571-27.711-3.571-27.711s-1.296-13.537-2.819-25.889c6.305 5.982 12.844-15.553 13.946-19.382h.162l-.072-.279c.046-.182.072-.272.072-.272s-1.4-4.977-.376-3.966c1.024 1.011 3.551-2.774 3.551-2.774s-.376-20.601 4.018-30.983c4.394-10.381-1.951-35.668-1.951-35.668zm-18.793 13.11l.033-.058c.648 12.578-.123 39.42-.123 39.42s-.869 3.441-1.795 7.491l-.649-25.5-.648-24.023 3.182 2.67zm-80.428-8.671s3.176 39.719 0 45.447c-.9 1.633-1.659 4.537-2.287 7.848-1.05-2.754-3.273-9.221-2.476-12.65 1.031-4.432-2.054-16.077-2.054-16.35 0-.272-.279-6.48 1.944-11.224 2.223-4.743.765-6.798.765-6.798s1.866-7.776 4.108-6.273z" fill="url(#paint0_linear)"/><path d="M270.899 259.689c-2.767 12.163-13.77-6.228-16.278-10.641a70.51 70.51 0 0 1-.506-.914l1.193-5.592 6.305-2.593a17.537 17.537 0 0 1 2.825 1.841c3.455 2.715 8.593 8.476 6.461 17.899zm85.366-19.902s0 .091-.071.272c0 .078-.052.182-.084.292-1.083 3.798-7.498 25.176-13.693 19.24-6.779-6.48-3.487-21.463-3.487-21.463h.045l14.257-1.458 2.826 2.903.207.214z" fill="#D38884"/><path d="M348.016 344.996l.363 40.827c-5.593 9.267-5.132 17.497-5.132 17.497l-18.431.726c-4.497-3.027-1.296-11.458-1.296-11.458v-21.022s-2.845-20.536-1.471-26.226c1.374-5.69-5.774-16.201-5.774-16.201l-1.011-11.464c-3.486-4.582-5.139-29.887-5.139-29.887l-3.739-12.78c.104.551 2.048 11.218 0 13.181-2.048 1.964-2.845 10.635-2.845 10.635s2.016 24.029 0 28.883c-2.015 4.854.545 7.614.545 7.614l.369 24.943s-1.743 6.694.181 16.136c1.925 9.442 0 24.03 0 24.03h-19.771l.09-10.181-3.201-8.619s-2.203-35.577-3.946-43.283a19.336 19.336 0 0 1 1.827-13.479s-3.661-5.864-3.48-9.992c.182-4.128-2.825-12.002-2.825-12.002l-4.264-28.974a56.298 56.298 0 0 0-2.113-16.505c-2.476-8.256-6.143-19.079-6.143-19.079l4.141.37 20.892 1.86s50.8-3.416 53.075-.577c.479.928.803 1.928.959 2.961 2.281 10.246 5.294 42.343 5.294 42.343s6.144 25.034 3.506 27.509c-2.637 2.476-2.313 10.537-2.313 10.537 3.953 7.615 1.652 21.677 1.652 21.677z" fill="#444053"/><path d="M305.072 415.911c-.143 2.275-2.677 2.411-2.677 2.411-7.426 1.166-9.008 4.057-9.008 4.057s-7.128 7.083-17.879 6.052c-9.137-.881-8.249-2.508-7.776-5.521.092-.562.141-1.129.149-1.698 0-4.128 3.162-5.301 8.113-8.424 4.951-3.124 4.815-5.71 6.876-7.978s2.274-6.668 2.274-6.668c2.333-4.063 8.25.648 8.25.648.279 1.439 9.072 1.238 9.072 1.238s1.167 4.679 1.77 4.951c.395.181.693 3.849.81 6.999.064 1.652.077 3.149.026 3.933z" fill="#B07473"/><path opacity=".1" d="M305.072 415.911c-.143 2.275-2.677 2.411-2.677 2.411-7.426 1.166-9.008 4.057-9.008 4.057s-7.128 7.083-17.879 6.052c-9.137-.881-8.249-2.508-7.776-5.521 4.082 1.011 11.885 2.424 16.44-.052 6.332-3.434 10.874-5.832 10.874-5.832l10.006-5.035c.058 1.639.071 3.136.02 3.92z" fill="#000"/><path d="M361.043 428.153a3.949 3.949 0 0 1-2.281 1.885l-.175.046c-3.026.648-14.723.648-14.723.648s-11.827-9.144-15.404-9.351c-3.577-.208-5.502-3.305-5.502-3.305s.071-2.126.298-4.601c.279-2.93.765-6.332 1.627-7.226 1.581-1.653 1.944-3.888 5.502-2.476 0 0 5.08-8.955 11.068-2.034l6.195 9.396s1.167 3.888 9.014 8.107c3.137 1.685 4.537 3.668 4.932 5.476a4.827 4.827 0 0 1-.551 3.435z" fill="#B07473"/><path opacity=".1" d="M361.043 428.153c-.7.589-1.471 1.224-2.281 1.885l-.175.046c-3.026.648-14.723.648-14.723.648s-11.827-9.144-15.404-9.351c-3.577-.208-5.502-3.305-5.502-3.305s.071-2.126.298-4.602c3.642 1.089 9.157 3.014 10.634 5.088 2.269 3.156 9.157 7.562 9.157 7.562s12.844-1.238 18.547-1.406a4.827 4.827 0 0 1-.551 3.435z" fill="#000"/><path d="M311.058 108.158l-16.914 17.879s-20.497-1.51-16.92-7.562c1.821-3.085 2.106-9.539 1.944-15.152-.149-5.41-.706-10.018-.706-10.018s28.747-14.309 26.569-.966a21.98 21.98 0 0 0-.078 7.615c1.225 6.739 6.105 8.204 6.105 8.204z" fill="#D38884"/><path opacity=".1" d="M305.007 92.34a21.932 21.932 0 0 0-.078 7.614 21.096 21.096 0 0 1-15.048 6.279c-3.888 0-8.094-3.195-11.237-5.042a617.8 617.8 0 0 1-.181-7.886s28.747-14.309 26.544-.966z" fill="#000"/><path d="M311.058 83.947a21.18 21.18 0 0 1-16.466 20.66 21.186 21.186 0 0 1-25.371-25.368 21.182 21.182 0 0 1 33.866-11.843 21.182 21.182 0 0 1 7.971 16.551z" fill="#D38884"/><path opacity=".1" d="M339.877 242.93c-5.275 12.553-39.206 12.812-39.206 12.812v-13.687l-2.055-.136c.888 3.921-1.244 13.48-1.244 13.48-26.816 3.784-33.354-11.497-33.354-11.497l.933-5.229 20.893 1.86s50.799-3.416 53.074-.577c.481.932.805 1.937.959 2.974z" fill="#000"/><path d="M300.671 254.09v-13.687l-2.055-.13c.888 3.889-1.244 13.48-1.244 13.48-20.18 2.844-28.876-5.1-31.942-9.209a12.546 12.546 0 0 1-1.412-2.281l8.191-46.076 1.944-67.81 2.936-11.898.68-5.71v-.064h.071l2.087.894 12.488 5.398 14.185-10.712.208-.149.706-.538 1.173.94 2.916 2.339 9.351 60.391s16.201 46.497 19.234 65.264c.123.752.22 1.451.298 2.106 2.003 17.134-39.815 17.452-39.815 17.452z" fill="#6E1866"/><path d="M293.931 119.537a1.204 1.204 0 1 0 .001-2.409 1.204 1.204 0 0 0-.001 2.409zm.558 11.004a1.206 1.206 0 1 0-.001-2.411 1.206 1.206 0 0 0 .001 2.411zm1.205 17.815a1.206 1.206 0 1 0-.002-2.412 1.206 1.206 0 0 0 .002 2.412zm1.989 19.188a1.205 1.205 0 1 0 0-2.41 1.205 1.205 0 0 0 0 2.41zm1.206 18.016a1.205 1.205 0 1 0 0-2.41 1.205 1.205 0 0 0 0 2.41zm1.205 19.188a1.205 1.205 0 1 0 0-2.41 1.205 1.205 0 0 0 0 2.41zm-.48 18.981a1.206 1.206 0 1 0-.001-2.411 1.206 1.206 0 0 0 .001 2.411z" fill="#67647E"/><path opacity=".1" d="M278.571 202.888s-1.348 17.646-3.823 22.779c-2.476 5.132-3.577 19.532-3.577 19.532l-5.749-.649a12.512 12.512 0 0 1-1.412-2.281l8.191-46.075 1.944-67.811 2.942-11.904.681-5.71.077-.032a2.312 2.312 0 0 1 2.048.032l.272.143a16.39 16.39 0 0 0-.233.719c-2.242 7.019-3.078 19.953-3.078 19.953s3.24 23.66 3.577 34.664c.337 11.004-1.86 36.64-1.86 36.64z" fill="#000"/><path opacity=".1" d="M264.438 241.809a3.26 3.26 0 0 1-.22.428c-2.229 3.765-7.88 6.156-9.597 6.811a70.51 70.51 0 0 1-.506-.914l1.193-5.592 6.305-2.593a17.6 17.6 0 0 1 2.825 1.86z" fill="#000"/><path d="M249.165 151.758l-5.23 3.117-4.763 21.184s-5.962 17.97-1.38 30.808a4712.355 4712.355 0 0 0 7.245 20.186s1.834 14.581 4.588 15.774c2.754 1.192 3.94 1.834 3.94 1.834l.551 3.486s7.465-2.534 10.103-6.999c2.637-4.465-1.944-15.553-1.944-15.553s-3.94-9.448-2.93-13.848c1.011-4.4-2.021-15.955-2.021-16.201 0-.246-.273-6.422 1.944-11.146 2.216-4.725.738-6.74.738-6.74l-1.38-13.479-9.461-12.423z" fill="#67647E"/><path opacity=".1" d="M340.312 238.964s-13.849 5.224-18.249.648c-4.4-4.575-3.947-26.044-3.947-26.044s-4.212-39.615-6.875-46.121c-2.664-6.506-1.296-53.463-1.296-53.463s-1.789-6.072-3.351-7.66a1.696 1.696 0 0 0-.33-.266l.538.117 1.879.402 2.916 2.339 9.351 60.391s16.201 46.497 19.234 65.264l.13 4.393z" fill="#000"/><path opacity=".1" d="M356.265 240.338h-.155c-1.744.227-17.128 2.087-17.193-1.114a9.331 9.331 0 0 1 .059-1.109l14.256-1.458 2.826 2.904c.052.187.091.349.129.479l.078.298z" fill="#000"/><path d="M341.503 130.541l10.109 5.275s8.425 21.813 9.772 31.164c0 0 6.241 25.053 1.945 35.357-4.297 10.304-3.941 30.756-3.941 30.756s-2.475 3.759-3.486 2.754c-1.011-1.004.369 3.94.369 3.94s-17.283 2.294-17.354-1.101c-.071-3.396 3.966-19.623 3.966-19.623s1.102-38.604-.46-44.656c-1.562-6.053-.92-43.866-.92-43.866z" fill="#67647E"/><path opacity=".1" d="M311.338 171.659s-5.69 13.933-7.524 14.853c-1.834.92.37 4.582.37 4.582s10.362-14.484 7.154-19.435zm-3.397-48.875c.065-.266-6.785 6.72-8.619 7.777-1.834 1.056 6.694-.065 8.619-7.777zm-19.071 47.773s-10.453 6.759-9.073 9.436c1.381 2.676 9.073-9.436 9.073-9.436zm18.981 98.664s8.897 5.722 22.739 7.129l-22.739-7.129zm-21.366 13.758s8.25 10.369 12.015 10.634c3.765.266-12.015-10.634-12.015-10.634zm11.555 40.632c-.37.182-4.679 9.351-9.073 9.63-4.394.279 9.073-9.63 9.073-9.63zm38.233 20.089s8.179-1.834 10 4.031c0-.019-.551-1.853-10-4.031zm-5.5 33.543s9.909-2.022 12.015.732c2.106 2.754-12.015-.732-12.015-.732zm-28.03 4.692c0 .09-10.084 2.021-9.721 3.304.363 1.284 10.758 1.102 11.127-.92a1.944 1.944 0 0 0-1.406-2.384zm24.731 8.696s16.57-2.022 15.553 1.465c-1.018 3.486-15.553-1.465-15.553-1.465zm-86.747-204.119c.09.272 10.913 1.743 12.377 5.23 0 0-10.634-4.958-12.313-4.958m15.159 28.06s-8.988 2.845-8.347 7.129c.642 4.283-.914-1.983 8.347-7.129zm-4.187 21.826s3.272-4.491 6.389-3.668c3.117.823-6.389 3.668-6.389 3.668zm51.325-169.274a5.116 5.116 0 0 1-1.05.784c-2.592 1.51-3.305 3.837-4.536 6.52-1.147 2.456-2.411 5.054-4.725 6.448-2.987 1.801-6.921 1.14-10.025 2.708a7.774 7.774 0 0 0-4.147 7.666c.197 1.194.492 2.368.881 3.513a25.038 25.038 0 0 1 .946 7.627 1.23 1.23 0 0 1 0 .227 21.174 21.174 0 0 1-11.476-22.101 21.185 21.185 0 0 1 17.481-17.737 21.178 21.178 0 0 1 16.677 4.345h-.026z" fill="#000"/><path d="M302.536 61.02c-2.326-4.887-7.387-7.984-12.591-9.494-3.972-1.147-8.288-1.523-12.228-.26-2.249.713-4.291 1.945-6.397 3.001-3.927 1.983-8.243 3.551-11.198 6.81-.693.76-1.296 1.731-1.121 2.736.149.745.732 1.296 1.108 1.983.849 1.49.648 3.363.059 4.983-.59 1.62-1.426 3.124-1.828 4.789-.402 1.666-.246 3.616.985 4.802.551.525 1.257.855 1.854 1.296a9.79 9.79 0 0 1 1.756 1.996l3.499 4.782a48.539 48.539 0 0 1 4.381 6.734c.868 1.736 1.542 3.59 2.709 5.139 1.166 1.548 2.981 2.793 4.912 2.624a.954.954 0 0 0 .777-.369c.072-.152.106-.319.098-.486a24.898 24.898 0 0 0-.927-7.602 21.895 21.895 0 0 1-.881-3.512 7.807 7.807 0 0 1 4.147-7.666c3.111-1.569 7.044-.908 10.025-2.703 2.32-1.4 3.584-3.998 4.724-6.48 1.251-2.683 1.945-5.01 4.537-6.52 2.592-1.51 2.89-4.01 1.6-6.583z" fill="#585268"/><path opacity=".1" d="M293.05 407.247s3.24 4.128 2.398 6.48c-.843 2.353-2.398-6.48-2.398-6.48zm43.84 10.33s.719-5.535 3.603-5.587c2.884-.051 3.026-.298 5.229.551 2.204.849 4.271 2.165 3.61 2.359-.661.195-3.791-3.162-7.005-1.445a23.135 23.135 0 0 0-5.437 4.122zm-53.509-293.639l9.073-6.358s-13.272-7.841-14.853-6.739c-1.582 1.101-2.67 11.016-2.67 11.016l8.45 2.081z" fill="#000"/><path d="M283.342 123.529l9.073-6.48s-13.272-7.841-14.853-6.74c-1.582 1.102-2.67 11.561-2.67 11.561l8.45 1.659z" fill="#E1E7EF"/><path d="M283.342 123.529l9.073-6.48s-13.272-7.841-14.853-6.74c-1.582 1.102-2.67 11.561-2.67 11.561l8.45 1.659z" fill="#6E1866"/><path d="M279.065 110.361l-.272-.136a2.359 2.359 0 0 0-2.547.266l-27.217 22.078s-5.917 8.185-5.094 22.306l16.052 22.74s1.834-7.699 4.031-6.235c0 0 3.117 39.434 0 45.117s-4.491 26.958-4.491 26.958l10.543 1.193s1.102-14.4 3.578-19.532c2.475-5.133 3.823-22.779 3.823-22.779s2.229-25.636 1.86-36.64c-.37-11.003-3.577-34.663-3.577-34.663s.9-13.868 3.311-20.673z" fill="#67647E"/><path opacity=".1" d="M306.18 119.92l-11.308-4.187s14.399-15.773 16.201-7.024l-4.893 11.211z" fill="#000"/><path d="M306.18 119.369l-11.308-4.186s14.399-15.774 16.201-7.025l-4.893 11.211z" fill="#E1E7EF"/><path d="M306.18 119.369l-11.308-4.186s14.399-15.774 16.201-7.025l-4.893 11.211z" fill="#6E1866"/><path opacity=".1" d="M305.81 105.948a.646.646 0 0 1 .466.104l-.466-.104z" fill="#000"/><path d="M306.898 104.853l30.005 6.48s8.256 1.834 14.218 22.558c5.962 20.725-8.166 46.115-8.166 46.115l-3.117-2.651 1.562 60.521s-13.849 5.223-18.249.648c-4.4-4.575-3.94-26.064-3.94-26.064s-4.219-39.608-6.882-46.121c-2.663-6.513-1.296-53.457-1.296-53.457s-2.45-8.392-4.135-8.029z" fill="#67647E"/><path opacity=".1" d="M334.349 143.418c-.422.388-.914 18.702.92 32.641a177.928 177.928 0 0 0 5.184 25.125l-2.722-55.842s-2.099-3.117-3.382-1.924zm-3.667-15.774c.732.46 3.946 8.068 2.475 11.185-1.471 3.118-2.475-11.185-2.475-11.185zm-28.32-66.624a16.562 16.562 0 0 0-6.597-6.909 15.69 15.69 0 0 1 4.945 5.833c1.296 2.592.913 5.184-1.608 6.603-2.52 1.42-3.305 3.837-4.536 6.52-1.147 2.456-2.411 5.054-4.73 6.48-2.981 1.802-6.915 1.134-10.026 2.702a7.833 7.833 0 0 0-4.147 7.673c.199 1.191.496 2.364.888 3.506a25.103 25.103 0 0 1 .946 7.627c.006.168-.03.335-.104.486a.92.92 0 0 1-.771.37 4.479 4.479 0 0 1-2.262-.421 5.273 5.273 0 0 0 3.889 1.522.761.761 0 0 0 .833-.507.776.776 0 0 0 .035-.348 24.852 24.852 0 0 0-.94-7.627 21.35 21.35 0 0 1-.888-3.513 7.808 7.808 0 0 1 4.148-7.666c3.11-1.568 7.044-.907 10.025-2.702 2.32-1.4 3.584-3.999 4.724-6.48 1.251-2.684 1.944-5.01 4.537-6.52 2.592-1.51 2.935-4.057 1.639-6.63z" fill="#000"/><path d="M486.969 142.4c-8.93-.175-16.811-6.48-21.276-14.185a14.256 14.256 0 0 1-2.151-6.072 7 7 0 0 1 .246-1.452c.273-.723.49-1.466.648-2.223a3.822 3.822 0 0 0 0-.907v-.052c.214-1.639-.751-3.24-1.944-4.361-1.192-1.121-2.689-1.944-3.933-3.059-3.837-3.37-5.003-8.774-5.075-13.92v-.272c.046-2.203.221-4.413.201-6.617a27.73 27.73 0 0 0-.162-3.745c-.369-3.117-1.555-6.293-4.005-8.282-6.389-5.184-17.134.214-23.75-4.685-1.607-1.2-2.91-2.968-4.86-3.435-1.472-.356-3.001.123-4.44.603-4.873 1.607-10.31 3.72-12.215 8.424-1.089 2.703-.784 5.787-1.782 8.522-.648 1.834-1.886 3.409-2.787 5.145a8.066 8.066 0 0 0-1.037 4.297c-.08.777.029 1.562.318 2.287a5.836 5.836 0 0 0 1.588 2.275 7.593 7.593 0 0 1-.946 1.516c-1.245 1.523-3.156 2.593-4.452 4.109-2.398 2.78-2.307 6.558-1.128 9.824s3.311 6.241 4.782 9.423c.648 1.38 1.141 2.922.486 4.296-.46.953-1.412 1.679-2.151 2.502a7.856 7.856 0 0 0-1.944 4.341c-14.587 3.331-14.6 15.054-14.6 15.054l-7.881 19.817s-1.263 3.338-2.747 7.744l-9.326-1.671 6.481 10.848c-1.225 4.419-2.093 8.515-1.808 10.576 0 0-2.897 13.608 2.255 15.987l11.367 5.113a6.724 6.724 0 0 0 1.574.706l.46.208a1.226 1.226 0 0 0 1.063 0h.156c.22.014.441-.019.648-.098.253-.136.454-.353.57-.615a.178.178 0 0 1 0-.065l3.402-.985 2.884 3.415c1.296.914 2.592 1.704 3.817 2.417l-4.465 44.339s-.719 58.971-2.897 72.412c-.803 4.977-.81 8.372-.505 10.679l-.084.143c.537 3.791 1.944 4.536 1.944 4.536v-.052a.405.405 0 0 0 .084.052 38.202 38.202 0 0 1 2.333-5.003v.972c-.046 5.003-.201 12.009-.719 16.564-.882 7.777 2.255 33.407 2.255 33.407l1.082 23.329a21.567 21.567 0 0 1-2.657 11.367c-2.592 4.659-5.904 11.217-6.143 14.127a2.873 2.873 0 0 0 0 .473l-5.561 6.688s-2.171 3.356 2.735 4.711c2.638.732 7.187 0 10.842-.862a7.248 7.248 0 0 0 5.618-7.051 24.948 24.948 0 0 1 4.588-8.806l.914 5.372 6.118 1.516.784-14.723a6.48 6.48 0 0 0 .421-2.592c1.205-10.473-2.838-9.533-2.838-9.533a.566.566 0 0 1 .194.363l-.194-.357c-2.482-4.899-1.297-12.96-1.297-12.96s3.241-23.33 4.349-29.493c.797-4.354.466-18.611.201-26.569 0-.331 0-.648-.033-.966 9.488-.123 21.113-.44 29.272-1.231v.959l-1.503 55.116a30.265 30.265 0 0 1-2.113 10.252c0 .065-.045.123-.071.188a44.717 44.717 0 0 0-2.988 14.444l-.7 17.497v.486c-1.218.467-3.142 1.822-3.194 5.749-.085 5.754 10.057 3.836 10.057 3.836 10.136 0 10.22-10.55 10.22-10.55s.317-9.675.803-16.149c.486-6.474-1.529-5.048-1.529-5.048l-.156 18.417v.142-16.142l.156-2.34v-.563l1.277-18.994s9.338-31.651 10.783-37.723c1.03-4.316.603-17.315.266-24.502 0-.331 0-.648-.052-.953a75.747 75.747 0 0 1 6.48-.285h.473s-.479-50.832-1.691-69.988c-1.212-19.156-3.137-36.685-7.964-41.96-2.917-3.189-6.98-13.032-9.721-20.323a101.635 101.635 0 0 0 17.866 5.832c15.288 3.202 13.194-10.07 13.194-10.07l-1.548-25.099h.103a127.861 127.861 0 0 0-1.685-19.622c-.81-4.977-2.047-10.123-3.94-14.257a117.822 117.822 0 0 0 4.906-2.054c4.154-1.834 8.833-4.433 9.429-8.911h-.201c.08-.323.132-.653.156-.985zm-94.763 36.29c.032 2.592-.065 7.09-.22 12.06l-4.854-6.48 4.867-7.893.207 2.313zm67.059 22.967l-8.088-2.592a36.282 36.282 0 0 1 4.997-6.183l.7-.648-.253.052.389-.356.233-.052-.369.356.44-.09a13.806 13.806 0 0 0 2.754 5.54c2.904 3.169-.797 3.973-.797 3.973h-.006z" fill="url(#paint1_linear)"/><path d="M410.137 434.944l-.946 17.938-6.033-1.51-1.27-7.459 8.249-8.969z" fill="#A27772"/><path opacity=".1" d="M410.137 434.944l-.946 17.938-6.033-1.51-1.27-7.459 8.249-8.969z" fill="#000"/><path d="M432.28 455.26l9.202 1.905 6.824-6.027v-16.985l.156-2.32v-.563l1.27-18.878s9.209-31.423 10.641-37.456c1.011-4.277.589-17.186.252-24.321-.136-2.923-.252-4.88-.252-4.88l-20.316-4.919-.428 15.618-1.484 54.721a30.305 30.305 0 0 1-2.08 10.18l-.071.188a44.537 44.537 0 0 0-2.949 14.335l-.687 17.4v.479l-.078 1.523z" fill="#CC818C"/><path opacity=".1" d="M432.28 455.26l9.202 1.905 6.824-6.027v-1.445a1.942 1.942 0 0 1-.978 1.556l-.097.058a18.344 18.344 0 0 1-10.33 2.041l-3.59-.304c-.328.03-.649.109-.953.233v.479l-.078 1.504z" fill="#000"/><path d="M447.23 451.78l.097-.052a1.942 1.942 0 0 0 .992-1.685l.149-18.281s1.983-1.419 1.503 5.01c-.479 6.428-.79 16.032-.79 16.032s-.078 10.472-10.077 10.472c0 0-10 1.906-9.922-3.81.078-5.716 4.128-5.949 4.128-5.949l3.59.311c3.57.345 7.162-.368 10.33-2.048z" fill="#B07473"/><path d="M384.352 451.372c.233 4.128 12.377 1.743 12.377 1.743l8.172-15.864s6.824-5.243 3.409-9.844a7.117 7.117 0 0 1-.499-.784l-.033-.039a4.92 4.92 0 0 1-.201-.369c-2.449-4.86-1.244-12.831-1.244-12.831s3.169-23.174 4.284-29.285c.784-4.316.46-18.476.2-26.395-.103-3.292-.2-5.501-.2-5.501l-20.161-5.399v6.014c-.045 4.971-.201 11.924-.713 16.447-.868 7.693 2.223 33.167 2.223 33.167l1.069 23.18a21.462 21.462 0 0 1-2.592 11.283c-2.527 4.627-5.832 11.146-6.059 14.03a2.784 2.784 0 0 0-.032.447z" fill="#CC818C"/><path opacity=".1" d="M384.351 451.372c.234 4.128 12.378 1.743 12.378 1.743l8.172-15.864s6.823-5.243 3.408-9.844a7.425 7.425 0 0 1-.499-.784c-.11 2.404-2.747 8.425-2.747 8.425s-6.746 13.498-8.891 16.589c-2.145 3.092-11.464-.576-11.814-.706a2.824 2.824 0 0 0-.007.441z" fill="#000"/><path d="M407.577 426.196s3.992-.927 2.8 9.467a6.703 6.703 0 0 1-3.156 5.943c-2.858 1.795-7.265 5.657-9.494 13.168a7.18 7.18 0 0 1-5.541 6.999c-3.603.842-8.094 1.581-10.692.855-4.841-1.348-2.696-4.679-2.696-4.679l5.553-6.59s9.682 3.81 11.821.713c2.138-3.098 8.891-16.584 8.891-16.584s3.7-8.418 2.514-9.292z" fill="#B07473"/><path opacity=".1" d="M440.057 342.741l-.428 15.618c5.411-.525 9.286-1.257 9.947-2.288 1.432-2.216 6.63-3.149 11.049-3.532a426.26 426.26 0 0 0-.252-4.879l-20.316-4.919zm-49.601 11.976a7.408 7.408 0 0 1 2.223-2.683c2.138-1.186 1.905 7.621 1.905 7.621s7.128.065 16.233-.052c-.103-3.292-.2-5.508-.2-5.508l-20.161-5.392s.039 2.502 0 6.014z" fill="#000"/><path d="M388.156 356.804s2.385-6.481 4.536-7.634c2.152-1.154 1.906 7.614 1.906 7.614s52.374.48 54.992-3.571c2.618-4.05 17.854-3.81 17.854-3.81s-.474-50.469-1.666-69.509c-1.192-19.039-3.091-36.426-7.854-41.662-3.078-3.389-7.459-14.354-10.168-21.664a282.805 282.805 0 0 1-2.449-6.901l-49.99 2.851-.408 4.05-5.308 53.087s-.713 58.564-2.858 71.894c-2.145 13.33 1.413 15.255 1.413 15.255z" fill="#444053"/><path opacity=".1" d="M445.52 353.213c2.592-4.043 17.854-3.81 17.854-3.81s-.474-50.469-1.666-69.509c-1.192-19.039-3.091-36.426-7.854-41.662-3.091-3.402-7.459-14.354-10.168-21.664a263.696 263.696 0 0 1-2.372-6.681l3.889-.22s.978 2.909 2.456 6.901c2.708 7.31 7.083 18.275 10.161 21.664 4.763 5.236 6.668 22.617 7.854 41.662 1.186 19.046 1.672 69.509 1.672 69.509s-15.235-.233-17.86 3.81c-2.236 3.455-40.774 3.617-51.96 3.584 14.354-.032 45.972-.46 47.994-3.584zm-56.897-4.043c.966-.538 1.445.952 1.685 2.76a37.447 37.447 0 0 0-2.249 4.874s-1.38-.746-1.944-4.537c.791-1.354 1.666-2.631 2.508-3.097z" fill="#000"/><path d="M403.605 87.557c-3.46 4.717.039 11.425-3.674 16.013-1.225 1.516-3.111 2.592-4.388 4.082-2.365 2.761-2.274 6.513-1.114 9.753 1.16 3.241 3.24 6.196 4.718 9.358.648 1.367 1.127 2.903.479 4.264-.453.946-1.393 1.666-2.125 2.482-2.385 2.664-2.45 6.364-1.167 9.5 1.283 3.137 3.733 5.833 6.15 8.49.953 1.043 2.158 2.196 3.746 2.164a5.18 5.18 0 0 0 2.352-.771 23.979 23.979 0 0 0 10.913-31.294c-2.009-4.815-5.359-9.429-5.392-14.516 0-4.037 2.074-7.893 2.443-11.91.448-4.887-2.443-12.644-8.34-14.776.389 3.136-2.845 4.737-4.601 7.16z" fill="#585268"/><path opacity=".1" d="M403.605 87.557c-3.46 4.717.039 11.425-3.674 16.013-1.225 1.516-3.111 2.592-4.388 4.082-2.365 2.761-2.274 6.513-1.114 9.753 1.16 3.241 3.24 6.196 4.718 9.358.648 1.367 1.127 2.903.479 4.264-.453.946-1.393 1.666-2.125 2.482-2.385 2.664-2.45 6.364-1.167 9.5 1.283 3.137 3.733 5.833 6.15 8.49.953 1.043 2.158 2.196 3.746 2.164a5.18 5.18 0 0 0 2.352-.771 23.979 23.979 0 0 0 10.913-31.294c-2.009-4.815-5.359-9.429-5.392-14.516 0-4.037 2.074-7.893 2.443-11.91.448-4.887-2.443-12.644-8.34-14.776.389 3.136-2.845 4.737-4.601 7.16zm38.378 171.607c-6.928.363-13.447 3.344-19.513 6.713-6.065 3.37-11.936 7.187-18.462 9.578m33.672.033a28.556 28.556 0 0 0-17.983 8.748c-1.685 1.782-3.137 3.778-4.893 5.489a21.732 21.732 0 0 1-9.643 5.463m33.937-7.277a31.449 31.449 0 0 0-14.465 8.722c-1.062 1.147-2.028 2.372-3.091 3.519-5.735 6.156-13.835 9.423-21.657 12.514" fill="#000"/><path d="M438.508 115.63c.153 5.535.629 11.057 1.426 16.538.648 3.888 1.555 7.387 2.858 8.936 3.81 4.536-18.567 10.596-18.567 10.596l-13.213-10.239s10.472-9.643 5.592-19.046c-4.879-9.403 21.904-6.785 21.904-6.785z" fill="#CC818C"/><path opacity=".1" d="M394.896 216.568h52.848a285.893 285.893 0 0 1-2.45-6.901l-49.989 2.851-.409 4.05z" fill="#000"/><path d="M391.494 215.616h56.502c-1.588-5.684 0-10.939 2.262-14.983a33.1 33.1 0 0 1 5.916-7.673l.389-.356 19.726-4.368 1.063-.233s.162-35.869-12.539-40.794c-12.702-4.925-20.316-11.581-20.316-11.581l-17.452 5.392-12.857-6.481c-4.128 4.44-15.08 2.696-15.08 2.696-17.931 2.061-17.931 15.553-17.931 15.553s10.472 24.438 11.269 24.438c.797 0-.952 38.39-.952 38.39z" fill="#6E1866"/><path opacity=".1" d="M410.998 192.811s-11.522-2.553-15.442-7.018l15.442 7.018zm58.098-13.382l-13.363 10.952c.097.872.244 1.737.441 2.592l.389-.356 19.726-4.368-7.193-8.82zm-36.18 32.376s2.923 1.646 7.401 3.811h7.679c-1.588-5.684 0-10.939 2.261-14.983l-13.537-4.381c4.608 4.284-3.804 15.553-3.804 15.553z" fill="#000"/><path d="M389.108 148.485l-7.932 4.284-7.776 19.681s-8.094 21.579-7.304 27.295c0 0-2.851 13.492 2.223 15.871l13.22 5.987a1.235 1.235 0 0 0 1.396-.285 1.228 1.228 0 0 0 .192-1.412c-1.886-3.571-3.96-9.157-.648-12.229l-3.811-7.932 13.771-22.539 4.601-7.776-7.932-20.945z" fill="#6E1866"/><path opacity=".1" d="M406.754 188.307c.686 2.8 3.006 7.129 10.686 8.742l8.424 6.902 8.963 4.063 3.654 1.653 1.549-11.192-3.519-1.944-4.102-2.242s-9.254-16.765-23.906-9.721a3.241 3.241 0 0 0-1.749 3.739z" fill="#000"/><path d="M407.235 187.355c.687 2.806 3 7.128 10.68 8.742l8.424 6.901 8.969 4.063 3.649 1.653 1.548-11.192-3.519-1.944-4.069-2.223s-9.261-16.764-23.913-9.688a3.244 3.244 0 0 0-1.769 3.688z" fill="#CC818C"/><path opacity=".1" d="M423.746 130.146c11.306 0 20.471-9.166 20.471-20.472 0-11.306-9.165-20.471-20.471-20.471-11.306 0-20.472 9.165-20.472 20.471 0 11.306 9.166 20.472 20.472 20.472z" fill="#000"/><path d="M423.746 129.673c11.306 0 20.471-9.166 20.471-20.472 0-11.306-9.165-20.471-20.471-20.471-11.306 0-20.472 9.165-20.472 20.471 0 11.306 9.166 20.472 20.472 20.472z" fill="#CC818C"/><path opacity=".1" d="M436.428 152.944l-6.157-11.963s9.008-3.642 9.663-7.861c.654-4.218 8.632 4.945 6.908 7.984-1.724 3.039-10.414 11.84-10.414 11.84z" fill="#000"/><path d="M436.428 151.991l-6.157-11.963s9.008-3.642 9.663-7.86c.654-4.219 8.632 4.951 6.908 7.984-1.724 3.032-10.414 11.839-10.414 11.839z" fill="#6E1866"/><path d="M386.043 182.896l34.015 45.732s-12.539 6.824-29.809-5.392l-7.459-8.891-21.295-35.894 24.548 4.445z" fill="#F6F8FB"/><path d="M379.35 207.761l3.097-.084s18.923-18.365 23.57-9.072c4.646 9.292-11.788 17.976-11.788 17.976l-4.997 2.696-6.512 1.944-4.167-5.592.797-7.868z" fill="#CC818C"/><path opacity=".1" d="M383.917 217.683c.285 1.056.557 2.223.078 3.201a1.298 1.298 0 0 1-.564.616c-.206.079-.428.11-.648.09a6.509 6.509 0 0 1-4.27-2.112 19.531 19.531 0 0 1-2.768-4.005c-.842-1.471-1.717-3.098-1.419-4.77.337-1.821 1.944-3.084 3.519-4.108 3.137-2.074 3.24.343 3.927 3.013.687 2.67 1.426 5.379 2.145 8.075z" fill="#000"/><path d="M383.445 217.683c.279 1.056.557 2.223.078 3.201a1.298 1.298 0 0 1-.564.616c-.207.079-.428.11-.648.09a6.48 6.48 0 0 1-4.271-2.112 19.253 19.253 0 0 1-2.773-4.005c-.843-1.471-1.718-3.098-1.413-4.77.33-1.821 1.944-3.084 3.512-4.108 3.143-2.074 3.24.343 3.934 3.013.693 2.67 1.419 5.379 2.145 8.075z" fill="#6E1866"/><path opacity=".1" d="M392.446 177.206l1.582-2.676-1.381 4.97-.201-2.294zm42.886 29.855l3.648 1.653 1.549-11.192-3.519-1.944c2.431 2.787.305 7.939-1.678 11.483zm14.647-12.993s-11.781.72-16.784-2.495l16.784 2.495z" fill="#000"/><path opacity=".1" d="M448.513 201.586a33.165 33.165 0 0 1 5.916-7.68 15.947 15.947 0 0 1 1.744-.946l18.365-3.771 1.063-.234s.162-35.869-12.533-40.794a76.288 76.288 0 0 1-19.804-11.152l1.393-.428s7.614 6.662 20.316 11.58c12.701 4.919 12.533 40.794 12.533 40.794h-1.905l-18.793 3.597s-.81.784-1.057 1.011a36.446 36.446 0 0 0-6.007 7.945 19.918 19.918 0 0 0-1.575 15.06h-1.944c-1.568-5.683.052-10.939 2.288-14.982zm-50.158-63.314c.305-.045.597-.091.914-.123 1.289.183 2.587.289 3.888.318a35.334 35.334 0 0 1-4.802-.195zm26.94 3.7l-11.626-5.884c.231-.189.447-.395.648-.615l12.131 6.137-1.153.362z" fill="#000"/><path d="M469.556 178.451l7.776 9.526 1.588 25.869s2.061 13.169-13.013 9.993c-15.073-3.175-32.518-12.987-32.518-12.987s8.424-11.269 3.81-15.552l21.586 6.985s3.649-.797.791-3.966c-2.858-3.168-3.363-8.891-3.363-8.891l13.343-10.977z" fill="#6E1866"/><path opacity=".1" d="M473.068 205.778l4.284 4.919a6.177 6.177 0 0 1-4.284-4.919zm-7.303-.797l6.668 8.567-3.331.797-3.337-9.364zM399.296 99.805c-.732-1.795-.169-3.889.713-5.58.881-1.691 2.093-3.292 2.754-5.113.978-2.709.68-5.774 1.75-8.424 1.885-4.699 7.245-6.798 12.047-8.425 1.419-.473 2.929-.946 4.38-.596 1.944.46 3.208 2.223 4.796 3.409 6.519 4.86 17.121-.493 23.426 4.652 2.411 1.945 3.584 5.126 3.947 8.218.363 3.09 0 6.227-.039 9.344-.104 5.457.92 11.425 5.003 15.041 1.231 1.089 2.683 1.905 3.888 3.033 1.206 1.128 2.152 2.702 1.944 4.335-.159.75-.376 1.487-.648 2.204-.81 2.845.402 5.832 1.88 8.424 4.406 7.628 12.176 13.914 20.983 14.089-.59 4.445-5.184 7.024-9.299 8.845-5.185 2.327-10.706 4.608-16.415 4.316-5.709-.291-11.665-3.946-12.663-9.571-.343-1.944-.298-4.284-1.944-5.295-1.011-.615-2.32-.46-3.409-.92-1.574-.648-2.352-2.417-2.87-4.044a36.392 36.392 0 0 1-1.692-10.368c-.071-4.174.48-8.729-1.886-12.164-2.19-3.182-6.078-4.795-8.606-7.718-2.332-2.709-4.866-5.975-8.69-6.481-5.288-.745-16.227 6.442-19.35-1.211z" fill="#000"/><path d="M399.296 98.852c-.732-1.795-.169-3.888.713-5.58.881-1.69 2.093-3.292 2.754-5.113.978-2.708.68-5.774 1.75-8.424 1.885-4.705 7.245-6.805 12.047-8.425 1.419-.473 2.929-.946 4.38-.596 1.944.46 3.208 2.223 4.796 3.409 6.519 4.86 17.121-.493 23.426 4.653 2.411 1.944 3.584 5.126 3.947 8.223.363 3.098 0 6.222-.039 9.339-.104 5.456.92 11.425 5.003 15.041 1.231 1.088 2.683 1.905 3.888 3.032 1.206 1.128 2.152 2.703 1.944 4.336-.159.75-.376 1.486-.648 2.203-.81 2.845.402 5.832 1.88 8.425 4.419 7.601 12.157 13.907 20.964 14.082-.59 4.445-5.185 7.024-9.3 8.852-5.184 2.32-10.705 4.601-16.415 4.309-5.709-.291-11.664-3.946-12.662-9.571-.344-1.944-.298-4.284-1.944-5.295-1.011-.615-2.32-.46-3.409-.92-1.575-.648-2.352-2.417-2.871-4.044a36.356 36.356 0 0 1-1.691-10.368c-.071-4.174.479-8.729-1.886-12.164-2.19-3.182-6.079-4.796-8.606-7.718-2.333-2.709-4.867-5.975-8.69-6.481-5.269-.738-16.208 6.461-19.331-1.205z" fill="#585268"/><path opacity=".1" d="M413.825 151.46l11.736-9.526s-8.036-4.355-8.995-8.068c-.959-3.714-7.388 1.762-6.733 5.093.654 3.331 3.992 12.501 3.992 12.501z" fill="#000"/><path d="M414.285 150.028l11.736-9.52s-8.036-4.355-8.956-8.068c-.921-3.713-7.388 1.762-6.733 5.093.654 3.331 3.953 12.495 3.953 12.495z" fill="#6E1866"/><path opacity=".1" d="M426.481 149.412a.933.933 0 1 0 0-1.867.933.933 0 0 0 0 1.867zm0 5.184a.933.933 0 1 0 0-1.867.933.933 0 0 0 0 1.867zm0 5.178a.933.933 0 1 0 0-1.867.933.933 0 0 0 0 1.867zM404.032 85.62c.926-2.548.726-5.406 1.594-7.972a8.754 8.754 0 0 0-.992 1.828c-1.075 2.676-.771 5.741-1.756 8.424l-.065.156a14.79 14.79 0 0 0 1.219-2.437zm74.038 64.148c-5.184 2.32-10.705 4.601-16.414 4.31-5.71-.292-11.665-3.947-12.663-9.565-.343-1.944-.298-4.29-1.944-5.301-1.011-.616-2.32-.46-3.409-.92-1.575-.648-2.352-2.418-2.871-4.044a36.392 36.392 0 0 1-1.691-10.369c-.071-4.167.486-8.722-1.879-12.163-2.197-3.182-6.085-4.789-8.613-7.719-2.333-2.702-4.867-5.975-8.69-6.48-5.243-.713-16.201 6.48-19.299-1.18a6.032 6.032 0 0 1 .201-4.425c-.226.382-.447.764-.648 1.153-.881 1.724-1.438 3.791-.706 5.586 3.117 7.647 14.056.46 19.299 1.18 3.823.518 6.357 3.791 8.69 6.48 2.527 2.929 6.415 4.536 8.606 7.725 2.372 3.434 1.814 7.99 1.885 12.157.059 3.52.629 7.012 1.692 10.368.518 1.633 1.296 3.383 2.871 4.044 1.088.46 2.397.311 3.408.92 1.672 1.011 1.627 3.377 1.944 5.301 1.011 5.619 6.96 9.274 12.663 9.565 5.703.292 11.198-1.983 16.415-4.309 3.759-1.672 7.945-3.986 9.072-7.777-1.801 2.463-4.989 4.161-7.919 5.463z" fill="#000"/><path d="M592.599 186.344c-13.719-7.893-18.904-9.838-18.93-9.838l-.285-.2a11.419 11.419 0 0 1-3.454-4.368 9.21 9.21 0 0 1 0-.94.461.461 0 0 0 0 .091c.214-4.18 3.189-7.984 6.008-11.302l7.212-8.483a8.357 8.357 0 0 0 1.86-2.942 6.793 6.793 0 0 0 .195-1.808v-.739a351.226 351.226 0 0 0-.175-6.324c-.065-1.841-.538-4.161-2.379-4.537-.959-.194-2.229.149-2.734-.648a1.573 1.573 0 0 1-.124-1.095.461.461 0 0 0 0 .091v-.104c.357-1.422.585-2.873.681-4.335a5.913 5.913 0 0 0-.298-2.197c-1.063-3.052-4.737-4.31-7.984-4.886-3.247-.577-6.889-1.07-8.924-3.61a26.222 26.222 0 0 0-1.775-2.443 7.014 7.014 0 0 0-3.318-1.64 18.801 18.801 0 0 0-12.073 1.05c-1.568.7-3.143 1.646-4.867 1.543-1.724-.104-3.318-1.348-5.08-1.646-2.852-.486-5.58 1.607-6.986 4.089a9.988 9.988 0 0 0-1.296 4.821v.285a7.05 7.05 0 0 0 1.853 4.925c1.231 1.296 3.059 2.152 3.571 3.83.207.681.155 1.419.343 2.113.02.086.046.17.078.253l-.091.123a21.38 21.38 0 0 0-4.536 13.181 21.878 21.878 0 0 0 15.371 20.737v.648c0 2.592-.745 5.295-2.981 7.258l-19.434 7.764s-11.717-1.394-15.942 15.727a29.193 29.193 0 0 0-.726 8.684c.156 2.592-.201 7.129-3.24 13.006-4.802 9.41-3.707 31.009 6.117 33.147 9.274 2.022 12.903 1.18 13.285 1.083v.376c-.155 4.056-1.626 39.011-6.973 43.237-1.477 1.173-1.205 1.944 0 2.495 0 0 0 .226-.032.648-.162 2.592-.985 12.312-4.536 17.834-4.154 6.415-3.72 43.418-3.72 43.418l-2.832 21.813s1.743 13.473 0 15.825c-1.562 2.093-3.635 51.934-4.07 62.743h-.181a5.26 5.26 0 0 0-4.199 2.592c-2.294 3.727-10.33 10.615-10.33 10.615-1.743 2.476-8.191 4.848-11.6 5.962-.45.147-.884.338-1.296.571a6.912 6.912 0 0 0-2.929 3.084 3.323 3.323 0 0 0-.311 2.592c.868 2.132 18.994 3.636 23.582 1.491 3.603-1.679 17.886-3.888 23.815-4.757a4.883 4.883 0 0 0 4.238-4.238 2.776 2.776 0 0 0-.056-1.115 2.776 2.776 0 0 0-.488-1.004c-1.134-1.406-1.711-5.249-1.944-7.776a5.246 5.246 0 0 0 1.335-.791 56.924 56.924 0 0 1 3.24-22.882c4.368-11.548 5.677-32.934 4.588-46.834 0 0 13.317-57.313 23.803-62.659.162.208 5.249 6.733 5.897 26.946.648 20.529 8.074 34.002 8.074 34.002s-3.279 34.858 0 47.903l-4.283 20.575c-.318-.265-.519-.473-.519-.473s.13.571.305 1.484l-.091.441.188.039c.486 2.592 1.206 7.057.907 9.72-.168 1.497-.589 3.552-.874 5.567-.454 3.169-.577 6.241 1.088 6.915 2.735 1.101 18.793 2.592 21.515-.934a5.044 5.044 0 0 0 .791-5.281 5.34 5.34 0 0 0-.791-1.348s-4.264-6.966-3.059-11.879a3.6 3.6 0 0 0-.511-2.818c.187-2.411 1.159-13.57 3.674-23.045 2.735-10.291 8.496-32.855 4.257-47.689a21.713 21.713 0 0 0-.544-1.711 64.05 64.05 0 0 1-2.404-25.02 51.004 51.004 0 0 1 0-21.813c2.624-11.976 4.458-23.738 4.458-23.738s1.446-15.825.182-25.526c0-.208-.058-.415-.084-.648l.687-.156s-3.714-16.466-5.023-26.945a1584.72 1584.72 0 0 0-1.153-8.95c1.208-.2 2.397-.497 3.557-.887 11.788-4.064 15.502-40.827 15.502-40.827v-11.665s3.966-17.931-9.792-25.843zM504.751 470.34c-.363-.182-.577-.305-.577-.305l.577.305z" fill="url(#paint2_linear)"/><path d="M585.483 398.596c5.113 14.704-.855 38.571-3.629 49.25-2.773 10.68-3.622 23.447-3.622 23.447-10.868 1.704-18.754-.428-18.754-.428l4.478-21.949c-3.202-13 0-47.741 0-47.741s-7.246-13.428-7.887-33.886c-.648-20.135-5.593-26.647-5.748-26.848-10.226 5.326-23.226 62.445-23.226 62.445 1.063 13.848-.22 35.162-4.478 46.658a57.68 57.68 0 0 0-3.195 22.798c-1.49 1.296-3.564 1.478-5.832 1.115-6.085-.985-13.382-6.228-13.382-6.228s2.339-62.211 4.05-64.57c1.711-2.359 0-15.773 0-15.773l2.767-21.736s-.427-36.873 3.623-43.263c3.499-5.521 4.303-15.229 4.458-17.775v-.648l6.17-7.388s59.671-4.478 64.156 0c1.095 1.095 1.775 3.597 2.177 6.74 1.231 9.668-.182 25.435-.182 25.435s-1.788 11.723-4.348 23.653a51.935 51.935 0 0 0 0 21.742 65.09 65.09 0 0 0 2.404 24.95z" fill="#65617D"/><path d="M581.751 492.043c-2.664 3.518-18.327 2.028-20.997.933-1.626-.648-1.503-3.739-1.062-6.895.278-2.003.687-4.051.855-5.541.421-3.836-1.296-11.619-1.296-11.619s3.512 3.732 4.361 0c.376-1.633 1.685-2.469 3.046-2.891a7.963 7.963 0 0 1 5.534.344c2.767 1.205 7.381 3.765 6.558 7.225-1.172 4.893 2.981 11.84 2.981 11.84.322.405.584.855.778 1.335a5.116 5.116 0 0 1-.758 5.269z" fill="#A27772"/><path opacity=".1" d="M581.751 492.043c-2.664 3.519-18.327 2.028-20.997.933-1.626-.648-1.503-3.739-1.062-6.895 1.684.79 4.536 1.445 9.312 1.004a26.195 26.195 0 0 1 3.35-.103c3.392.152 6.791.083 10.174-.208a5.116 5.116 0 0 1-.777 5.269zm-54.663-89.183c1.063 13.848-.22 35.162-4.478 46.658a57.68 57.68 0 0 0-3.195 22.798c-1.49 1.296-3.564 1.478-5.832 1.115 1.296-8.988 6.766-47.715 10.271-78.315 3.999-34.845 22.682-58.816 22.682-58.816l3.726 4.102c-10.174 5.34-23.174 62.458-23.174 62.458z" fill="#000"/><path d="M575.355 178.872l-2.592 12.786-12.747 21.417-15.715-6.713s-21.385-22.377-7.938-25.572a11.897 11.897 0 0 0 4.458-1.983c2.638-1.99 3.467-4.88 3.48-7.712a23.654 23.654 0 0 0-2.164-9.163l27.49-8.632a44.15 44.15 0 0 0-1.945 11.133c-.213 7.492 2.593 11.179 4.854 12.961a8.258 8.258 0 0 0 2.819 1.478z" fill="#FBBEBE"/><path opacity=".1" d="M569.6 153.3a44.15 44.15 0 0 0-1.945 11.133 20.79 20.79 0 0 1-1.6 1.705 21.752 21.752 0 0 1-21.735 4.957 23.647 23.647 0 0 0-2.184-9.163L569.6 153.3z" fill="#000"/><path d="M572.756 149.781a21.744 21.744 0 0 1-25.979 21.332 21.738 21.738 0 0 1-15.85-29.644 21.74 21.74 0 0 1 20.087-13.423 21.622 21.622 0 0 1 8.335 1.627 21.62 21.62 0 0 1 11.778 11.774 21.637 21.637 0 0 1 1.629 8.334z" fill="#FBBEBE"/><path opacity=".1" d="M575.355 178.872l-2.592 12.786-12.747 21.417-15.715-6.713s-21.385-22.377-7.938-25.572a11.897 11.897 0 0 0 4.458-1.983c-2.423 6.662 7.582 20.523 7.582 20.523 1.167 1.718 3.837.648 3.837.648 6.448-.978 18.313-19.519 20.251-22.603a8.264 8.264 0 0 0 2.864 1.497zm12.306 123.956c-3.784.862-24.722 5.496-32.661 4.336-8.735-1.296-25.721-2.126-25.721-2.126s-10.815.584-14.146-.939v-.648l6.169-7.388s59.671-4.478 64.156 0c1.121 1.121 1.801 3.622 2.203 6.765z" fill="#000"/><path d="M548.396 199.972s-11.244-15.553-7.006-21.645l-18.994 7.777s-11.431-1.387-15.553 15.676a29.724 29.724 0 0 0-.706 8.658c.156 2.592-.194 7.128-3.13 12.96-4.685 9.378-3.622 30.905 5.968 33.05 9.591 2.145 12.994 1.063 12.994 1.063s-1.296 38.999-6.818 43.477c-5.521 4.478 14.127 3.409 14.127 3.409s16.986.855 25.728 2.132c8.742 1.276 33.244-4.478 33.244-4.478s-3.623-16.408-4.906-26.848c-1.283-10.44-4.27-32.681-4.27-32.681l21.735-29.447s3.836-17.795-9.591-25.682c-13.427-7.886-18.476-9.817-18.476-9.817s-13.492 21.968-20.523 23.031c.013 0-2.657 1.076-3.823-.635z" fill="#6E1866"/><path opacity=".1" d="M523.46 206.148s-.207 7.037 1.07 9.805c1.276 2.767 5.968 18.145 5.968 18.145h-10.66s5.754-6.183 5.333-9.17c-.421-2.988-1.711-18.78-1.711-18.78z" fill="#000"/><path d="M555.006 259.216s-23.537-5.755-25.727-10.654c-2.191-4.899-8.237-15.871-8.237-15.871l2.482-3.344 11.444 8.982s13.609 10.868 20.038 11.937c6.428 1.069 0 8.95 0 8.95z" fill="#FBBEBE"/><path opacity=".05" d="M555.006 259.216s-23.537-5.755-25.727-10.654c-2.191-4.899-8.237-15.871-8.237-15.871l2.482-3.344 11.444 8.982s13.609 10.868 20.038 11.937c6.428 1.069 0 8.95 0 8.95z" fill="#000"/><path d="M575.354 231.512v12.766h-2.048a59.658 59.658 0 0 0-28.98 7.505l-3.85 2.132-1.03.576-6.61-14.905 6.182-5.54h.318c1.51.149 8.048.693 10.822-.24 2.631-.894 5.897-3.726 13.648-1.75 3.817.979 7.083 5.256 10.783 3.921l.765-4.465z" fill="#FBBEBE"/><path opacity=".1" d="M595.924 208.26l4.257 4.796v11.619s-3.622 36.653-15.125 40.703c-11.503 4.051-32.052-2.346-32.052-2.346s-5.307-14.062-2.825-14.904c2.482-.843 21.936-5.988 21.936-5.988s-.273-21.502 3.985-27.898c0 0-2.767-20.031 6.824-20.459 9.591-.428 13 14.477 13 14.477z" fill="#000"/><path d="M596.571 208.26l4.264 4.796v11.619s-3.623 36.653-15.132 40.703c-11.509 4.051-32.052-2.346-32.052-2.346s-5.307-14.062-2.819-14.904c2.488-.843 21.936-5.988 21.936-5.988s-.279-21.502 3.985-27.898c0 0-2.773-20.031 6.818-20.459 9.591-.428 13 14.477 13 14.477z" fill="#6E1866"/><path opacity=".1" d="M566.794 159.009a8.585 8.585 0 0 0-.486-4.154c-.603-1.296-2.009-2.274-3.383-1.944-1.821.428-2.592 2.8-4.394 3.37-1.51.48-3.156-.59-3.888-1.996-.732-1.406-.739-3.059-.739-4.64v-5.34c0-1.944-.065-4.03-1.257-5.553-1.484-1.893-4.977-2.722-7.31-2.644a6.199 6.199 0 0 0-4.173 1.678c-1.245 1.063-2.69 1.841-4.388 1.562a3.78 3.78 0 0 1-3.058-2.644v-.065a21.741 21.741 0 0 1 15.232-8.565 21.727 21.727 0 0 1 16.614 5.417 21.735 21.735 0 0 1 .465 31.999 58.77 58.77 0 0 0 .765-6.481z" fill="#000"/><path d="M536.778 138.719a3.8 3.8 0 0 1-1.914-.884 3.803 3.803 0 0 1-1.152-1.766c-.175-.687-.129-1.419-.33-2.1-.499-1.678-2.288-2.547-3.487-3.823-2.397-2.547-2.242-6.733-.544-9.799 1.374-2.469 4.031-4.536 6.817-4.069 1.724.298 3.241 1.523 4.964 1.639 1.724.117 3.241-.836 4.751-1.535a17.893 17.893 0 0 1 11.807-1.05 6.808 6.808 0 0 1 3.24 1.639 28.305 28.305 0 0 1 1.73 2.43c1.983 2.528 5.541 3.027 8.71 3.597 3.169.57 6.752 1.827 7.776 4.873.694 2.022 0 4.212-.375 6.312-.125.429-.095.887.084 1.296.499.817 1.737.473 2.67.648 1.795.383 2.255 2.696 2.326 4.536.074 2.1.13 4.202.169 6.306a8.06 8.06 0 0 1-.188 2.333 8.238 8.238 0 0 1-1.808 2.935l-7.038 8.457c-3.124 3.746-6.435 8.114-5.832 12.961-1.478.648-3.241-.616-3.72-2.164-.48-1.549-.097-3.241.233-4.802a58.855 58.855 0 0 0 1.128-8.328 8.556 8.556 0 0 0-.486-4.147c-.603-1.296-2.009-2.275-3.383-1.944-1.827.428-2.592 2.799-4.394 3.37-1.51.479-3.156-.59-3.888-1.996-.732-1.407-.739-3.053-.739-4.634v-5.346c0-1.944-.065-4.031-1.257-5.554-1.484-1.892-4.977-2.722-7.31-2.644a6.2 6.2 0 0 0-4.167 1.679c-1.25 1.069-2.696 1.853-4.393 1.574z" fill="#7C5C5C"/><path opacity=".1" d="M541.683 205.616l6.674 27.419s5.262-.033-6.674-27.419zm22.804-4.581s-8.735 14.308-5.327 29.11l1.627.116s-2.903-6.85 3.7-29.226zm5.515 80.985s10.731-3.551 11.509 4.685c.026 0-1.996-5.644-11.509-4.685zm-30.983-47.313s-2.132 14.905 1.704 20.886c0 0-7.776 3.195-18.754 2.56l-1.296-23.446h18.346z" fill="#000"/><path opacity=".1" d="M540.476 253.915l-1.03.576-6.61-14.905 6.182-5.54h.318c-.097.739-1.821 13.55 1.14 19.869z" fill="#000"/><path d="M539.02 234.072s-2.132 14.904 1.704 20.879c0 0-7.777 3.202-18.754 2.56l-7.459-23.439h24.509z" fill="#6E1866"/><path d="M520.588 482.97a4.832 4.832 0 0 1-4.141 4.225c-5.787.862-19.726 3.066-23.245 4.744-4.478 2.132-22.163.648-23.018-1.49a3.38 3.38 0 0 1 .304-2.593 6.83 6.83 0 0 1 2.858-3.071c.413-.23.847-.421 1.296-.571 3.331-1.108 9.623-3.467 11.321-5.942 0 0 7.848-6.863 10.084-10.57a5.113 5.113 0 0 1 4.095-2.553c1.867-.084 3.947.856 4.802 4.945 0 0 10.22 5.832 12.961.719 0 0 .428 7.854 2.126 10.006a2.855 2.855 0 0 1 .557 2.151z" fill="#A27772"/><path opacity=".1" d="M520.588 482.97a4.832 4.832 0 0 1-4.141 4.225c-5.787.862-19.726 3.066-23.245 4.744-4.478 2.132-22.163.648-23.018-1.491a3.373 3.373 0 0 1 .304-2.592 6.83 6.83 0 0 1 2.858-3.071c2.884 1.944 9.286 3.784 23.368 1.587 13.434-2.099 20.089-4.154 23.33-5.553a2.86 2.86 0 0 1 .544 2.151zm58.15-348.489v-.104c.304-1.594.764-3.24.648-4.84a32.175 32.175 0 0 1-.648 3.888c-.08.347-.08.709 0 1.056zm-12.437 19.947a6.16 6.16 0 0 1 .525 2.436 7.342 7.342 0 0 0-.525-3.395c-.596-1.296-2.003-2.275-3.376-1.944-1.828.427-2.593 2.799-4.401 3.369-1.503.48-3.149-.589-3.888-1.996-.739-1.406-.739-3.058-.739-4.64v-5.339c0-1.945-.064-4.031-1.257-5.554-1.49-1.899-4.977-2.722-7.31-2.651a6.206 6.206 0 0 0-4.173 1.685c-1.251 1.063-2.689 1.841-4.394 1.562a3.794 3.794 0 0 1-3.058-2.644c-.175-.687-.13-1.426-.331-2.106-.499-1.672-2.288-2.547-3.486-3.817a6.975 6.975 0 0 1-1.795-4.536 7.242 7.242 0 0 0 .334 2.916c.308.94.805 1.806 1.461 2.547 1.198 1.296 2.987 2.145 3.486 3.817.201.648.156 1.419.331 2.106a3.8 3.8 0 0 0 3.058 2.644c1.705.278 3.143-.499 4.394-1.562a6.206 6.206 0 0 1 4.173-1.685c2.333-.071 5.833.752 7.31 2.651 1.193 1.522 1.251 3.616 1.257 5.553v5.34c0 1.581 0 3.24.739 4.634.739 1.393 2.365 2.482 3.888 2.002 1.789-.57 2.593-2.942 4.401-3.37 1.373-.298 2.78.726 3.376 1.977zm17.518-5.865a8.2 8.2 0 0 1-1.815 2.929l-7.037 8.457c-2.962 3.558-6.092 7.679-5.833 12.222.214-4.167 3.117-7.958 5.833-11.263l7.037-8.457a8.19 8.19 0 0 0 1.815-2.929 8.103 8.103 0 0 0 .188-2.339 6.248 6.248 0 0 1-.188 1.38zm-18.354 22.182a5.02 5.02 0 0 1-.214-1.14 5.747 5.747 0 0 0 .214 2.099c.48 1.543 2.236 2.819 3.72 2.158a9.098 9.098 0 0 1-.078-.933c-1.477.59-3.188-.667-3.642-2.184zm-70.836 298.908s2.229 3.888 10.304.467l-10.304-.467zm68.244.946s6.96 8.198 15.734 2.689l-15.734-2.689zm20.258-96.94s-4.918 3.072-5.074 4.828c-.155 1.756 2.541-1.296 2.541-1.296l2.533-3.532zm1.945 23.563a10.286 10.286 0 0 1-6.06 2.365c-3.68.162-3.369 4.958-.965 3.519 2.404-1.439 7.025-5.884 7.025-5.884zm.932 3.078s-2.359 11.593-4.278 9.358l4.278-9.358z" fill="#000"/><path d="M130.295 487.189s14.807 4.063 21.936-1.342c7.128-5.404 10.219-3.667 10.219-3.667s16.998-.94 18.398-4.958c1.4-4.018-6.519-18.612-6.519-18.612-.564-1.296-1.387-2.942-1.756-2.942l.077-6.156 2.463-25.76c5.683-14.574.104-33.406.104-33.406l-1.018-4.672a11.824 11.824 0 0 1 .966-7.777l10.323-20.737a31.074 31.074 0 0 1 1.944-3.979c.648-1.186 1.51-2.65 2.592-4.407.318-.505.648-1.03 1.011-1.581 1.251-1.944 2.767-4.147 4.601-6.688 4.569-6.331 6.973-14.256 8.218-20.089l.55 1.828h.123l.15.032h.246l.265.046h.098l3.175 40.411c.194 15.76 5.981 24.483 5.981 24.483l-.797 34.793c1.089 8.379-1.296 19.552-2.391 24.01l-2.501 5.644a6.793 6.793 0 0 0-3.688 5.133c-.492 4.167-4.879 13.149-4.879 13.149-1.698 2.151-5.386 7.964-5.386 7.964s-1.736 5.612-.661 7.712c1.076 2.099 10.071 1.885 10.071 1.885 10.271 2.275 18.145-3.24 17.646-7.037-.499-3.798 1.601-4.763 1.601-4.763 4.082-1.296 3.687-4.064 3.687-4.064a25.426 25.426 0 0 0-3.091-16.55l-.648 1.497a22.796 22.796 0 0 1 1.231-8.833l-.376.259-.116.071h-.039c.648-5.683 6.616-16.201 6.616-16.201 10.965-19.233 6.98-45.298 6.98-45.298l-1.698-8.126-.098-3.065a102.301 102.301 0 0 1 1.653-21.839 155.93 155.93 0 0 0 1.665-11.282c.985-8.969 4.161-18.223 5.625-22.144l.435-.078h.051a96.418 96.418 0 0 0 1.808-.324h.117s.35-1.892.648-5.113c.175-2.054.318-4.659.318-7.653a86.106 86.106 0 0 0-4.089-26.641l.33-.473s.784-1.063 2.216-2.903a332.642 332.642 0 0 1 11.775-14.153c9.04-10.311 6.383-20.738 6.383-20.738s-6.545-23.983-9.461-38.383c-1.665-8.204-4.789-13.784-7.18-17.076.539-2.269.843-4.589.907-6.921.194-4.264.045-8.709-1.873-12.539s-6.001-6.856-10.265-6.344a3.946 3.946 0 0 1-1.84 0 2.805 2.805 0 0 1-1.212-1.057c-2.495-3.441-2.657-8.068-1.879-12.241.777-4.174 2.372-8.165 3.084-12.352.713-4.186.389-8.833-2.274-12.151-3.13-3.888-8.587-4.983-12.656-7.906-2.858-2.054-5.003-5.002-8.017-6.823-3.013-1.821-5.832-1.128-9.105-.441-5.501 1.16-10.731 1.691-15.935 4.057a42.435 42.435 0 0 0-13.887 10.103 13.176 13.176 0 0 0-3.098 4.886c-1.296 4.283 1.238 8.845.706 13.278-.375 3.143-2.229 5.878-3.7 8.684-1.471 2.806-2.592 6.137-1.439 9.072 1.815 4.588 7.732 5.56 12.035 8.004a3.678 3.678 0 0 1 1.425 1.237c1.063 1.854-1.108 3.778-2.475 5.424a8.163 8.163 0 0 0-1.62 3.292 11.732 11.732 0 0 0-4.584 3.372 11.76 11.76 0 0 0-2.461 5.131c-1.458 6.525.785 14.762 2.761 20.205-2.158 12.125.648 16.908 2.715 18.742a10.396 10.396 0 0 1 3.603 7.089v.227c.137 2.203.37 4.4.681 6.591-.071-.512-.143-1.057-.182-1.296-1.691 3.13-4.912 11.126-6.726 24.58a73.882 73.882 0 0 1-1.64 8.56 46.828 46.828 0 0 0-1.374 15.307l.324 4.361a1.377 1.377 0 0 1-.881-.291l2.275 4.167v7.031a25.929 25.929 0 0 1-1.724 9.273c-.162.428-.337.856-.525 1.296a7.555 7.555 0 0 0-.765 3.817c-4.892 7.498-16.11 49.517-16.11 49.517-6.085 13.777.499 22.681.499 22.681s3.188 38.357 3.785 40.34c.596 1.983 1.918 25.365 1.918 25.365v1.86a4.324 4.324 0 0 0-1.108-.318c-5.334-.298-6.779 8.126-6.779 8.126l-10.913 10.421s-4.983-.843-12.312 4.659c-7.33 5.502 4.737 10.518 4.737 10.518zm108.967-221.687l-.032-.117-.298.175-.123.071-.059.039-5.028-17.75a29.458 29.458 0 0 1-.37-14.6l3.888-17.03v-4.096l12.359 32.933c.79 4.439-6.552 15.19-10.337 20.375z" fill="url(#paint3_linear)"/><path d="M244.687 319.075s-4.99 12.138-6.26 23.783a153.444 153.444 0 0 1-1.64 11.146 101.901 101.901 0 0 0-1.594 21.56l.097 3.027 1.62 8.016s3.889 25.746-6.849 44.714c0 0-6.364 11.361-6.559 16.739l-4.309 1.666-8.71-2.443s4.206-15.08 2.839-25.65l.784-34.346s-5.657-8.593-5.852-24.146l-3.324-42.679 39.757-1.387zm-39.757-6.079s-1.069 16.642-9.299 28.112c-8.23 11.47-9.98 16.447-9.98 16.447l-10.135 20.491a11.734 11.734 0 0 0-.953 7.667l.998 4.614s5.482 18.598-.097 32.991l-2.644 27.801h-15.462s-1.297-23.103-1.86-25.06c-.564-1.957-3.72-39.841-3.72-39.841s-6.48-8.813-.493-22.416c0 0 13.512-50.903 17.128-50.022 3.616.882 36.517-.784 36.517-.784z" fill="#FDC2CC"/><path opacity=".1" d="M173.992 390.359l-.991-4.614a11.662 11.662 0 0 1 .946-7.699l10.135-20.51s1.756-4.99 9.98-16.447c7.9-11.017 9.202-26.803 9.293-28.015l1.575-.078s-1.07 16.642-9.3 28.112c-8.23 11.47-9.98 16.447-9.98 16.447l-10.135 20.491a11.74 11.74 0 0 0-.953 7.667l.998 4.614s5.483 18.598-.097 32.991l-2.644 27.801h-1.568l2.644-27.801c5.58-14.393.097-32.959.097-32.959zm47.968 57.721c.194-5.379 6.558-16.739 6.558-16.739 10.77-18.988 6.849-44.715 6.849-44.715l-1.659-8.022-.097-3.027c-.235-7.223.3-14.45 1.594-21.56a157.17 157.17 0 0 0 1.633-11.146c1.225-11.211 5.898-22.876 6.241-23.731l1.607-.065s-4.99 12.138-6.26 23.783a153.49 153.49 0 0 1-1.639 11.146 101.902 101.902 0 0 0-1.595 21.56l.098 3.027 1.62 8.016s3.888 25.746-6.85 44.714c0 0-6.364 11.361-6.558 16.739l-4.31 1.666-.907-.253 3.675-1.393z" fill="#000"/><path d="M216.97 447.885a7.493 7.493 0 0 0 7.129-.881 23.003 23.003 0 0 0-.583 12.922c1.762 7.05-16.448-5.677-16.448-5.677l3.889-8.885s1.51 2.813 6.013 2.521z" fill="#D39999"/><path opacity=".1" d="M218.325 448.281a7.286 7.286 0 0 0 5.786-1.296 23.008 23.008 0 0 0-.583 12.921c1.763 7.051-16.447-5.676-16.447-5.676l3.888-8.885s1.128 2.164 4.439 2.501c1.005.117 1.964.253 2.917.435z" fill="#000"/><path d="M175.657 283.199h7.608v-43.165l-5.709-1.024-1.899 44.189z" fill="#FDC2CC"/><path opacity=".05" d="M175.657 283.199h7.608v-43.165l-5.709-1.024-1.899 44.189z" fill="#000"/><path d="M212.661 451.216s4.795-.298 6.947 4.012l2.644 2.054 1.296-3.033a25.273 25.273 0 0 1 2.994 16.35s.389 2.735-3.623 4.011c0 0-2.054.979-1.568 4.699.486 3.719-7.239 9.202-17.322 6.947 0 0-8.813.201-9.889-1.86-1.076-2.061.687-7.537.687-7.537s3.622-5.741 5.281-7.861c0 0 4.31-8.878 4.802-12.96.493-4.083 5.204-7.077 7.751-4.822z" fill="#7E5659"/><path d="M172.968 454.839l.078-6.085s-8.755 2.521-15.844-.331c0 0 .596 6.118-.389 6.954-.985.836 3.279 8.709 3.279 8.709l4.763 4.99 8.191-2.981 2.223-6.999s-1.717-4.257-2.301-4.257z" fill="#D39999"/><path opacity=".1" d="M172.968 454.839l.078-6.085s-8.755 2.521-15.844-.331c0 0 .596 6.118-.389 6.954-.985.836 3.279 8.709 3.279 8.709l4.763 4.99 8.191-2.981 2.223-6.999s-1.717-4.257-2.301-4.257z" fill="#000"/><path d="M156.273 452.635s4.653.538 4.064 6.481c-.59 5.942.246 0 .246 0s4.944 2.002 6.707 4.795 4.945-2.495 5.184-4.011c.24-1.516 2.223-2.145 2.223-2.145s7.777 14.419 6.403 18.385c-1.374 3.966-18.068 4.88-18.068 4.88s-3.039-1.711-10.038 3.622c-6.998 5.333-21.534 1.296-21.534 1.296s-11.846-4.944-4.646-10.368c7.199-5.425 12.086-4.602 12.086-4.602l10.718-10.329s1.419-8.302 6.655-8.004z" fill="#7E5659"/><path d="M211.844 111.761c2.961 1.795 5.068 4.711 7.874 6.74 3.991 2.883 9.351 3.959 12.422 7.808 2.593 3.279 2.93 7.861 2.23 11.996-.7 4.134-2.268 8.081-3.027 12.202-.758 4.122-.602 8.69 1.847 12.086.285.457.697.82 1.186 1.043a3.89 3.89 0 0 0 1.808 0c4.187-.505 8.204 2.489 10.084 6.267 1.879 3.778 2.028 8.172 1.834 12.384-.162 3.454-.551 6.979-2.068 10.09-2.592 5.288-7.983 8.554-13.304 11.055a103.02 103.02 0 0 1-10.621 4.29c-2.489.843-5.113 1.601-7.699 1.16-4.426-.764-7.563-4.789-11.762-6.363-3.441-1.296-7.258-.83-10.919-.506-3.124.272-6.694.266-8.846-2.015-2.761-2.929-1.516-7.654-.104-11.425a8.126 8.126 0 0 1-6.949-4.887 8.126 8.126 0 0 1 1.195-8.411c1.335-1.626 3.467-3.525 2.423-5.359a3.541 3.541 0 0 0-1.399-1.218c-4.219-2.411-10.032-3.377-11.808-7.9-1.14-2.91-.038-6.202 1.407-8.969 1.445-2.767 3.24-5.476 3.635-8.573.519-4.381-1.944-8.885-.693-13.11a13.144 13.144 0 0 1 3.039-4.835 41.734 41.734 0 0 1 13.609-9.973c5.113-2.339 10.239-2.864 15.643-4.005 3.241-.687 5.924-1.412 8.963.428z" fill="#865A61"/><path d="M183.258 176.999s-12.397-.648-14.743 9.921c-2.345 10.57 5.088 25.708 5.088 25.708l9.655-35.629z" fill="#FDC2CC"/><path opacity=".05" d="M183.258 176.999s-12.397-.648-14.743 9.921c-2.345 10.57 5.088 25.708 5.088 25.708l9.655-35.629z" fill="#000"/><path d="M175.347 208.455l4.698 3.719 21.923.979 13.687-9.397 13.92-23.886c-8.509-2.171-11.95-8.049-13.233-13.544a29.652 29.652 0 0 1-.273-11.315s-22.318-11.555-19.577 6.48c.376 2.214.446 4.469.208 6.701-1.297 10.563-11.549 8.574-11.549 8.574l-3.933 6.065-4.504 14.905-1.367 10.719z" fill="#FDC2CC"/><path opacity=".1" d="M196.511 161.465c.376 2.214.445 4.469.207 6.701a19.78 19.78 0 0 0 19.642-1.84 29.652 29.652 0 0 1-.272-11.315s-22.319-11.555-19.577 6.454z" fill="#000"/><path d="M204.943 169.171c10.919 0 19.771-8.852 19.771-19.772 0-10.92-8.852-19.772-19.771-19.772-10.92 0-19.772 8.852-19.772 19.772 0 10.92 8.852 19.772 19.772 19.772z" fill="#FDC2CC"/><path d="M190.958 204.683c.48 0 .953.071 1.426.117 2.592.259 13.421.842 19.59-6.526 6.902-8.243 16.091-18.424 16.467-18.838l9.351 2.825s-7.401-2.631-12.313 11.133a14.258 14.258 0 0 0 4.815 16.402 14.805 14.805 0 0 0 6.118 2.592.047.047 0 0 1 .004.016.047.047 0 0 1-.004.017v6.039l-3.824 16.849a29.217 29.217 0 0 0 .363 14.419l5.832 20.614c-.881.609-37.067 25.222-61.239 8.224.091-.739 3.078-24.93 1.004-36.77a81.748 81.748 0 0 1-1.082-9.15v-.227a10.318 10.318 0 0 0-3.545-6.999c-2.177-1.944-5.126-7.128-2.21-20.828a50.327 50.327 0 0 1 3.241-9.869l8.107-18.32 7.471.149v.052c-.648.803-9.312 11.625-10.251 18.598-.921 6.63-2.055 8.665 10.679 9.481z" fill="#6E1866"/><path d="M244.084 185.482s7.31 6.266 10.181 20.491c2.87 14.224 9.267 37.852 9.267 37.852s2.592 10.31-6.267 20.491c-8.859 10.18-14.749 18.145-14.749 18.145l-5.833 8.593a7.319 7.319 0 0 1-4.199 2.968c-2.657.7-6.74 1.205-10.278-.733a5.985 5.985 0 0 1-2.592-7.562l1.296-3.001s-12.008 7.569-13.051 3.39c-1.044-4.18 13.965-8.354 13.965-8.354s12.397-2.086 14.905-7.958c0 0 13.31-17.101 12.267-22.973l-12.857-34.456s-16.078-2.125-10.595-20.186c5.482-18.061 18.54-6.707 18.54-6.707z" fill="#FDC2CC"/><path d="M167.207 315.478s29.369 5.871 36.29 5.087l.745 2.482s11.147 2.495 36.349-1.503c1.646-.259 3.354-.551 5.126-.875l.59-.104s.343-1.866.615-5.048c.603-7.226.817-21.217-4.27-35.538l-4.239-13.052s-26.193 15.702-43.535 14.257c-1.549-.13-3.084-.253-4.633-.305-3.558-.136-9.073 0-12.656-2.87l-7.518 1.296v21.385a25.603 25.603 0 0 1-1.698 9.15c-.162.428-.33.849-.518 1.296a6.8 6.8 0 0 0-.648 4.342z" fill="#65617D"/><path opacity=".1" d="M204.235 316.392v6.655s12.832 2.871 42.065-2.482c0 0 .343-1.866.615-5.048-8.969 1.439-33.704 4.899-42.68.875z" fill="#000"/><path opacity=".1" d="M167.206 315.478s29.37 5.871 36.291 5.087l.745 2.482v-6.655c-3.344 1.387-27.218-4.368-35.869-6.526-.162.428-.331.849-.519 1.296a6.81 6.81 0 0 0-.648 4.316z" fill="#000"/><path d="M238.407 308.058l2.178 13.505c1.646-.259 3.354-.551 5.126-.875-.681-3.946-2.165-12.96-1.757-14.457l-2.741-2.346-2.806 4.173z" fill="#65617D"/><path opacity=".1" d="M238.712 307.767l2.177 13.511a256.32 256.32 0 0 0 5.126-.875c-.68-3.946-2.164-12.961-1.756-14.457l-2.741-2.353-2.806 4.174z" fill="#000"/><path opacity=".05" d="M193.304 281.178c-1.543-.13-3.085-.253-4.634-.305-3.46-.13-8.742 0-12.345-2.651l1.257-.22c3.603 2.858 9.073 2.735 12.657 2.871 1.548.052 3.084.175 4.633.305.506.045 1.024.071 1.549.084-1.04.027-2.08-.001-3.117-.084zm45.713 40.366c1.646-.259 3.354-.549 5.126-.869l.596-.11s.343-1.866.609-5.048c.609-7.226.823-21.217-4.271-35.538l-3.992-12.313c.849-.48 1.297-.758 1.297-.758l4.238 13.051c5.087 14.322 4.873 28.313 4.27 35.539-.272 3.182-.615 5.048-.615 5.048l-.59.11c-1.767.32-3.476.609-5.126.868-11.775 1.867-20.472 2.32-26.408 2.269a166.73 166.73 0 0 0 24.866-2.249zm-37.101-.979v.072h-.843c.32-.022.601-.046.843-.072z" fill="#000"/><path d="M242.055 310.579c.612 0 1.109-1.021 1.109-2.281 0-1.26-.497-2.281-1.109-2.281s-1.108 1.021-1.108 2.281c0 1.26.496 2.281 1.108 2.281z" fill="#D39999"/><path d="M171.328 262.106c1.789-13.285 4.945-21.178 6.61-24.269.065.421.234 1.788.311 2.21.337 1.944.039 4.393.143 6.862l-1.659 30.043 2.223 9.397c2.086 7.439-5.645 1.562-5.645 1.562-1.6 3.525-4.536 3.136-4.536 3.136l-.402-5.392a46.584 46.584 0 0 1 1.348-15.118 71.853 71.853 0 0 0 1.607-8.431z" fill="#FDC2CC"/><path opacity=".05" d="M171.328 262.106c1.789-13.285 4.945-21.178 6.61-24.269.065.421.234 1.788.311 2.21.337 1.944.039 4.393.143 6.862l-1.659 30.043 2.223 9.397c2.086 7.439-5.645 1.562-5.645 1.562-1.6 3.525-4.536 3.136-4.536 3.136l-.402-5.392a46.584 46.584 0 0 1 1.348-15.118 71.853 71.853 0 0 0 1.607-8.431z" fill="#000"/><path d="M245.712 278.313a184.305 184.305 0 0 0-2.178 2.865l-5.832 8.586a7.283 7.283 0 0 1-4.199 2.968c-2.657.7-6.74 1.212-10.278-.732a5.976 5.976 0 0 1-2.592-7.556l1.296-3.007s-12.008 7.569-13.052 3.395c-1.043-4.173 13.965-8.353 13.965-8.353s12.397-2.086 14.905-7.964c0 0 1.083-1.387 2.592-3.512" fill="#FDC2CC"/><path d="M238.407 292.706s-14.198-1.38-18.696-9.5l-2.061 6.707s14.905 10.291 18.307 8.956l2.45-6.163z" fill="#65617D"/><path opacity=".1" d="M237.901 292.641s-14.192-1.38-18.696-9.506l-2.055 6.687s14.905 10.291 18.301 8.956l2.45-6.137z" fill="#000"/><path d="M173.778 288.915s-4.97 1.763-5.949.784l2.236 4.115 4.225-3.24-.512-1.659z" fill="#65617D"/><path opacity=".1" d="M173.778 288.915s-4.97 1.763-5.949.784l2.236 4.115 4.225-3.24-.512-1.659zm30.46 27.477v-8.587l-2.042 8.794 2.042-.207zm20.132-177.433c-1.199 1.685-3.279 2.54-5.327 2.806s-4.122.039-6.189 0c-3.24-.052-6.688.447-9.338 2.353-1.692 1.211-2.962 2.916-4.284 4.536-4.005 4.892-9.565 9.474-15.877 8.962a4.114 4.114 0 0 1-2.948-1.244 4.728 4.728 0 0 1-.752-2.683 61.41 61.41 0 0 1 .382-12.092 25.477 25.477 0 0 1 1.828-7.213 24.635 24.635 0 0 1 4.393-6.273 26.89 26.89 0 0 1 7.667-6.143c2.941-1.561 6.349-2 9.591-1.238 3.778 1.03 6.72 3.985 10.323 5.508 4.115 1.73 15.041 6.351 10.531 12.721z" fill="#000"/><path d="M224.37 138.175c-1.199 1.685-3.279 2.54-5.327 2.806s-4.122.039-6.189 0c-3.24-.058-6.688.441-9.338 2.346-1.692 1.212-2.962 2.916-4.284 4.536-4.005 4.893-9.565 9.474-15.877 8.963a4.096 4.096 0 0 1-2.948-1.245 4.703 4.703 0 0 1-.752-2.683 61.41 61.41 0 0 1 .382-12.092 25.477 25.477 0 0 1 1.828-7.213 24.447 24.447 0 0 1 4.393-6.266 26.792 26.792 0 0 1 7.667-6.15c2.941-1.56 6.349-2 9.591-1.238 3.778 1.031 6.72 3.986 10.323 5.509 4.115 1.736 15.041 6.344 10.531 12.727z" fill="#865A61"/><path d="M177.589 277.996l-.052 2.365-.531-2.262.583-.103z" fill="#FDC2CC"/><path opacity=".05" d="M177.589 277.996l-.052 2.365-.531-2.262.583-.103zm49.976-87.045c-5.489 18.061 10.511 20.18 10.511 20.18l12.858 34.456c1.043 5.872-12.274 22.973-12.274 22.973-.927 2.191-3.24 3.856-5.768 5.087a9.036 9.036 0 0 0 3.422-3.758s13.311-17.096 12.267-22.967l-12.857-34.462s-15.993-2.12-10.511-20.18c1.834-6.034 4.536-8.781 7.271-9.766-1.886 1.516-3.616 4.141-4.919 8.437z" fill="#000"/><g opacity=".1" fill="#000"><path opacity=".1" d="M227.839 207.36a13.533 13.533 0 0 0 2.592 2.456 14.74 14.74 0 0 0 6.118 2.592v.68c-2-.423-3.89-1.26-5.548-2.456a13.446 13.446 0 0 1-3.162-3.272zm-49.717 25.837v.227a83.578 83.578 0 0 0 1.115 9.182c1.944 11.173-.603 33.355-.966 36.42-.207-.136-.415-.266-.648-.415.097-.738 3.085-24.93 1.011-36.763a81.982 81.982 0 0 1-1.082-9.15v-.227a10.006 10.006 0 0 0-1.743-4.957 10.077 10.077 0 0 1 2.313 5.683zm11.929-55.913l-6.338-.123a.03.03 0 0 0-.016-.004.032.032 0 0 0-.016.004l-8.1 18.314a50.46 50.46 0 0 0-3.241 9.869c-2.359 11.082-.875 16.603.927 19.331-2.028-2.391-4.121-7.841-1.51-20.089a49.876 49.876 0 0 1 3.208-9.876l8.159-18.314 7.472.149v.046c-.059.077-.26.324-.545.693zm47.761 4.971l.11.032-.11-.032z"/><path opacity=".1" d="M235.486 182.151l-6.351-1.912h-.032c-.376.415-9.559 10.596-16.46 18.839-6.169 7.368-16.985 6.791-19.59 6.532a34.274 34.274 0 0 0-1.426-.123c-7.083-.454-9.87-1.296-10.803-3.085 1.329 1.296 4.251 1.944 10.213 2.307.48 0 .953.071 1.426.117 2.592.259 13.421.836 19.59-6.526 6.902-8.25 16.091-18.43 16.467-18.845l9.241 2.8a5.756 5.756 0 0 0-2.275-.104z"/></g><path opacity=".1" d="M160.292 462.051s-8.943 2.444-10.673-1.393l10.673 1.393zm56.775-1.834s-10.368 2.677-12.766-1.464l12.766 1.464z" fill="#000"/><path d="M366.584 454.418a62.16 62.16 0 0 1 .596-3.889c1.024-5.599-.538-10.939-1.296-13.142-.24-.68-.415-1.063-.415-1.063-4.128-1.127-20.4 11.497-26.329 16.253-2.055 0-4.284.091-6.721.253a34.614 34.614 0 0 1-3.188.084h-3.888c-5.502-4.432-22.532-17.763-26.771-16.609 0 0-.175.382-.414 1.063-.791 2.203-2.353 7.543-1.329 13.142.234 1.296.447 2.592.596 3.888.318 2.845 1.51 8.308 5.833 11.995.926 6.74 4.393 15.599 7.063 20.977.2 1.016.504 2.009.908 2.962-1.102 4.251-2.372 9.798-2.009 11.665 0 0-5.755-1.394-6.338 5.534v.214c-2.08.952-4.679 3.136-1.756 7.711.352.564.88.995 1.503 1.225.519.182 1.024.182.972-.544l3.597 4.05s6.519.752 6.597-3.033l.382.059a63.61 63.61 0 0 0 2.728.336l.454 1.497s-4.893-.103-3.558 2.91c0 0 1.232 1.141 1.653.726 0 0-.648 1.976 1.905 1.976 0 0 2.741 1.452 3.811.415 1.069-1.037 3.285-2.592 3.492-3.24.059-.175.085-1.711.098-3.836h.421c5.463.129 11.263-.046 16.538-.331h.428c0 2.301.032 3.999.09 4.18.214.648 2.437 2.184 3.5 3.24 1.062 1.056 3.804-.415 3.804-.415 2.54 0 1.905-1.976 1.905-1.976.428.415 1.659-.726 1.659-.726 1.335-3.013-3.564-2.91-3.564-2.91l.583-1.944 2.702-.227.428-.038c-.259 4.115 6.59 3.324 6.59 3.324l3.604-4.05c-.059.726.447.726.965.544a2.973 2.973 0 0 0 1.458-1.238c4.413-6.901-3.739-8.366-3.739-8.366a4.022 4.022 0 0 0-.771-.123c0-.117 0-.24.032-.356.105-.908.123-1.824.052-2.735-.304-1.251-2.313-3.24-4.854-3.532-1.659-.207-1.691-7.828-1.523-13.11.187-.991.274-1.998.26-3.007a15.874 15.874 0 0 0-.648-4.814c3.24-5.496 5.832-11.257 6.124-12.961 4.27-3.72 5.463-9.164 5.78-12.008z" fill="url(#paint4_linear)"/><path d="M360.31 506.941c-.259 3.59-.953 9.351-.953 9.351s-2.883.35-7.342.752l-3.026.259c-2.32.188-4.925.37-7.679.525-5.087.279-10.674.454-15.942.324-2.631-.058-5.184-.194-7.55-.428a63.253 63.253 0 0 1-3.052-.369c-6.04-.901-10.369-2.624-10.738-5.651a17.5 17.5 0 0 1-.136-3.888c.564-6.804 6.104-5.431 6.104-5.431-.356-1.879.985-7.718 2.074-11.943a134.955 134.955 0 0 1 1.296-4.685l38.96-2.592h.13a1.908 1.908 0 0 1 1.383.592 1.91 1.91 0 0 1 .522 1.41c-.233 4.672-.564 15.371 1.348 15.611 2.45.305 4.387 2.242 4.685 3.467.056.9.028 1.802-.084 2.696zm-33.089-51.286s-14.691 17.685-21.768 12.786c-.168-.117-.33-.233-.486-.356-4.756-3.603-6.007-9.41-6.338-12.358-.142-1.296-.35-2.547-.576-3.811-.979-5.502.518-10.738 1.296-12.902.233-.648.395-1.044.395-1.044 4.893-1.361 27.477 17.685 27.477 17.685z" fill="#6E1866"/><path d="M319.328 457.288s-4.627 3.24-11.153 8.567a23.634 23.634 0 0 1-3.24 2.23c-4.757-3.603-6.007-9.41-6.338-12.358-.142-1.297-.35-2.547-.577-3.811-.978-5.502.519-10.738 1.297-12.902 9.15.635 20.011 18.274 20.011 18.274z" fill="#6E1866"/><path opacity=".5" d="M319.328 457.288s-4.627 3.24-11.153 8.567a23.634 23.634 0 0 1-3.24 2.23c-4.757-3.603-6.007-9.41-6.338-12.358-.142-1.297-.35-2.547-.577-3.811-.978-5.502.519-10.738 1.297-12.902 9.15.635 20.011 18.274 20.011 18.274z" fill="#fff"/><path opacity=".1" d="M314.291 455.545s-2.469 1.743-5.955 4.575c-.537.442-1.109.839-1.711 1.186-2.534-1.944-3.24-5.022-3.383-6.59a27.166 27.166 0 0 0-.304-2.042 14.163 14.163 0 0 1 .719-6.882c4.841.337 10.634 9.753 10.634 9.753z" fill="#000"/><path d="M336.74 455.655s14.691 17.685 21.768 12.786c.162-.117.33-.233.486-.356 4.756-3.603 6.007-9.41 6.338-12.358.142-1.296.35-2.547.57-3.811.985-5.502-.518-10.738-1.296-12.902-.233-.648-.402-1.044-.402-1.044-4.88-1.361-27.464 17.685-27.464 17.685z" fill="#6E1866"/><path d="M344.627 457.288s4.633 3.24 11.159 8.567a23.557 23.557 0 0 0 3.208 2.23c4.757-3.603 6.007-9.41 6.338-12.358.142-1.297.35-2.547.57-3.811.985-5.502-.518-10.738-1.296-12.902-9.105.635-19.979 18.274-19.979 18.274z" fill="#6E1866"/><path opacity=".5" d="M344.627 457.288s4.633 3.24 11.159 8.567a23.557 23.557 0 0 0 3.208 2.23c4.757-3.603 6.007-9.41 6.338-12.358.142-1.297.35-2.547.57-3.811.985-5.502-.518-10.738-1.296-12.902-9.105.635-19.979 18.274-19.979 18.274z" fill="#fff"/><path opacity=".1" d="M349.701 455.532s2.456 1.737 5.917 4.536a11.81 11.81 0 0 0 1.704 1.18c2.521-1.912 3.188-4.99 3.363-6.552a30.11 30.11 0 0 1 .305-2.028 14.19 14.19 0 0 0-.68-6.843c-4.848.349-10.609 9.707-10.609 9.707zm2.598 27.645c-1.853 2.93-3.823 5.574-5.625 7.168-5.832 5.184-31.015 3.123-32.648 2.858-.343-.059-1.056-1.076-1.944-2.729a134.955 134.955 0 0 1 1.296-4.685l38.921-2.612z" fill="#000"/><path d="M332.367 454.171a35.08 35.08 0 0 1-3.078.078c-5.256-.091-22.96.143-24.924 7.29-2.313 8.425 8.029 30.983 9.656 31.255 1.626.272 26.803 2.314 32.654-2.858 5.852-5.171 13.467-21.385 13.058-22.856 0 0 7.258-15.307-27.366-12.909z" fill="#6E1866"/><path opacity=".1" d="M331.809 467.832s-12.961-1.996-19.039 10.757a15.555 15.555 0 0 0 1.147 15.676c2.022 2.845 4.99 4.964 9.118 3.241 9.176-3.778 8.774-29.674 8.774-29.674z" fill="#000"/><path opacity=".1" d="M331.4 467.015s-12.961-1.996-19.039 10.758a15.553 15.553 0 0 0 1.147 15.676c2.021 2.845 4.989 4.964 9.117 3.24 9.177-3.778 8.775-29.674 8.775-29.674z" fill="#000"/><path d="M331.4 467.424s-12.961-1.996-19.039 10.757a15.542 15.542 0 0 0 1.147 15.676c2.021 2.845 4.989 4.964 9.117 3.24 9.177-3.778 8.775-29.673 8.775-29.673z" fill="#6E1866"/><path opacity=".5" d="M331.4 467.424s-12.961-1.996-19.039 10.757a15.542 15.542 0 0 0 1.147 15.676c2.021 2.845 4.989 4.964 9.117 3.24 9.177-3.778 8.775-29.673 8.775-29.673z" fill="#fff"/><path d="M317.423 478.576s-1.769 1.633-1.089 2.042c.681.408 1.089-2.042 1.089-2.042zm1.905 2.087s-.965 2.132-.279 2.365c.687.234 1.096-1.529 1.096-1.529l-.817-.836zm-4.271 3.221s-.946 2.514 0 2.514 0-2.514 0-2.514z" fill="#3F2B3B"/><path d="M313.885 490.617s1.892 4.834 6.817 4.491m-2.391-3.065s1.944 1.905 4.076.544" stroke="#3F2B3B" stroke-miterlimit="10"/><path opacity=".1" d="M333.469 467.832s12.961-1.996 19.039 10.757a15.555 15.555 0 0 1-1.147 15.676c-2.015 2.845-4.99 4.964-9.118 3.241-9.202-3.778-8.774-29.674-8.774-29.674z" fill="#000"/><path opacity=".1" d="M333.85 467.015s12.961-1.996 19.039 10.758a15.559 15.559 0 0 1-1.147 15.676c-2.015 2.845-4.99 4.964-9.118 3.24-9.156-3.778-8.774-29.674-8.774-29.674z" fill="#000"/><path d="M333.85 467.424s12.961-1.996 19.039 10.757a15.555 15.555 0 0 1-1.147 15.676c-2.015 2.845-4.99 4.964-9.118 3.24-9.156-3.778-8.774-29.673-8.774-29.673z" fill="#6E1866"/><path opacity=".5" d="M333.85 467.424s12.961-1.996 19.039 10.757a15.555 15.555 0 0 1-1.147 15.676c-2.015 2.845-4.99 4.964-9.118 3.24-9.156-3.778-8.774-29.673-8.774-29.673z" fill="#fff"/><path d="M347.829 478.576s1.769 1.633 1.089 2.042c-.681.408-1.089-2.042-1.089-2.042zm-1.906 2.087s.966 2.132.279 2.365c-.687.234-1.096-1.529-1.096-1.529l.817-.836zm4.278 3.221s.939 2.514 0 2.514c-.94 0 0-2.514 0-2.514z" fill="#3F2B3B"/><path d="M351.366 490.617s-1.892 4.834-6.817 4.491m2.398-3.065s-1.944 1.905-4.083.544" stroke="#3F2B3B" stroke-miterlimit="10"/><path d="M326.47 504.355c.343-.064 6.804-2.857 13.466 0H326.47z" fill="#3F2B3B"/><path opacity=".1" d="M314.766 517.374c-6.04-.9-10.369-2.624-10.738-5.65a17.51 17.51 0 0 1-.136-3.889 8.701 8.701 0 0 1 2.307-.842c1.095-.305 2.449-.097 5.307.719 2.858.817 2.651 4.18 3.241 8.567.061.362.068.731.019 1.095z" fill="#000"/><path d="M305.791 507.414s-7.855 1.439-3.603 8.217c.336.55.847.972 1.451 1.199.499.175.979.175.927-.538l3.473 3.979s6.934.817 6.325-3.571c-.609-4.387-.408-7.776-3.24-8.567-2.832-.79-4.225-1.024-5.333-.719z" fill="#6E1866"/><path d="M307.662 511.976s1.666 3.804 3.979.61m-7.802.9s.862 3.603 4.128.921" stroke="#3F2B3B" stroke-miterlimit="10"/><path opacity=".1" d="M360.309 506.941c-.259 3.59-.953 9.351-.953 9.351s-2.884.35-7.342.752a3.78 3.78 0 0 1 0-.752c.609-4.387.408-7.776 3.24-8.567 2.657-.719 4.011-.985 5.055-.784z" fill="#000"/><path d="M361.022 507.414s7.86 1.439 3.609 8.217a2.92 2.92 0 0 1-1.451 1.199c-.499.175-.985.175-.933-.538l-3.467 3.979s-6.941.817-6.325-3.571c.615-4.387.408-7.776 3.24-8.567 2.832-.79 4.238-1.024 5.327-.719z" fill="#6E1866"/><path d="M359.157 511.976s-1.672 3.804-3.979.61m7.801.9s-.868 3.603-4.134.921" stroke="#3F2B3B" stroke-miterlimit="10"/><path opacity=".1" d="M325.368 518.152c-2.631-.058-5.185-.194-7.55-.428l-2.352-7.919a5.122 5.122 0 0 1-.214-1.445 5.04 5.04 0 0 1 10.077-.032c.026 3.084.052 6.992.039 9.824z" fill="#000"/><path d="M315.057 509.805l2.774 9.345s-4.718-.104-3.428 2.858c0 0 1.186 1.121 1.594.713 0 0-.616 1.944 1.834 1.944 0 0 2.644 1.432 3.668.408s3.169-2.553 3.376-3.162c.13-.402.091-8.217.046-13.609a5.03 5.03 0 0 0-5.036-4.99 5.053 5.053 0 0 0-2.266.534 5.035 5.035 0 0 0-2.562 5.959z" fill="#6E1866"/><path d="M318.803 521.567s-2.061 1.944-.972 3.091m.084-4.328s-1.905.648-1.905 2.391" stroke="#3F2B3B" stroke-miterlimit="10"/><path opacity=".1" d="M351.424 508.36c0 .489-.069.976-.207 1.445l-2.197 7.498c-2.32.188-4.925.37-7.679.525 0-2.799 0-6.526.045-9.5a5.034 5.034 0 1 1 10.071.032h-.033z" fill="#000"/><path d="M351.613 509.805l-2.773 9.345s4.724-.104 3.435 2.858c0 0-1.186 1.121-1.595.713 0 0 .609 1.944-1.84 1.944 0 0-2.644 1.432-3.668.408s-3.162-2.553-3.37-3.162c-.129-.402-.091-8.217-.045-13.609a5.025 5.025 0 0 1 5.035-4.99 5.045 5.045 0 0 1 4.045 2.034c.468.631.783 1.363.918 2.137.134.775.086 1.57-.142 2.322z" fill="#6E1866"/><path d="M347.874 521.567s2.061 1.944.972 3.091m-.066-4.328s1.906.648 1.906 2.391" stroke="#3F2B3B" stroke-miterlimit="10"/><path opacity=".1" d="M331.407 465.382s-9.598-.304-9.903 7.129c-.304 7.433 14.996 4.283 14.996 4.283s6.429-.862 5.308-5.378c-1.122-4.517-3.461-5.625-10.401-6.034z" fill="#000"/><path opacity=".1" d="M331.407 464.566s-9.598-.305-9.903 7.128c-.304 7.433 14.996 4.284 14.996 4.284s6.429-.862 5.308-5.379c-1.122-4.517-3.461-5.625-10.401-6.033z" fill="#000"/><path d="M331.407 464.974s-9.598-.304-9.903 7.129c-.304 7.433 14.996 4.283 14.996 4.283s6.429-.862 5.308-5.379c-1.122-4.516-3.461-5.625-10.401-6.033z" fill="#3F2B3B"/><path opacity=".1" d="M309.995 502.418s3.24 1.153 3.888 3.363l-3.888-3.363zm45.687-1.633s-2.301.965-2.139 4.996l2.139-4.996z" fill="#000"/><path d="M312.6 521.424c.719-.414.747-1.716.061-2.908-.685-1.193-1.824-1.824-2.543-1.411-.719.413-.747 1.715-.062 2.908.686 1.192 1.825 1.824 2.544 1.411zm45.658-3.636c.685-1.187.66-2.485-.056-2.898-.716-.413-1.852.214-2.537 1.401-.686 1.187-.661 2.485.055 2.898.716.413 1.852-.214 2.538-1.401z" fill="#6E1866"/><path opacity=".5" d="M312.6 521.424c.719-.414.747-1.716.061-2.908-.685-1.193-1.824-1.824-2.543-1.411-.719.413-.747 1.715-.062 2.908.686 1.192 1.825 1.824 2.544 1.411zm45.658-3.636c.685-1.187.66-2.485-.056-2.898-.716-.413-1.852.214-2.537 1.401-.686 1.187-.661 2.485.055 2.898.716.413 1.852-.214 2.538-1.401z" fill="#fff"/><path opacity=".1" d="M112.98 438.152c9.638 0 17.452-1.32 17.452-2.949 0-1.628-7.814-2.948-17.452-2.948-9.638 0-17.452 1.32-17.452 2.948 0 1.629 7.814 2.949 17.452 2.949zM44.229 479.97c9.638 0 17.452-1.32 17.452-2.949 0-1.628-7.814-2.948-17.452-2.948-9.638 0-17.452 1.32-17.452 2.948 0 1.629 7.814 2.949 17.452 2.949z" fill="#6E1866"/><path d="M26.058 444.017c14.39 0 26.057-1.973 26.057-4.407s-11.666-4.407-26.057-4.407C11.666 435.203 0 437.176 0 439.61s11.666 4.407 26.058 4.407z" fill="#6E1866"/><path d="M15.281 432.404a7.535 7.535 0 0 1-2.488-3.746c-.317-1.49.318-3.272 1.737-3.817 1.594-.609 3.298.493 4.588 1.607 1.29 1.115 2.774 2.392 4.465 2.158a6.798 6.798 0 0 1-2.1-6.363c.07-.478.272-.927.584-1.297.88-.946 2.488-.537 3.55.208 3.364 2.372 4.31 6.947 4.323 11.068.344-1.49.058-3.033.065-4.536.006-1.503.428-3.24 1.71-4.031a5.184 5.184 0 0 1 2.593-.648c1.516-.052 3.201.097 4.238 1.206 1.296 1.373.953 3.687-.168 5.184-1.121 1.497-2.82 2.462-4.381 3.512a9.664 9.664 0 0 0-3.137 2.988 3.04 3.04 0 0 0-.233.531H21.16a26.242 26.242 0 0 1-5.877-4.024z" fill="#6E1866"/><path opacity=".1" d="M655.537 462.816c9.638 0 17.451-1.32 17.451-2.948 0-1.629-7.813-2.949-17.451-2.949-9.639 0-17.452 1.32-17.452 2.949 0 1.628 7.813 2.948 17.452 2.948z" fill="#6E1866"/><path d="M643.818 446.162s9.954-.305 12.961-2.443c3.007-2.139 15.307-4.686 16.052-1.258.745 3.428 14.963 17.037 3.72 17.128-11.244.091-26.11-1.75-29.104-3.577-2.994-1.828-3.629-9.85-3.629-9.85z" fill="#A8A8A8"/><path opacity=".2" d="M676.745 458.403c-11.237.091-26.109-1.75-29.103-3.577-2.281-1.387-3.189-6.37-3.493-8.671h-.331s.648 8.029 3.623 9.85c2.974 1.821 17.866 3.668 29.103 3.577 3.24 0 4.368-1.179 4.303-2.89-.447 1.063-1.685 1.711-4.102 1.711z" fill="#000"/><defs><linearGradient id="paint0_linear" x1="300.282" y1="431.477" x2="300.282" y2="48.428" gradientUnits="userSpaceOnUse"><stop stop-color="gray" stop-opacity=".25"/><stop offset=".54" stop-color="gray" stop-opacity=".12"/><stop offset="1" stop-color="gray" stop-opacity=".1"/></linearGradient><linearGradient id="paint1_linear" x1="89246.2" y1="309576" x2="89246.2" y2="67802.5" gradientUnits="userSpaceOnUse"><stop stop-color="gray" stop-opacity=".25"/><stop offset=".54" stop-color="gray" stop-opacity=".12"/><stop offset="1" stop-color="gray" stop-opacity=".1"/></linearGradient><linearGradient id="paint2_linear" x1="118318" y1="315153" x2="118318" y2="91406.4" gradientUnits="userSpaceOnUse"><stop stop-color="gray" stop-opacity=".25"/><stop offset=".54" stop-color="gray" stop-opacity=".12"/><stop offset="1" stop-color="gray" stop-opacity=".1"/></linearGradient><linearGradient id="paint3_linear" x1="-67786.1" y1="312479" x2="-67786.1" y2="87819.2" gradientUnits="userSpaceOnUse"><stop stop-color="gray" stop-opacity=".25"/><stop offset=".54" stop-color="gray" stop-opacity=".12"/><stop offset="1" stop-color="gray" stop-opacity=".1"/></linearGradient><linearGradient id="paint4_linear" x1="40191.5" y1="78554.7" x2="40191.5" y2="66274.4" gradientUnits="userSpaceOnUse"><stop stop-color="gray" stop-opacity=".25"/><stop offset=".54" stop-color="gray" stop-opacity=".12"/><stop offset="1" stop-color="gray" stop-opacity=".1"/></linearGradient></defs></svg>