<svg width="379" height="205" fill="none" xmlns="http://www.w3.org/2000/svg"><g clip-path="url(#clip0)"><path d="M243.342 132.421c6.38 0 11.552-5.185 11.552-11.58 0-6.395-5.172-11.58-11.552-11.58s-11.552 5.185-11.552 11.58c0 6.395 5.172 11.58 11.552 11.58z" fill="#767D9F"/><path d="M242.742 106.11a225.105 225.105 0 0 1 2.936 15.242c.241 1.521.457 3.125-.093 4.563-.461 1.199-1.398 2.135-2.134 3.185-.735 1.049-1.292 2.394-.845 3.596.448 1.202 1.753 1.86 2.999 2.198 3.564.964 7.364.263 10.912-.78a17.634 17.634 0 0 0 4.576-1.899c1.504-.957 2.736-2.285 3.869-3.653 5.172-6.287 8.557-13.831 11.744-21.33a12.924 12.924 0 0 1-6.018-.888 12.96 12.96 0 0 1-4.951-3.542c-1.305-1.537-2.262-3.68-1.527-5.559-2.157 1.186-4.718 1.265-7.04 2.076a25.021 25.021 0 0 0-4.141 2.042 256.875 256.875 0 0 0-4.731 2.809c-1.792 1.083-3.472 2.046-5.556 1.94z" fill="#AE6E79"/><path d="M266.903 114.804c-2.024 3.948-4.658 7.744-8.418 10.095-3.76 2.351-8.822 2.989-12.589.664-1.855-1.136-3.26-2.862-4.88-4.317-1.62-1.454-3.644-2.7-5.821-2.51-2.398.209-4.277 2.085-5.883 3.882-2.439 2.729-4.794 5.575-6.52 8.806-3.313 6.21-4.098 13.469-3.953 20.51.146 7.04 1.163 14.043 1.186 21.083.033 8.661-1.431 17.252-2.912 25.783 13.616-1.68 27.249 1.993 40.895 3.384 8.733.9 17.532.88 26.312.857 1.543 0 3.187-.04 4.472-.897a6.034 6.034 0 0 0 1.852-2.205c1.212-2.241 1.699-4.798 2.037-7.326.858-6.382.885-12.844.908-19.287.06-15.608.116-31.272-1.862-46.757-.487-3.809-1.11-7.638-2.567-11.201-1.458-3.563-3.837-6.841-7.163-8.75-2.137-1.229-7.09-3.367-9.607-2.129-2.826 1.382-4.132 7.671-5.487 10.315z" fill="#767D9F"/><path d="M267.91 158.877c-.513-9.63-2.604-19.908 1.845-28.456 1.094-2.098-2.829-4.718-1.616-6.751a30.638 30.638 0 0 0 3.333-7.947c.251-.959.453-1.975.215-2.938-.441-1.757-2.173-2.803-3.644-3.872-1.624-1.183-2.459-4.786-2.982-6.735-.523-1.949 4.164.398 6.049-.296 2.618-.959 5.944-.355 8.554.618 1.458.538 3.042.585 4.595.624 3.019.08 6.047.156 9.041-.215 1.346-.17 2.694-.426 4.046-.349 3.448.196 6.447 2.56 8.487 5.356 2.041 2.796 3.34 6.054 5.013 9.083 1.395 2.523 3.058 4.908 4.247 7.535 1.053 2.324 1.719 4.821 2.379 7.305l1.699 6.373c.297.912.439 1.867.418 2.826-.087 1.019-.537 1.969-.994 2.876a54.506 54.506 0 0 1-6.186 9.461c-3.574 4.393-7.914 8.355-10.038 13.615-.828 2.049-1.288 4.227-1.709 6.399a235.48 235.48 0 0 0-3.611 26.284 57.636 57.636 0 0 0-18.394-5.05c-1.852-.193-4.24.172-6.003-.333-2.948-.84-3.273-5.838-3.72-8.454-.716-4.168-.858-8.409-.885-12.619-.033-4.789.116-9.568-.139-14.34zm-64.751-18.008c1.395 7.97 2.932 15.963 5.964 23.451-.076.073-.153.14-.229.206-.268.229-.546.445-.838.664-.679.478-1.425.884-1.988 1.508a2.675 2.675 0 0 0-.497.813 1.83 1.83 0 0 0 0 1.485c-1.58.701-3.415.485-5.188.418-1.527-.056-3.008 0-4.234.84-1.703 1.176-2.216 3.434-2.491 5.486a58.858 58.858 0 0 0-.262 2.249 62.89 62.89 0 0 0-.165 10.347c-5.414-.129-10.347-2.959-15.015-5.708-1.066-.628-2.166-1.289-2.859-2.325a5.255 5.255 0 0 1-.765-3.417c0-.169.03-.332.053-.505.148-.985.403-1.952.759-2.882a35.621 35.621 0 0 1 6.357-10.843c1.186-1.388 2.521-2.746 3.075-4.489.241-.761.331-1.568.576-2.325 1.1-3.281 5.069-4.832 6.427-8.016.331-.761.484-1.594.895-2.325a5.828 5.828 0 0 1 1.408-1.577c.241-.203.493-.399.742-.595a98.462 98.462 0 0 0 6.728-5.794c.402-.379.8-.762 1.193-1.15a19.775 19.775 0 0 0 .354 4.484z" fill="#4C4981"/><path d="M236.544 117.297c-.477.505-.994.98-1.501 1.452l-.136.122-.537.499a12.914 12.914 0 0 0-2.501 2.919l-.056.093c-1.69 3.031-1.064 6.764-.593 10.208.583 4.291.846 8.62.785 12.951-.086 5.977-.789 11.915-.802 17.886 0 1.355.03 2.706.09 4.061.096 2.202.261 4.4.46 6.599.215 2.41.474 4.818.716 7.226.192 1.863.374 3.722.527 5.582.076.963.149 1.923.208 2.886.07 1.129.126 2.261.159 3.39.023.717.037 1.431.037 2.149v1.218c0 .778-.021 1.552-.063 2.325-.044.994-.112 1.99-.202 2.989-.103 1.086-.285 2.271-1.047 3.035-.047.046-.096.09-.146.133l-1.073-.133c-7.4-.888-14.87-1.021-22.296-.398.162-1.123.311-2.242.457-3.368a259.214 259.214 0 0 0 .404-3.433c.076-.665.146-1.329.212-1.993.172-1.711.323-3.424.454-5.137.192-2.5.338-5.004.437-7.512.049-1.198.086-2.396.113-3.596.037-1.488.055-2.977.053-4.467 0-1.448-.012-2.898-.037-4.35 0-.478-.02-.957-.059-1.431a9.222 9.222 0 0 0-.176-1.272 16.579 16.579 0 0 0-.994-2.816c-.073-.173-.142-.332-.212-.515-.04-.09-.076-.183-.112-.272 1.908-1.704 3.266-3.985 4.571-6.23 2.117-3.617 4.284-7.392 4.639-11.57.354-4.177-1.717-8.87-5.699-10.145-1.083-.332-2.229-.425-3.346-.621-1.053-.186-3.25-.608-4.469-1.365-.663.682-1.325 1.352-1.988 2.009a7.367 7.367 0 0 1 .719-2.892l.471.023a.873.873 0 0 1-.053-.332c0-.355.245-.757.768-1.202 1.561-1.328 4.015-1.624 4.999-3.42.411-.748.481-1.638.812-2.421.951-2.235 3.681-3.059 5.324-4.845 1.643-1.787 2.054-4.317 3.383-6.31a9.482 9.482 0 0 1 3.975-3.321c.133-.063.268-.126.404-.182 2.75-1.179 6.017-1.448 8.866-1.442 1.106 0 3.975.034 5.38.595.228.081.436.209.613.375 1.497 1.634-.832 5.084-1.938 6.266z" fill="#4C4981"/><path d="M203.653 133.281a20.12 20.12 0 0 1 15.485 1.617c2.385 1.328 4.525 3.181 5.837 5.572 1.971 3.587 1.885 7.91 1.746 12.005-.069 2.049-.159 4.171-1.06 6.011-1.044 2.128-3.011 3.589-5.019 4.785a13.986 13.986 0 0 1-4.082 1.77c-2.226.485-4.538.073-6.781-.332-2.439-.452-5.056-.997-6.749-2.816-.994-1.056-1.537-2.428-2.074-3.769-.77-1.938-1.543-3.873-2.319-5.805-1.341-3.358-1.795-6.15-.023-9.421.805-1.491 1.789-2.886 2.584-4.387.398-.764 1.822-5.035 2.455-5.23z" fill="#4C4981"/><path d="M342.889 190.687v9.93a55.33 55.33 0 0 1-21.444 4.25h-89.347c-.046.047-.096.09-.146.133l-1.073-.133H71.947c-13.334 0-25.692-3.606-35.826-9.75v-15.159l76.436-8.843h.06l44.512 3.779 11.52.996 5.983.508 12.383 1.053 6.371.541 9.276.79 1.306.11 6.685.568 9.071.747 12.755 1.082 21.262 1.81 14.958 1.272 24.562 2.089 4.672.395.503.043.437.037 6.169.525 6.772.577.785.067 30.29 2.583z" fill="#504F60"/><path d="M253.109 190.322l-95.791-16.388-3.714 18.825 43.91 5.271 13.52 1.697 37.191-7.343 4.884-2.062z" fill="#9C9CA1"/><path d="M203.523 198.784l47.992-9.043a1.654 1.654 0 0 1 1.967 1.637 1.66 1.66 0 0 1-1.355 1.637l-46.868 8.797-1.736-3.028z" fill="#9C9CA1"/><path d="M224.342 170.347c1.494-.139 3.008-.375 4.353-1.039 1.657-.827 2.946-2.251 4.48-3.301 3.372-2.324 7.884-2.637 11.751-1.302 3.866 1.335 7.093 4.195 9.352 7.608 1.501 2.275 2.627 5.178 1.567 7.688a10.153 10.153 0 0 1-1.365 2.139l-2.763 3.619a9.633 9.633 0 0 1-1.875 2.023c-1.034.754-2.319 1.062-3.585 1.248-3.362.492-6.785.213-10.174.439-5.821.388-11.505 2.268-17.34 2.205-3.352-.037-6.662-.714-9.938-1.392l-14.501-2.988c-2.525-.518-5.377-1.276-6.566-3.57-.534-1.033-.633-2.229-.696-3.391-.172-3.201 0-6.761 2.213-9.069 2.08-2.165 5.37-2.849 7.855-4.45 3.041-1.962 4.045-1.328 7.252.146a39.67 39.67 0 0 0 19.98 3.387z" fill="#AE6E79"/><path opacity=".05" d="M224.342 170.347c1.494-.139 3.008-.375 4.353-1.039 1.657-.827 2.946-2.251 4.48-3.301 3.372-2.324 7.884-2.637 11.751-1.302 3.866 1.335 7.093 4.195 9.352 7.608 1.501 2.275 2.627 5.178 1.567 7.688a10.153 10.153 0 0 1-1.365 2.139l-2.763 3.619a9.633 9.633 0 0 1-1.875 2.023c-1.034.754-2.319 1.062-3.585 1.248-3.362.492-6.785.213-10.174.439-5.821.388-11.505 2.268-17.34 2.205-3.352-.037-6.662-.714-9.938-1.392l-14.501-2.988c-2.525-.518-5.377-1.276-6.566-3.57-.534-1.033-.633-2.229-.696-3.391-.172-3.201 0-6.761 2.213-9.069 2.08-2.165 5.37-2.849 7.855-4.45 3.041-1.962 4.045-1.328 7.252.146a39.67 39.67 0 0 0 19.98 3.387z" fill="#000"/><path d="M282.574 165.795c-4.069 1.577-8.16 3.161-12.42 4.101-7.143 1.577-14.617 1.328-21.704 3.131-3.743.957-7.464 2.498-11.31 2.185-1.719-.139-3.379-.664-5.052-1.062-9.399-2.325-20.083-1.571-27.716 4.407-2.611 2.042-4.748 4.589-6.686 7.305a4.886 4.886 0 0 0-.727 4.095 4.87 4.87 0 0 0 2.685 3.171 28.622 28.622 0 0 0 9.402 2.514c4.35.385 8.72-.232 13.047-.85 6.42-.913 12.844-1.83 19.248-2.856 2.299-.369 4.598-.75 6.911-1.043 16.641-2.108 33.583.455 50.267-1.305 1.686-.179 3.402-.412 4.936-1.132 3.883-1.827 5.804-6.642 5.003-10.872-.802-4.231-3.896-7.748-7.62-9.906-3.121-1.817-6.487-2.551-9.962-3.321-3.227-.754-5.195.242-8.302 1.438z" fill="#AE6E79"/><path opacity=".1" d="M318.264 140.503c1.836 2.411 2.227 5.646 2.028 8.664-.199 3.019-.915 6.004-1.021 9.036-.145 4.158.855 8.302.686 12.447-.119 2.899-.805 5.741-1.616 8.524-.958 3.284-2.343 6.814-5.367 8.392-4.016 2.095-12.437.916-16.661 2.557.384-2.401 4.068-5.878 4.452-8.279.265-1.66.534-3.367.249-5.031-.365-2.122-1.607-4.005-3.081-5.572-2.346-2.494-5.407-4.37-8.77-4.981-3.362-.611-11.595-.11-14.285 2.019-.331-2.199 5.831-4.317 7.998-4.792 1.08-.243 2.319-.107 3.183-.794 1.657-1.302.454-3.895.534-5.977.063-1.661 1.03-3.182 1.225-4.842.332-2.657-1.398-5.363-.718-7.97.251-.963.811-1.81 1.199-2.726 1.179-2.807.662-6.008.033-8.99-.391-1.873-.772-3.985.268-5.582.964-1.491 3.701 3.819 5.453 3.573 5.788-.814 11.026-5.114 15.7-1.594 2.382 1.793 2.694 3.653 3.645 6.213.924 2.438 3.319 3.686 4.866 5.705z" fill="#000"/><path d="M319.257 140.503c1.836 2.411 2.227 5.646 2.028 8.664-.199 3.019-.914 6.004-1.02 9.036-.146 4.158.854 8.302.685 12.447-.119 2.899-.805 5.741-1.616 8.524-.958 3.284-2.343 6.814-5.367 8.392-4.016 2.095-12.437.916-16.661 2.557.384-2.401 4.068-5.878 4.453-8.279.265-1.66.533-3.367.248-5.031-.364-2.122-1.607-4.005-3.081-5.572-2.346-2.494-5.407-4.371-8.769-4.982-3.363-.611-11.596-.109-14.286 2.02-.331-2.199 5.831-4.318 7.998-4.792 1.08-.243 2.319-.107 3.183-.794 1.657-1.302.454-3.895.534-5.978.063-1.66 1.03-3.181 1.226-4.841.331-2.657-1.399-5.363-.719-7.97.251-.963.811-1.81 1.199-2.727 1.179-2.806.663-6.007.033-8.989-.391-1.873-.772-3.985.268-5.582.964-1.491 2.85-2.056 4.602-2.305a22.626 22.626 0 0 1 16.565 4.284c2.382 1.793 2.693 3.653 3.644 6.213.911 2.438 3.306 3.686 4.853 5.705z" fill="#4C4981"/><path d="M100.051 124.769l18.012 66.729a4.166 4.166 0 0 0 3.614 3.058l81.075 7.807a4.148 4.148 0 0 0 3.541-1.422 4.166 4.166 0 0 0 .891-3.718l-19.725-80.49a4.163 4.163 0 0 0-1.596-2.377 4.143 4.143 0 0 0-2.75-.781l-79.375 5.951a4.148 4.148 0 0 0-3.77 3.429 4.166 4.166 0 0 0 .083 1.814z" fill="#9C9CA1"/><path d="M260.764 137.79c4.922 0 8.912-4.051 8.912-9.049 0-4.998-3.99-9.049-8.912-9.049-4.922 0-8.911 4.051-8.911 9.049 0 4.998 3.989 9.049 8.911 9.049z" fill="#fff"/><path d="M268.083 112.233s1.879 5.599-3.664 7.954l-.709 1.242 3.472 3.433s4.28-7.827 3.816-10.606c0 0-.662-2.823-2.915-2.023z" fill="#fff"/><path d="M261.788 137.79c4.746 0 8.594-3.857 8.594-8.614 0-4.758-3.848-8.614-8.594-8.614-4.746 0-8.594 3.856-8.594 8.614 0 4.757 3.848 8.614 8.594 8.614zm9.254-22.263l-1.365-2.258-1.988-.282c.424-7.435-1.501-9.65-1.501-9.65l-.447-.043-1.948-.19-3.664-3.812V98.21c5.148.614 7.994 3.065 9.531 5.937 2.717 5.041 1.382 11.38 1.382 11.38z" fill="#fff"/><path opacity=".1" d="M265.758 101.925v1.369l-1.948-.19-3.664-3.812s5.668 1.272 5.612 2.633zm5.284 13.603l-1.365-2.259v-9.109c2.7 5.028 1.365 11.368 1.365 11.368z" fill="#000" stroke="#4C4981" stroke-miterlimit="10"/><path d="M245.909 132.717c2.286-1.323 2.188-5.785-.22-9.965-2.408-4.181-6.214-6.497-8.5-5.174-2.287 1.324-2.188 5.785.22 9.966 2.408 4.18 6.213 6.496 8.5 5.173z" fill="#fff"/><path d="M242.839 124.417c2.408 4.181 5.363 6.974 3.077 8.302-2.286 1.329-8.945.664-11.353-3.52-2.409-4.184-.222-9.962 2.064-11.291 2.286-1.328 3.8 2.318 6.212 6.509z" fill="#fff"/><path opacity=".1" d="M264.283 94.298c0 13.359-9.12 26.234-22.448 26.234a24.106 24.106 0 0 1-17.066-7.086A24.221 24.221 0 0 1 217.7 96.34a24.22 24.22 0 0 1 7.069-17.106 24.106 24.106 0 0 1 17.066-7.086c13.328.013 22.448 8.787 22.448 22.15z" fill="#000"/><path d="M241.835 119.881c13.329 0 24.135-10.831 24.135-24.192s-10.806-24.192-24.135-24.192c-13.329 0-24.135 10.831-24.135 24.192s10.806 24.192 24.135 24.192z" fill="#AE6E79"/><path d="M239.715 84.97c2.872 1.059 4.571 4.034 7.149 5.692 3.644 2.324 8.388 1.723 12.549.574 2.319-.634 4.744-1.408 7.027-.704.336.149.706.202 1.07.153.497-.143.742-.694.904-1.186 2.823-8.435 1.554-17.989-2.706-25.792-1.1-2.013-2.419-3.959-4.234-5.357-1.431-1.1-3.114-1.82-4.811-2.434a47.917 47.917 0 0 0-9.567-2.368 5.93 5.93 0 0 0-1.746-.056c-.799.13-1.514.56-2.226.946a22.748 22.748 0 0 1-9.893 2.693c-4.638.176-9.939-.92-13.513 2.063-4.307 3.576-3.234 10.553-6.027 15.408-1.848 3.211-5.413 5.542-5.999 9.199a8.513 8.513 0 0 0 .208 3.344c1.365 5.625 6.799 9.982 12.59 10.085a4.765 4.765 0 0 0 2.57-.528c.519-.355.976-.79 1.355-1.292 3.794-4.503 8.134-13.084 15.3-10.44z" fill="#444053"/><path opacity=".1" d="M268.415 87.052c-.163.491-.408 1.042-.905 1.185a1.984 1.984 0 0 1-1.07-.152c-2.283-.704-4.721.07-7.023.704-4.165 1.148-8.919 1.763-12.55-.575-2.581-1.66-4.277-4.65-7.152-5.692-7.166-2.657-11.506 5.938-15.309 10.44-.38.502-.837.938-1.355 1.293a4.769 4.769 0 0 1-2.571.528c-5.771-.103-11.208-4.46-12.589-10.086a12.956 12.956 0 0 1-.193-.996c0 .03 0 .056-.016.086a8.495 8.495 0 0 0 .209 3.344c1.365 5.626 6.801 9.983 12.589 10.086a4.769 4.769 0 0 0 2.571-.528 5.84 5.84 0 0 0 1.355-1.292c3.803-4.503 8.143-13.084 15.309-10.44 2.875 1.059 4.571 4.034 7.152 5.691 3.644 2.325 8.385 1.724 12.55.575 2.319-.635 4.74-1.408 7.023-.704.336.149.706.202 1.07.152.497-.142.742-.694.905-1.185a30.065 30.065 0 0 0 1.484-10.713 29.598 29.598 0 0 1-1.484 8.279z" fill="#000"/></g><defs><clipPath id="clip0"><path fill="#fff" d="M0 0h379v205H0z"/></clipPath></defs></svg>