<svg width="193" height="75" fill="none" xmlns="http://www.w3.org/2000/svg"><path d="M29.677.866c.597-.098 1.2-.078 1.802-.087.191-.002.389.007.567.083-.241.063-.488.115-.715.223-.386.178-.81.256-1.197.433-.369.163-.72.36-1.088.52-.484.253-1.004.431-1.467.724-1.072.543-2.07 1.214-3.104 1.823-.344.262-.703.503-1.07.73-.758.542-1.492 1.117-2.254 1.655-.654.551-1.35 1.05-1.99 1.619-.488.364-.904.808-1.383 1.181a61.333 61.333 0 0 0-3.4 3.258c-.787.862-1.675 1.62-2.48 2.465-.572.554-1.09 1.158-1.62 1.75a9.38 9.38 0 0 1-.008-.052c.443-.54.788-1.151 1.18-1.728 1.145-1.64 2.32-3.264 3.613-4.793.242-.251.46-.524.664-.805.217-.302.512-.536.74-.829.455-.56 1-1.036 1.482-1.572.533-.511 1.05-1.041 1.613-1.52 1.131-.98 2.287-1.941 3.572-2.718.916-.623 1.922-1.098 2.93-1.554.222-.047.423-.165.645-.218.967-.282 1.95-.582 2.968-.588zM57.67 11.434c.121.016.183.128.282.187 1.606 1.118 3.197 2.264 4.698 3.524.302.27.612.534.947.766.329.27.61.596.947.86.337.262.622.581.93.875 1.065.998 2.044 2.084 2.974 3.208.472.61.97 1.2 1.389 1.85.513.838 1.073 1.654 1.477 2.554a15.55 15.55 0 0 1 1.232 3.508c.05.11-.02.281.1.352.18.759.273 1.534.376 2.305.028.567.024 1.136.06 1.703-.67-2.641-1.889-5.11-3.278-7.443-.728-1.16-1.464-2.317-2.31-3.393-1.082-1.56-2.325-3-3.559-4.441a62.52 62.52 0 0 0-3.89-4c-.595-.584-1.144-1.215-1.758-1.78-.22-.198-.418-.418-.617-.635zM.516 41.78c.033.154.046.312.101.462.179.405.254.845.424 1.253.232.819.605 1.585.938 2.366a38.703 38.703 0 0 0 2.842 5.034c.387.5.677 1.064 1.104 1.534.98 1.418 2.077 2.753 3.194 4.066a61.612 61.612 0 0 0 4.607 4.809c.585.587 1.135 1.21 1.749 1.77.17.157.325.332.482.504-.125-.01-.182-.142-.283-.19-1.81-1.258-3.595-2.56-5.258-4.005-.454-.306-.828-.703-1.234-1.066-.494-.38-.902-.854-1.363-1.271a33.377 33.377 0 0 1-3.093-3.473c-.69-.825-1.239-1.753-1.803-2.664-.65-1.158-1.204-2.376-1.576-3.652-.176-.519-.244-1.065-.41-1.586-.158-.718-.247-1.45-.336-2.178.001-.573-.052-1.142-.085-1.713zM62.2 59.036c.385-.385.708-.827 1.114-1.19.006.134-.16.16-.197.275-1.525 2.356-3.179 4.637-5.016 6.76-.348.513-.823.919-1.207 1.404-1.01 1.055-2.022 2.115-3.146 3.055-.55.496-1.148.936-1.718 1.41-1.495 1.077-3.076 2.062-4.81 2.705a8.806 8.806 0 0 1-2.882.698c-.532.122-1.082.066-1.623.1-.494.083-.991-.066-1.491.009.471-.143.957-.243 1.4-.464a28.69 28.69 0 0 0 2.016-.851c.854-.437 1.73-.836 2.561-1.315.842-.554 1.738-1.025 2.544-1.632.61-.333 1.107-.824 1.691-1.194 2.965-2.19 5.752-4.621 8.274-7.311.838-.81 1.683-1.616 2.49-2.459z" fill="#A2198E"/><path d="M142.877 30.89c.177-.074.375-.056.566-.06.503.006 1.009-.007 1.513.005.121.009.291.024.343.16.054.172.041.359.051.538v14.95c-.003.28.016.566-.04.843-.032.159-.214.191-.348.19-.538.01-1.076-.003-1.614.005-.186-.01-.4.02-.552-.11-.102-.13-.088-.3-.09-.454V31.34c.003-.158-.004-.377.171-.452zm-34.383-.06c.259-.087.54-.037.811-.049.476.014.955-.028 1.431.022.21.025.245.269.24.442.003 2.808 0 5.617.002 8.425.002.886.044 1.776.201 2.648.127.666.369 1.332.817 1.854.448.523 1.096.834 1.761.984.589.147 1.2.175 1.806.198.996-.025 1.995-.087 2.977-.26.038-.197.013-.399.019-.598-.001-4.384.001-8.768-.001-13.152.006-.15-.01-.313.07-.448.11-.127.29-.108.444-.116h1.613c.149.005.329-.005.443.117.088.13.066.297.075.446-.002 4.606 0 9.21-.001 13.816-.001.572-.122 1.177-.499 1.626-.395.483-1.015.725-1.622.798a29.89 29.89 0 0 1-2.757.206c-1.168.036-2.348.022-3.495-.23-1.009-.211-2.005-.645-2.733-1.392-.661-.648-1.074-1.505-1.323-2.386-.344-1.244-.425-2.542-.439-3.828v-8.61c.008-.175-.024-.415.16-.513zm47.225 2.089c-.75.123-1.45.495-1.991 1.026-.676.647-1.095 1.514-1.358 2.401a9.603 9.603 0 0 0-.364 2.47c-.022 1.046.042 2.095.246 3.122.168.801.467 1.594.989 2.236a3.55 3.55 0 0 0 2.152 1.277c1.034.175 2.162.115 3.089-.419 1.065-.615 1.724-1.74 2.029-2.9.364-1.42.406-2.905.28-4.359-.084-.939-.239-1.891-.665-2.742-.425-.885-1.187-1.63-2.124-1.951a4.998 4.998 0 0 0-2.283-.161zm-.282-2.36c1.159-.135 2.354-.067 3.472.283.933.291 1.796.82 2.465 1.535.839.89 1.392 2.018 1.721 3.188.412 1.485.483 3.043.408 4.576-.09 1.57-.393 3.167-1.169 4.554-.568 1.03-1.425 1.913-2.479 2.451-1.137.588-2.439.782-3.707.75-1.426-.015-2.892-.378-4.036-1.258-.99-.746-1.681-1.83-2.093-2.986-.527-1.485-.669-3.077-.656-4.643.018-1.662.304-3.353 1.077-4.84.618-1.24 1.611-2.307 2.853-2.938a6.65 6.65 0 0 1 2.144-.671zm-55.088-3.886c.179-.068.385-.15.559-.012.056.167.064.344.069.52.001 1.227-.004 2.454.002 3.682 1.131.033 2.265 0 3.398.015.162-.016.358.077.36.261.054.537.022 1.081.021 1.62.018.171-.078.386-.279.369-1.166.028-2.334-.019-3.499.023-.008 3.403-.001 6.807-.003 10.21-.005.538.07 1.12.425 1.548.387.429.999.524 1.549.536.892-.018 1.775-.169 2.663-.252l.124.103c.123.387.16.796.25 1.191.046.27.129.55.065.822-.091.1-.222.143-.344.182-1.043.328-2.147.387-3.232.406-1.069-.01-2.246-.16-3.066-.909-.834-.814-1.045-2.04-1.073-3.155-.017-3.564.008-7.128-.013-10.692-.767-.02-1.536.006-2.303-.01-.199.02-.337-.18-.326-.36-.012-.382-.016-.764.002-1.146.018-.228.21-.406.428-.451.783-.173 1.572-.321 2.354-.499.169-1.005.32-2.013.485-3.018.033-.161.062-.352.208-.455.347-.262.782-.36 1.176-.529zm-15.169-1.69c.864-.096 1.737-.085 2.604-.025 1.576.134 3.156.415 4.624 1.025.21.094.44.162.622.308.162.168.074.41.003.597-.23.578-.424 1.173-.668 1.745-.05.204-.278.137-.416.075a14.81 14.81 0 0 0-5.593-1.153c-.79.022-1.604.14-2.297.541-.634.369-1.16.967-1.341 1.687-.198.788-.112 1.686.381 2.354.51.695 1.27 1.147 2.03 1.526 1.78.853 3.65 1.507 5.42 2.383 1.283.65 2.49 1.572 3.18 2.86.661 1.176.731 2.589.54 3.898-.232 1.593-1.205 3.047-2.567 3.901-1.305.825-2.87 1.138-4.395 1.189-2.513.045-5.072-.301-7.391-1.3-.26-.123-.524-.234-.768-.382-.207-.115-.183-.384-.1-.57.236-.534.466-1.07.695-1.606.064-.134.118-.292.266-.354.147-.024.28.048.413.105a16.893 16.893 0 0 0 4.363 1.313c1.306.206 2.66.233 3.948-.089.901-.235 1.798-.707 2.308-1.513.518-.837.589-1.908.31-2.839-.338-.991-1.195-1.69-2.077-2.196-1.616-.913-3.415-1.425-5.085-2.226-1.135-.53-2.256-1.157-3.113-2.086a4.583 4.583 0 0 1-1.24-2.704c-.112-1.112.019-2.266.493-3.285a5.253 5.253 0 0 1 2.334-2.446c.78-.41 1.647-.626 2.517-.733zm58.41-.391c.489-.126 1.037-.058 1.451.244.54.367.831 1.032.779 1.677-.025.89-.808 1.71-1.713 1.704-.972.054-1.849-.834-1.83-1.795-.04-.815.526-1.61 1.313-1.83zm-12.327 8.432c-1.069.17-2.063.759-2.688 1.645-.874 1.227-1.176 2.762-1.222 4.242-.041 1.434.036 2.926.659 4.245.391.855 1.088 1.592 1.98 1.929 1.078.424 2.267.412 3.398.265.73-.109 1.475-.21 2.165-.486.011-3.788.007-7.577.001-11.366a10.424 10.424 0 0 0-2.826-.528 5.896 5.896 0 0 0-1.467.054zm4.443-8.727c.136-.054.287-.041.434-.046.538.004 1.075-.001 1.612 0 .143.01.335-.009.42.14.073.16.055.344.066.518-.001 6.844 0 13.69 0 20.534-.004.285.014.571-.016.856a.557.557 0 0 1-.372.466 10.783 10.783 0 0 1-3.32.943c-1.323.155-2.662.255-3.991.143-1.33-.117-2.653-.597-3.65-1.502-.961-.859-1.567-2.052-1.878-3.29-.317-1.26-.417-2.564-.398-3.86.017-1.18.189-2.36.521-3.493.392-1.291 1.072-2.516 2.064-3.444.831-.772 1.858-1.351 2.974-1.586 1.145-.261 2.331-.188 3.491-.098.645.054 1.27.225 1.894.39.01-2.082-.002-4.165.006-6.247.012-.146-.002-.338.143-.424z" fill="#252525"/><path d="M35.755.085c.882-.166 1.785-.056 2.665.059a16.17 16.17 0 0 1 3.123.72 13.61 13.61 0 0 1 2.57.98c1 .41 1.938.956 2.9 1.446.244.168.509.3.766.447.576.42 1.217.74 1.79 1.166.95.606 1.824 1.322 2.746 1.968a85.395 85.395 0 0 1 3.813 3.168c.502.47 1.014.93 1.527 1.388.2.218.397.437.617.635.614.565 1.163 1.197 1.758 1.782a62.468 62.468 0 0 1 3.89 3.999c1.234 1.44 2.477 2.88 3.558 4.44.847 1.077 1.583 2.234 2.311 3.393 1.39 2.334 2.607 4.802 3.278 7.444.196.915.421 1.829.455 2.769.11.753.056 1.516.07 2.275-.09 1.873-.436 3.74-1.085 5.506-.514 1.524-1.244 2.963-2.002 4.38-.467.874-1.007 1.706-1.533 2.546-.323.443-.623.902-.923 1.36-.732.895-1.34 1.886-2.104 2.754-.843 1.076-1.75 2.098-2.645 3.13-.406.363-.73.805-1.114 1.19-.807.842-1.652 1.65-2.49 2.459-2.522 2.69-5.31 5.12-8.274 7.31-.584.37-1.081.862-1.692 1.195-.805.606-1.701 1.078-2.543 1.632-.832.478-1.707.877-2.56 1.315-.66.311-1.335.59-2.017.85-.443.221-.929.322-1.4.465-.882.273-1.795.441-2.703.609-.22.037-.444.024-.665.05-1.041.197-2.097.006-3.133-.12a18.655 18.655 0 0 1-2.81-.7c-.702-.19-1.359-.516-2.047-.75-.34-.2-.714-.326-1.07-.493-1.016-.516-2.034-1.035-3.011-1.623-.539-.394-1.144-.689-1.678-1.087a23.765 23.765 0 0 1-1.728-1.23c-.948-.658-1.84-1.39-2.746-2.106-.464-.427-.982-.793-1.436-1.23-.775-.637-1.483-1.347-2.241-2.004-.157-.172-.311-.347-.483-.503-.613-.56-1.163-1.183-1.748-1.77a61.654 61.654 0 0 1-4.607-4.809c-1.117-1.313-2.214-2.648-3.195-4.066-.426-.47-.717-1.035-1.103-1.534a38.695 38.695 0 0 1-2.842-5.035c-.333-.78-.707-1.546-.938-2.365-.17-.408-.246-.848-.424-1.253-.055-.15-.068-.309-.102-.462-.223-.981-.393-1.978-.445-2.983-.094-.554-.028-1.116-.053-1.674-.017-.256.063-.504.06-.758-.004-.993.213-1.968.407-2.937.159-.784.442-1.533.69-2.291.476-1.347 1.101-2.638 1.784-3.893.399-.786.857-1.54 1.338-2.278.303-.552.709-1.038 1.04-1.573.306-.507.727-.93 1.045-1.43.87-1.209 1.83-2.351 2.791-3.49.375-.404.692-.863 1.105-1.232.53-.592 1.049-1.195 1.621-1.749.805-.844 1.693-1.604 2.48-2.465a61.46 61.46 0 0 1 3.4-3.258c.478-.373.895-.817 1.382-1.181.64-.57 1.337-1.068 1.991-1.62.762-.537 1.496-1.112 2.254-1.654.367-.227.726-.468 1.07-.73 1.033-.61 2.032-1.28 3.104-1.823.462-.293.983-.472 1.467-.723.368-.162.719-.359 1.087-.521.388-.177.812-.255 1.198-.433.162-.078.333-.126.506-.17h.014c.073-.022.13-.035.195-.054.066-.013.134-.034.197-.051l.081-.023.027-.01c.105-.038.204-.066.316-.103.275-.055.543-.151.814-.225.76-.138 1.515-.314 2.289-.358zm-17.658 22.94c-.341.075-.69.233-.886.535-.297.435-.35.98-.359 1.493-.002 7.475 0 14.95 0 22.424.004.33-.036.677.106.986.144.179.385.245.607.246.952.006 1.905 0 2.858.002.213-.006.453.008.635-.126.157-.171.131-.422.151-.636.004-3.319 0-6.638.002-9.957.878-.037 1.759-.005 2.638-.016 1.046.016 2.112-.07 3.138.185.643.156 1.274.466 1.688.994.543.675.831 1.512 1.045 2.34.533 2.158 1.07 4.316 1.598 6.475.052.212.135.429.306.575.264.168.588.17.89.166 1.02-.005 2.04.01 3.058-.007.355-.034.426-.482.353-.764-.609-2.438-1.234-4.872-1.85-7.31-.236-.963-.574-1.919-1.138-2.742-.417-.61-1.053-1.017-1.7-1.347l-.005-.112c.25-.143.52-.252.76-.412 1.434-.909 2.41-2.462 2.707-4.12.25-1.386.173-2.84-.268-4.179-.463-1.382-1.373-2.617-2.588-3.433-1.336-.902-2.963-1.314-4.565-1.322h-8.475c-.237 0-.475.008-.706.062zm28.376.01c-.379.095-.76.28-.985.612-.27.391-.395.857-.546 1.303l-7.498 23c-.112.27-.047.685.288.746 1.085.032 2.172.006 3.257.014.29-.002.627.029.856-.19.24-.261.29-.628.402-.95.467-1.484.904-2.978 1.39-4.457 2.956-.012 5.913-.012 8.87 0 .525 1.635 1.011 3.284 1.521 4.925.066.202.15.414.326.549.189.112.416.119.63.123h3.237c.156-.003.336.006.45-.12.164-.173.123-.44.06-.645l-7.6-23.211c-.195-.55-.407-1.154-.91-1.495-.667-.37-1.456-.258-2.186-.277-.521.015-1.05-.047-1.562.072zm-25.217 3.924c1.721-.01 3.443 0 5.164-.005.573-.006 1.153.03 1.708.184.913.256 1.699.935 2.05 1.818.381.995.413 2.137.03 3.136-.295.731-.825 1.398-1.55 1.74-.722.352-1.54.428-2.333.438-1.69-.003-3.38.003-5.07-.003a723.75 723.75 0 0 1 0-7.308zm26.692.953l.15.012c.518 1.788 1.009 3.585 1.523 5.375.587 2.002 1.187 4 1.766 6.004-2.233.003-4.466.003-6.7 0 .496-1.776 1.025-3.542 1.533-5.314.591-2.022 1.135-4.057 1.728-6.077z" fill="#6E1866"/><path d="M18.097 23.025c.231-.054.47-.062.706-.062h8.475c1.602.008 3.229.42 4.565 1.322 1.215.816 2.125 2.05 2.588 3.433.441 1.339.518 2.793.268 4.178-.298 1.659-1.273 3.212-2.707 4.12-.24.161-.51.27-.76.413l.005.112c.647.33 1.283.737 1.7 1.347.564.823.902 1.78 1.138 2.743.615 2.437 1.241 4.87 1.85 7.309.073.282.002.73-.353.764-1.019.018-2.038.002-3.057.007-.303.003-.628.002-.891-.166-.17-.146-.254-.363-.306-.575-.528-2.16-1.065-4.317-1.598-6.476-.214-.827-.502-1.663-1.045-2.339-.414-.528-1.046-.838-1.688-.994-1.026-.255-2.092-.169-3.138-.185-.88.011-1.76-.021-2.638.016-.002 3.319.002 6.639-.002 9.957-.02.214.006.465-.151.636-.182.134-.422.12-.635.126-.953-.002-1.906.004-2.858-.002-.222-.001-.463-.067-.607-.246-.142-.31-.102-.656-.107-.986l.001-22.424c.01-.513.062-1.058.36-1.493.195-.301.544-.46.885-.535zm3.159 3.934a720.84 720.84 0 0 0-.001 7.309c1.69.005 3.38-.001 5.07.002.793-.01 1.611-.086 2.334-.438.724-.342 1.254-1.009 1.549-1.74.383-.999.351-2.14-.03-3.136-.35-.883-1.137-1.562-2.05-1.818-.555-.154-1.135-.19-1.708-.184-1.721.005-3.443-.005-5.164.005zm25.217-3.924c.511-.119 1.04-.057 1.562-.072.73.019 1.52-.092 2.186.277.503.341.715.946.91 1.495l7.6 23.21c.063.207.104.473-.06.646-.114.126-.294.117-.45.12h-3.237c-.214-.004-.442-.011-.63-.123-.176-.135-.26-.347-.326-.55-.51-1.64-.995-3.289-1.521-4.924a1057.49 1057.49 0 0 0-8.87 0c-.486 1.479-.923 2.973-1.39 4.457-.113.322-.162.69-.402.95-.229.219-.566.188-.856.19-1.085-.008-2.172.019-3.256-.014-.336-.06-.401-.477-.289-.746l7.498-23.001c.15-.446.276-.912.546-1.303.224-.332.606-.517.985-.612zm1.475 4.877c-.593 2.02-1.137 4.055-1.728 6.077-.508 1.772-1.037 3.539-1.532 5.314 2.233.003 4.466.003 6.7 0-.58-2.004-1.18-4.002-1.767-6.004-.514-1.79-1.006-3.586-1.524-5.375l-.149-.012z" fill="#fff"/><path clip-rule="evenodd" d="M43.834 7.064c.748.05 1.455.33 2.142.607.825.337 1.63.743 2.373 1.238a11.35 11.35 0 0 1 1.871 1.33c.722.542 1.365 1.18 2.04 1.777.162.187.348.35.525.522.377.461.828.853 1.2 1.318.641.69 1.197 1.451 1.807 2.167a71.29 71.29 0 0 1 2.414 3.361c.307.485.624.965.943 1.442.115.218.229.437.365.643.377.586.687 1.211 1.045 1.809a52.16 52.16 0 0 1 2.303 4.048c.694 1.424 1.395 2.848 1.94 4.337.458 1.047.81 2.137 1.154 3.227.632 2.178 1.096 4.428 1.082 6.704-.034.781-.044 1.567-.215 2.334-.07.632-.274 1.237-.422 1.854a15.535 15.535 0 0 1-2.037 4.224c-.737 1.124-1.63 2.134-2.541 3.12-.562.609-1.174 1.168-1.776 1.736-.354.291-.693.6-1.033.907-.78.57-1.48 1.243-2.28 1.785-.909.693-1.857 1.329-2.797 1.975-.406.208-.76.498-1.151.728-.83.512-1.683.987-2.532 1.465-2.604 1.646-5.37 3.026-8.227 4.176-.55.176-1.056.469-1.62.61-.778.321-1.602.514-2.4.786-.773.212-1.564.351-2.346.525-.6.114-1.203.198-1.81.266-.404.085-.818.065-1.23.08-.77.037-1.543-.018-2.313-.074-.185-.016-.363-.073-.547-.098-.884-.06-1.697-.436-2.508-.754a15.578 15.578 0 0 1-2.123-1.155c-.528-.3-.99-.703-1.498-1.036-.232-.232-.509-.413-.76-.623-.714-.63-1.427-1.263-2.093-1.944-.353-.431-.78-.796-1.127-1.23a19.775 19.775 0 0 1-1.138-1.357c-.628-.73-1.195-1.51-1.776-2.279-.286-.442-.627-.846-.902-1.296-.492-.677-.915-1.399-1.39-2.089-.09-.172-.178-.345-.284-.508-.378-.581-.691-1.2-1.04-1.797a51.385 51.385 0 0 1-2.712-4.854c-.626-1.296-1.232-2.605-1.726-3.957-.246-.47-.361-.987-.569-1.471a32.284 32.284 0 0 1-1.237-4.666c-.105-.7-.245-1.399-.26-2.11-.051-.365-.02-.736-.078-1.1-.013-.134.01-.265.015-.396.025-.84.098-1.68.268-2.504.04-.468.213-.909.31-1.365.04-.21.157-.394.207-.6.206-.804.587-1.546.948-2.289.294-.6.68-1.146 1.04-1.707.67-.99 1.446-1.902 2.262-2.773a20.305 20.305 0 0 1 1.562-1.56c.362-.383.792-.692 1.172-1.054.354-.346.784-.6 1.146-.936.958-.796 1.975-1.517 2.991-2.236.389-.249.742-.553 1.153-.765.553-.367 1.1-.746 1.679-1.074.828-.514 1.706-.941 2.524-1.472a51.419 51.419 0 0 1 3.434-1.921c.466-.2.896-.473 1.366-.665.637-.326 1.306-.583 1.95-.891.73-.275 1.444-.586 2.171-.866a10.97 10.97 0 0 0 1.019-.365c.963-.276 1.912-.608 2.893-.823.436-.14.894-.175 1.339-.276.33-.054.656-.14.988-.193.35-.062.71-.036 1.06-.1a2.29 2.29 0 0 1 .444-.03l.011.002c.064-.002.113 0 .17-.002.056.003.115 0 .17 0 .028-.001.043 0 .07-.002l.024-.002c.093-.009.179-.01.277-.017.234.013.471-.008.706-.011.644.048 1.29.064 1.925.19v0z" stroke="#fff" stroke-width="1.2" stroke-miterlimit="22.926"/><path d="M82.123 59.336l1.467-3.699h.976l-2.254 5.31c-.152.339-.294.58-.425.722a1.36 1.36 0 0 1-.464.325 1.73 1.73 0 0 1-.661.109c-.23 0-.378-.013-.442-.04l.026-.665.398.018c.307 0 .534-.148.683-.442l.11-.228.166-.39-2.171-4.719h.94l1.651 3.7zm7.378 2.675h-.81v-4.067h-2.18v4.067h-.814v-4.737h3.804v4.737zm5.929-2.316c0 .721-.165 1.302-.495 1.742-.33.441-.776.662-1.34.662-.574 0-1.026-.183-1.356-.548v2.281h-.81v-6.558h.74l.04.526c.329-.409.787-.613 1.374-.613.569 0 1.018.214 1.348.643.333.43.5 1.026.5 1.79v.075zm-.81-.092c0-.534-.114-.956-.341-1.265a1.1 1.1 0 0 0-.937-.464c-.49 0-.858.218-1.103.652v2.264c.242.431.613.648 1.112.648.388 0 .696-.154.924-.46.23-.31.345-.768.345-1.375zm5.395 2.408c-.046-.093-.085-.26-.114-.5a1.803 1.803 0 0 1-1.348.587c-.467 0-.85-.13-1.151-.393a1.29 1.29 0 0 1-.447-1.007c0-.493.187-.876.56-1.147.377-.275.905-.412 1.585-.412h.788v-.372c0-.283-.084-.508-.254-.674-.169-.17-.418-.254-.748-.254a1.18 1.18 0 0 0-.727.219c-.196.146-.293.322-.293.53h-.814c0-.237.083-.464.249-.683a1.73 1.73 0 0 1 .683-.526 2.32 2.32 0 0 1 .95-.192c.546 0 .973.137 1.283.411.309.272.469.647.481 1.125v2.18c0 .435.056.781.166 1.038v.07h-.849zm-1.344-.617c.254 0 .495-.066.722-.197a1.19 1.19 0 0 0 .495-.512v-.972h-.635c-.992 0-1.488.29-1.488.87 0 .255.085.453.254.596.17.143.387.215.652.215zm3.999.617v-4.737h1.847c.63 0 1.113.111 1.449.333.339.219.508.541.508.968a.981.981 0 0 1-.197.595c-.132.175-.326.31-.582.403.286.067.515.198.687.394.175.195.263.429.263.7 0 .435-.161.768-.482.998-.318.23-.769.346-1.353.346h-2.14zm.809-2.08v1.428h1.34c.339 0 .591-.063.757-.189a.62.62 0 0 0 .254-.53c0-.472-.347-.708-1.042-.708h-1.309zm0-.647h1.047c.759 0 1.138-.222 1.138-.666 0-.443-.359-.672-1.077-.687h-1.108v1.353zm8.749-2.01v4.737h-.815v-4.067h-1.611l-.096 1.773c-.052.814-.19 1.397-.411 1.747-.219.35-.568.532-1.047.547h-.324v-.714l.232-.017c.263-.03.451-.181.565-.455.114-.275.187-.783.219-1.524l.088-2.027h3.2zm3.893 4.825c-.642 0-1.165-.21-1.567-.63-.403-.424-.604-.989-.604-1.695v-.149c0-.47.089-.889.267-1.256.181-.37.432-.66.753-.867.324-.21.674-.315 1.05-.315.616 0 1.095.203 1.436.608.342.406.512.987.512 1.743v.337h-3.209c.012.467.148.845.408 1.133.262.286.595.43.998.43.286 0 .528-.059.726-.176a1.82 1.82 0 0 0 .521-.464l.495.386c-.397.61-.992.915-1.786.915zm-.101-4.247c-.327 0-.601.12-.823.36-.222.236-.359.568-.411.997h2.372v-.061c-.023-.412-.134-.73-.332-.954-.199-.228-.467-.342-.806-.342zm7.387 4.159h-.81v-2.023h-2.176v2.023h-.814v-4.737h.814v2.053h2.176v-2.053h.81v4.737zm4.996-4.737h.81v4.737h-.81v-3.454l-2.184 3.454h-.81v-4.737h.81v3.459l2.184-3.459zm4.704 4.825c-.642 0-1.165-.21-1.568-.63-.402-.424-.604-.989-.604-1.695v-.149c0-.47.089-.889.267-1.256.181-.37.432-.66.753-.867.324-.21.674-.315 1.051-.315.616 0 1.094.203 1.436.608.341.406.512.987.512 1.743v.337h-3.209c.012.467.147.845.407 1.133.263.286.596.43.998.43.286 0 .529-.059.727-.176.198-.116.372-.271.521-.464l.495.386c-.397.61-.993.915-1.786.915zm-.101-4.247c-.327 0-.601.12-.823.36-.222.236-.359.568-.412.997h2.373v-.061c-.023-.412-.134-.73-.333-.954-.198-.228-.467-.342-.805-.342zm10.369 1.843c0 .721-.165 1.302-.494 1.742-.33.441-.777.662-1.34.662-.575 0-1.027-.183-1.357-.548v2.281h-.81v-6.558h.74l.039.526c.33-.409.788-.613 1.375-.613.569 0 1.018.214 1.348.643.333.43.499 1.026.499 1.79v.075zm-.81-.092c0-.534-.113-.956-.341-1.265a1.1 1.1 0 0 0-.937-.464c-.49 0-.858.218-1.103.652v2.264c.242.431.613.648 1.112.648.388 0 .696-.154.924-.46.23-.31.345-.768.345-1.375zm4.437 2.496c-.642 0-1.165-.21-1.568-.63-.402-.424-.604-.989-.604-1.695v-.149c0-.47.089-.889.267-1.256.181-.37.432-.66.753-.867.324-.21.674-.315 1.051-.315.616 0 1.094.203 1.436.608.341.406.512.987.512 1.743v.337h-3.209c.012.467.148.845.407 1.133.263.286.596.43.998.43.286 0 .529-.059.727-.176a1.82 1.82 0 0 0 .521-.464l.495.386c-.397.61-.993.915-1.786.915zm-.101-4.247c-.327 0-.601.12-.823.36-.222.236-.359.568-.412.997h2.373v-.061c-.023-.412-.134-.73-.333-.954-.198-.228-.467-.342-.805-.342zm7.391 4.159h-.81v-4.067h-2.18v4.067h-.814v-4.737h3.804v4.737zm3.477-1.186l1.104-3.55h.866l-1.904 5.467c-.295.788-.763 1.182-1.405 1.182l-.153-.013-.302-.057v-.657l.218.018c.275 0 .488-.056.64-.167.154-.11.281-.313.38-.608l.18-.481-1.69-4.685h.884l1.182 3.55zm6.844-2.894h-1.589v4.08h-.81v-4.08h-1.558v-.657h3.957v.657zm4.27 4.08c-.047-.093-.085-.26-.114-.5a1.806 1.806 0 0 1-1.348.587c-.467 0-.851-.13-1.151-.393a1.29 1.29 0 0 1-.447-1.007c0-.493.187-.876.56-1.147.377-.275.905-.412 1.585-.412h.788v-.372c0-.283-.085-.508-.254-.674-.169-.17-.419-.254-.748-.254-.289 0-.532.073-.727.219-.196.146-.293.322-.293.53h-.815c0-.237.084-.464.25-.683.169-.222.397-.397.683-.526.289-.128.605-.192.95-.192.546 0 .973.137 1.282.411.31.272.47.647.482 1.125v2.18c0 .435.055.781.166 1.038v.07h-.849zm-1.344-.617c.254 0 .495-.066.722-.197a1.19 1.19 0 0 0 .495-.512v-.972h-.635c-.992 0-1.488.29-1.488.87 0 .255.085.453.254.596.169.143.387.215.652.215zm3.994-4.12h.814v4.076h2.18v-4.076h.81v4.076h.565l-.079 2.066h-.726v-1.405h-3.564v-4.737zm8.936 0h.81v4.737h-.81v-3.454l-2.184 3.454h-.81v-4.737h.81v3.459l2.184-3.459zm4.704 4.825c-.642 0-1.165-.21-1.568-.63-.402-.424-.604-.989-.604-1.695v-.149c0-.47.089-.889.267-1.256.181-.37.432-.66.753-.867.324-.21.675-.315 1.051-.315.616 0 1.094.203 1.436.608.341.406.512.987.512 1.743v.337h-3.209c.012.467.148.845.407 1.133.263.286.596.43.998.43.286 0 .529-.059.727-.176a1.82 1.82 0 0 0 .521-.464l.495.386c-.397.61-.992.915-1.786.915zm-.101-4.247c-.327 0-.601.12-.823.36-.222.236-.359.568-.411.997h2.372v-.061c-.023-.412-.134-.73-.333-.954-.198-.228-.466-.342-.805-.342zm6.581-.578h.81v4.737h-.81v-3.454l-2.184 3.454h-.81v-4.737h.81v3.459l2.184-3.459zm.219-1.724c0 .353-.121.637-.363.853-.24.213-.555.32-.946.32-.391 0-.708-.108-.95-.324-.242-.216-.363-.5-.363-.85h.661c0 .205.055.365.166.482.111.114.273.17.486.17.204 0 .364-.056.477-.17.117-.114.175-.274.175-.481h.657z" fill="#252525"/></svg>