<svg width="41" height="27" fill="none" xmlns="http://www.w3.org/2000/svg"><path d="M5.148 19.124L2.268 26H0L11.052.512h2.052L23.94 26h-2.268l-2.88-6.876H5.148zm6.876-16.452l-6.12 14.58h12.132l-6.012-14.58zm20.248 23.796c-1.488 0-2.82-.42-3.996-1.26-1.177-.84-1.764-2.088-1.764-3.744 0-1.152.276-2.112.828-2.88.576-.792 1.38-1.368 2.412-1.728a15.252 15.252 0 0 1 3.204-.792c1.08-.144 2.327-.216 3.743-.216h1.693v-.756c0-3.12-1.585-4.68-4.753-4.68-1.968 0-3.636.66-5.004 1.98l-1.08-1.296c1.585-1.536 3.672-2.304 6.264-2.304 1.944 0 3.505.516 4.68 1.548 1.176 1.032 1.764 2.544 1.764 4.536v7.344c0 1.512.096 2.772.288 3.78h-1.764c-.191-1.152-.288-2.184-.288-3.096h-.072c-1.32 2.376-3.371 3.564-6.155 3.564zm.468-1.62c1.823 0 3.215-.588 4.175-1.764.985-1.2 1.477-2.64 1.477-4.32v-1.368h-1.26c-5.736 0-8.604 1.32-8.604 3.96 0 1.2.408 2.088 1.224 2.664.84.552 1.835.828 2.988.828z" fill="#fff"/></svg>