<svg width="697" height="527" viewBox="0 0 697 527" fill="none" xmlns="http://www.w3.org/2000/svg">
<path d="M201.083 0V7.4934V135.281H357.344V7.4934V0H201.083Z" fill="url(#paint0_linear)"/>
<path d="M356.344 0H202.083V4.36987H356.344V0Z" fill="#535461"/>
<path d="M356.344 4.24683H202.083V133.581H356.344V4.24683Z" fill="#EDEDF4"/>
<path d="M349.528 24.3726H209.292V111.908H349.528V24.3726Z" fill="white"/>
<path d="M204.953 2.86972C205.365 2.86972 205.7 2.53561 205.7 2.12346C205.7 1.71131 205.365 1.3772 204.953 1.3772C204.541 1.3772 204.207 1.71131 204.207 2.12346C204.207 2.53561 204.541 2.86972 204.953 2.86972Z" fill="#FA595F"/>
<path d="M207.199 2.86972C207.612 2.86972 207.946 2.53561 207.946 2.12346C207.946 1.71131 207.612 1.3772 207.199 1.3772C206.787 1.3772 206.453 1.71131 206.453 2.12346C206.453 2.53561 206.787 2.86972 207.199 2.86972Z" fill="#FFC74C"/>
<path d="M209.445 2.86972C209.858 2.86972 210.192 2.53561 210.192 2.12346C210.192 1.71131 209.858 1.3772 209.445 1.3772C209.033 1.3772 208.699 1.71131 208.699 2.12346C208.699 2.53561 209.033 2.86972 209.445 2.86972Z" fill="#85D459"/>
<path d="M223.702 31.8735V100.476H337.157" stroke="#535461" stroke-width="2" stroke-miterlimit="10"/>
<path opacity="0.5" d="M245.459 79.7271H233.742V97.7989H245.459V79.7271Z" fill="#6E1866"/>
<path opacity="0.7" d="M265.538 63.6631H253.821V97.7988H265.538V63.6631Z" fill="#6E1866"/>
<path opacity="0.5" d="M285.618 73.3721H273.901V97.8064H285.618V73.3721Z" fill="#6E1866"/>
<path opacity="0.8" d="M305.706 58.3086H293.989V97.799H305.706V58.3086Z" fill="#6E1866"/>
<path d="M325.785 44.2527H314.068V97.799H325.785V44.2527Z" fill="#6E1866"/>
<path d="M239.435 68.6868L259.845 50.2764L279.933 67.679L299.674 46.599L319.754 38.2285" stroke="#535461" stroke-width="2" stroke-miterlimit="10"/>
<path d="M239.435 71.0333C240.731 71.0333 241.782 69.9828 241.782 68.6868C241.782 67.3909 240.731 66.3403 239.435 66.3403C238.139 66.3403 237.089 67.3909 237.089 68.6868C237.089 69.9828 238.139 71.0333 239.435 71.0333Z" fill="#6E1866"/>
<path d="M279.595 69.6949C280.89 69.6949 281.941 68.6444 281.941 67.3485C281.941 66.0525 280.89 65.002 279.595 65.002C278.299 65.002 277.248 66.0525 277.248 67.3485C277.248 68.6444 278.299 69.6949 279.595 69.6949Z" fill="#6E1866"/>
<path d="M300.013 48.9457C301.308 48.9457 302.359 47.8951 302.359 46.5992C302.359 45.3032 301.308 44.2527 300.013 44.2527C298.717 44.2527 297.666 45.3032 297.666 46.5992C297.666 47.8951 298.717 48.9457 300.013 48.9457Z" fill="#6E1866"/>
<path d="M259.846 52.2924C261.141 52.2924 262.192 51.2418 262.192 49.9459C262.192 48.6499 261.141 47.5994 259.846 47.5994C258.55 47.5994 257.499 48.6499 257.499 49.9459C257.499 51.2418 258.55 52.2924 259.846 52.2924Z" fill="#6E1866"/>
<path d="M319.755 40.5748C321.051 40.5748 322.101 39.5243 322.101 38.2283C322.101 36.9324 321.051 35.8818 319.755 35.8818C318.459 35.8818 317.408 36.9324 317.408 38.2283C317.408 39.5243 318.459 40.5748 319.755 40.5748Z" fill="#6E1866"/>
<path d="M346.404 527C537.718 527 692.809 482.69 692.809 428.032C692.809 373.373 537.718 329.063 346.404 329.063C155.09 329.063 0 373.373 0 428.032C0 482.69 155.09 527 346.404 527Z" fill="#F5F5F5"/>
<path d="M420.385 237.419C420.385 237.419 429.955 190.42 466.545 194.775C466.545 194.775 491.787 196.513 497.011 213.054V249.606L420.385 237.419Z" fill="#535461"/>
<path d="M506.059 160.008C501.766 159.523 497.696 157.7 493.695 155.915C486.971 152.876 480.086 149.668 474.885 144.029C467.068 135.566 464.23 123.072 458.729 112.586C456.693 108.478 453.968 104.749 450.674 101.561C447.948 99.081 444.79 97.1226 441.357 95.7832C434.611 93.1025 427.146 92.8308 420.223 95.0138L424.07 94.3753L407.614 99.6299C405.567 100.292 403.321 101.13 402.282 103.2C401.243 105.269 401.905 108.231 403.382 110.124C404.859 112.016 406.937 113.116 408.952 114.178L410.683 115.086C409.278 118.378 408.742 121.976 409.126 125.535C409.51 129.094 410.801 132.495 412.876 135.412V152.284C408.81 153.75 404.47 154.302 400.166 153.899C398.983 154.293 397.893 154.927 396.966 155.761C394.958 157.3 392.411 160.377 391.373 166.063C389.626 175.649 369.831 208.3 367.769 211.654L335.457 220.117L335.649 220.301L335.026 220.463C335.026 220.463 335.28 220.701 335.68 221.125C332.033 221.371 325.617 221.355 320.516 218.955C315.285 216.493 306.884 219.016 302.206 220.801C301.855 220.936 301.549 221.167 301.323 221.469C301.098 221.77 300.963 222.129 300.933 222.504C300.903 222.879 300.98 223.255 301.155 223.588C301.33 223.921 301.596 224.198 301.921 224.387C308.219 227.961 315.281 229.974 322.517 230.257C330.41 230.672 336.873 230.726 341.296 230.68C341.4 231.347 341.365 232.029 341.195 232.683C341.024 233.337 340.721 233.949 340.304 234.48L378.917 228.956C380.048 228.31 381.117 227.561 382.11 226.718C384.485 224.831 386.531 222.564 388.165 220.009L396.481 209.138C397.004 211.015 402.428 230.941 400.605 237.55L398.658 244.874L410.029 246.051V245.805L444.442 250.421V249.652H444.504L444.65 243.197L484.54 241.912C484.54 241.912 491.464 236.288 488.441 227.295C485.417 218.301 486.533 192.228 486.533 192.228C485.491 184.998 483.909 177.857 481.801 170.863C490.616 169.604 499.223 167.178 507.397 163.647C511.367 161.939 515.375 159.869 518.168 156.261C514.968 159.492 510.352 160.493 506.059 160.008Z" fill="url(#paint1_linear)"/>
<path d="M445.08 115.786H412.768V165.793H445.08V115.786Z" fill="#FE5858"/>
<path opacity="0.1" d="M445.08 115.786H412.768V165.793H445.08V115.786Z" fill="black"/>
<path d="M419.453 134.166C421.465 136.789 422.709 139.92 423.046 143.208C423.382 146.497 422.799 149.815 421.361 152.791C416.422 163.408 419.446 178.695 423.423 181.026C427.401 183.357 443.195 186.535 448.127 179.749C453.058 172.964 452.781 153.361 451.158 150.514C449.535 147.668 437.502 145.26 438.017 129.188L419.453 134.166Z" fill="#F2B08D"/>
<path opacity="0.1" d="M417.384 153.915C417.384 153.915 423.724 196.413 445.188 167.163L443.411 247.174L404.598 241.997L417.384 153.915Z" fill="black"/>
<path d="M417.33 154.676C417.33 154.676 423.67 197.175 445.134 167.924L443.357 247.936L404.544 242.758L417.33 154.676Z" fill="#F1C413"/>
<path d="M441.026 229.649C441.026 229.649 429.355 231.126 421.277 227.602C421.277 227.602 405.89 231.764 407.428 235.38C408.967 238.996 444.272 239.227 444.272 239.227L441.026 229.649Z" fill="#F2B08D"/>
<path d="M340.757 219.286C340.757 219.286 330.609 220.917 323.285 217.47C318.223 215.085 310.083 217.532 305.544 219.263C305.205 219.394 304.909 219.618 304.692 219.91C304.474 220.201 304.344 220.548 304.315 220.911C304.286 221.273 304.36 221.637 304.528 221.959C304.697 222.281 304.953 222.549 305.267 222.733C311.367 226.194 318.208 228.144 325.216 228.418C340.111 229.187 349.758 228.664 349.758 228.664L340.757 219.286Z" fill="#F2B08D"/>
<path opacity="0.1" d="M438.379 173.748L432.471 230.68L437.948 229.71C437.948 229.71 446.411 236.734 439.087 240.958L481.455 239.65C481.455 239.65 488.163 234.203 485.232 225.456C482.301 216.708 483.386 191.482 483.386 191.482C483.386 191.482 479.024 159.554 470.361 157.884C470.361 157.884 452.843 154.453 442.611 143.067L438.379 173.748Z" fill="black"/>
<path d="M439.141 173.826L433.232 230.757L438.71 229.788C438.71 229.788 447.173 236.812 439.849 241.035L482.217 239.674C482.217 239.674 488.925 234.227 485.994 225.479C483.063 216.732 484.148 191.505 484.148 191.505C484.148 191.505 479.785 159.577 471.123 157.908C471.123 157.908 453.605 154.477 443.372 143.09L439.141 173.826Z" fill="#39447A"/>
<path opacity="0.1" d="M422.461 147.721C422.461 147.721 412.568 156.099 400.035 154.799C400.035 154.799 393.719 156.446 391.942 166.247C390.164 176.048 368.915 210.684 368.915 210.684L337.372 218.924C337.372 218.924 346.458 227.54 342.488 232.51L379.894 227.179C383.346 225.123 386.262 222.278 388.403 218.878L396.865 207.853C396.865 207.853 402.751 228.81 400.904 235.549L399.02 242.65L410.037 243.797C410.037 243.797 410.575 215.931 413.168 205.106C414.291 200.421 415.26 195.713 415.968 190.951C417.768 178.795 420.584 160.308 421.638 157.869L422.461 147.721Z" fill="black"/>
<path d="M422.884 147.383C422.884 147.383 412.99 155.792 400.458 154.461C400.458 154.461 394.141 156.107 392.364 165.909C390.587 175.71 369.33 210.354 369.33 210.354L337.787 218.593C337.787 218.593 346.873 227.21 342.903 232.18L380.309 226.848C383.775 224.789 386.702 221.936 388.848 218.524L397.311 207.499C397.311 207.499 403.197 228.456 401.35 235.196L399.465 242.297L410.459 243.404C410.459 243.404 410.998 215.539 413.59 204.714C414.714 200.029 415.683 195.321 416.391 190.558C418.191 178.403 421.007 159.915 422.061 157.477L422.884 147.383Z" fill="#39447A"/>
<path opacity="0.1" d="M441.072 139.828C439.264 136.974 437.717 135.758 437.894 130.319L419.338 135.304C421.534 138.172 422.813 141.637 423.008 145.244C424.322 145.66 425.675 145.941 427.047 146.083C432.117 146.614 437.217 142.551 441.072 139.828Z" fill="black"/>
<path d="M449.357 126.892C450.51 115.777 442.433 105.832 431.318 104.68C420.203 103.527 410.258 111.603 409.105 122.718C407.953 133.834 416.029 143.779 427.144 144.931C438.26 146.084 448.205 138.007 449.357 126.892Z" fill="#F2B08D"/>
<path opacity="0.1" d="M400.374 183.05C400.374 183.05 404.036 188.435 401.789 191.643C399.543 194.852 399.027 199.798 399.85 202.96" fill="black"/>
<path opacity="0.1" d="M459.567 182.28C459.567 182.28 466.33 213.308 464.499 216.193L459.567 182.28Z" fill="black"/>
<path opacity="0.1" d="M444.265 224.964C444.265 224.964 463.437 226.441 462.344 222.102L444.265 224.964Z" fill="black"/>
<path d="M419.885 97.3216C426.594 95.2167 433.824 95.4884 440.357 98.091C443.692 99.3943 446.759 101.301 449.404 103.715C452.595 106.803 455.234 110.415 457.205 114.393C462.514 124.556 465.268 136.666 472.838 144.859C477.878 150.314 484.548 153.43 491.064 156.399C494.911 158.146 498.881 159.9 503.043 160.369C507.205 160.839 511.675 159.869 514.775 156.746C512.098 160.238 508.213 162.246 504.366 163.901C489.223 170.436 472.656 172.971 456.251 171.263C451.635 170.771 447.019 169.925 442.742 167.878C439.664 166.401 436.679 164.085 435.464 160.615C432.663 152.614 440.526 144.121 439.049 135.681C438.279 131.35 435.133 127.988 431.625 125.91C428.117 123.833 424.201 122.833 420.454 121.448C416.517 119.855 412.681 118.023 408.968 115.963C407.013 114.932 404.998 113.847 403.582 112.031C402.167 110.216 401.466 107.415 402.52 105.346C403.574 103.276 405.706 102.53 407.683 101.884L423.631 96.7215" fill="#FE5858"/>
<path d="M620.56 254.829L295.051 227.849L253.275 236.55L255.883 294.866L258.738 295.212L261.977 382.771L581.4 440.21L615.344 411.491V316.562L619.69 314.015L620.56 254.829Z" fill="#EDEDF4"/>
<path opacity="0.05" d="M620.998 254.83L620.128 314.015L584.877 330.548L584.438 268.755L620.998 254.83Z" fill="black"/>
<path opacity="0.05" d="M615.344 316.623L615.774 409.752L581.831 438.472L584.008 330.548L615.344 316.623Z" fill="black"/>
<path opacity="0.05" d="M259.168 298.69L584.269 338.365L584.439 330.84L258.93 295.735L259.168 298.69Z" fill="black"/>
<path opacity="0.05" d="M615.343 320.039V316.623L583.139 330.841V338.38L615.343 320.039Z" fill="black"/>
<path d="M252.837 236.55L294.612 227.849L620.129 254.829L583.57 268.755L252.837 236.55Z" fill="#F4F4F8"/>
<path d="M653.733 375.055C667.572 375.055 678.791 370.935 678.791 365.853C678.791 360.771 667.572 356.652 653.733 356.652C639.894 356.652 628.676 360.771 628.676 365.853C628.676 370.935 639.894 375.055 653.733 375.055Z" fill="#CD9494"/>
<path opacity="0.05" d="M653.734 369.523C660.796 369.523 666.52 367.422 666.52 364.83C666.52 362.238 660.796 360.137 653.734 360.137C646.672 360.137 640.947 362.238 640.947 364.83C640.947 367.422 646.672 369.523 653.734 369.523Z" fill="black"/>
<path d="M628.684 363.807C628.684 363.807 656.296 379.147 678.799 365.853C678.799 365.853 675.721 419.03 660.388 424.146H639.932C639.932 424.146 622.544 388.349 628.684 363.807Z" fill="#FF7361"/>
<path d="M675.376 266.362C682.4 292.05 652.434 365.23 652.434 365.23C652.434 365.23 589.348 317.531 582.354 291.812C579.126 279.524 580.877 266.459 587.228 255.455C593.578 244.451 604.014 236.398 616.268 233.045C628.523 229.693 641.605 231.311 652.673 237.55C663.74 243.788 671.899 254.142 675.376 266.362Z" fill="#6E1866"/>
<path opacity="0.1" d="M675.376 266.362C682.4 292.05 652.434 365.23 652.434 365.23C652.434 365.23 589.348 317.531 582.354 291.812C579.126 279.524 580.877 266.459 587.228 255.455C593.578 244.451 604.014 236.398 616.268 233.045C628.523 229.693 641.605 231.311 652.673 237.55C663.74 243.788 671.899 254.142 675.376 266.362Z" fill="black"/>
<path d="M616.397 232.726C616.397 232.726 655.634 291.965 652.687 365.376" stroke="#535461" stroke-miterlimit="10"/>
<path d="M685.392 313.315C685.392 313.315 649.802 293.958 654.341 365.422C654.341 365.422 684.03 364.361 694.563 340.142C696.621 335.432 696.881 330.13 695.293 325.241C693.705 320.353 690.379 316.216 685.946 313.615L685.392 313.315Z" fill="#6E1866"/>
<path d="M685.977 313.438C685.977 313.438 681.361 350.536 654.311 365.422" stroke="#535461" stroke-miterlimit="10"/>
<path opacity="0.05" d="M675.445 367.592C674.406 379.825 670.167 417.823 657.319 422.1H638.955C639.54 423.408 639.894 424.147 639.894 424.147H660.351C675.691 419.031 678.761 365.854 678.761 365.854C677.685 366.488 676.579 367.069 675.445 367.592Z" fill="black"/>
<path d="M531.785 141.682C547.646 141.682 560.505 128.824 560.505 112.963C560.505 97.1014 547.646 84.2432 531.785 84.2432C515.924 84.2432 503.065 97.1014 503.065 112.963C503.065 128.824 515.924 141.682 531.785 141.682Z" fill="#535461"/>
<path d="M531.785 137.335C545.246 137.335 556.158 126.423 556.158 112.963C556.158 99.5019 545.246 88.5898 531.785 88.5898C518.324 88.5898 507.412 99.5019 507.412 112.963C507.412 126.423 518.324 137.335 531.785 137.335Z" fill="#EDEDF4"/>
<path d="M531.786 114.701C532.746 114.701 533.524 113.923 533.524 112.962C533.524 112.002 532.746 111.224 531.786 111.224C530.825 111.224 530.047 112.002 530.047 112.962C530.047 113.923 530.825 114.701 531.786 114.701Z" fill="#535461"/>
<path d="M542.233 94.6831L531.785 112.963" stroke="#535461" stroke-miterlimit="10" stroke-linecap="round"/>
<path d="M532.285 113.155L542.664 118.617" stroke="#535461" stroke-width="2" stroke-miterlimit="10" stroke-linecap="round"/>
<path d="M156.515 431.655C153.53 429.809 151.953 425.177 151.13 421.284L153.046 420.631C153.046 420.631 146.791 355.836 145.406 352.39C144.021 348.943 142.629 336.534 142.629 336.534L140.375 268.955C150.753 265.185 155.115 257.891 156.585 254.699C157.115 253.759 157.558 252.773 157.908 251.752C143.29 233.834 131.512 185.589 131.512 185.589L133.489 180.496L134.358 178.257C137.259 190.489 150.268 195.952 150.268 195.952L150.076 194.159C150.591 194.413 150.907 194.551 150.953 194.567C153.684 196.59 156.585 197.644 159.3 196.644C167.825 193.39 167.686 178.472 167.64 176.81C167.64 175.849 167.64 175.272 167.64 175.272L159.293 144.252C159.075 145.819 158.717 147.364 158.223 148.868C157.739 142.444 157.123 130.404 158.6 123.564C160.239 115.963 144.214 121.195 140.051 130.157C138.572 128.165 136.659 126.534 134.457 125.388C132.256 124.242 129.823 123.61 127.342 123.541C112.817 122.918 102.885 113.74 101.184 112.086C100.812 110.515 100.527 108.925 100.33 107.323C103.157 104.795 105.303 101.596 106.571 98.0217C107.839 94.4471 108.187 90.6112 107.585 86.8666C107.959 86.6987 108.324 86.5112 108.678 86.3049C113.832 83.2276 115.486 76.6343 115.809 70.6796C115.809 70.3718 115.809 70.041 115.809 69.7102C115.886 67.733 115.433 65.2865 113.501 64.8864C110.97 64.3556 109.116 68.1638 106.577 67.7561C105.799 67.5721 105.097 67.1499 104.569 66.5482C102.823 64.8172 101.646 62.5938 99.9149 60.8628C97.3299 58.2778 93.6524 56.9622 89.9903 56.6468C86.3183 56.4488 82.6371 56.7935 79.0657 57.67C77.0985 57.991 75.1981 58.6357 73.4418 59.578C72.5723 60.0505 71.818 60.7093 71.2328 61.5073C70.6476 62.3053 70.246 63.2227 70.0567 64.194C70.0087 64.6128 69.9958 65.0348 70.0182 65.4557C70.0182 66.0943 70.0182 66.7482 70.072 67.3868C70.0635 67.6658 70.0326 67.9436 69.9797 68.2177C69.6104 70.0256 68.1179 71.4105 66.5254 72.3568C64.9328 73.303 63.1557 73.9647 61.6554 75.0495C59.2576 76.895 57.592 79.5311 56.9548 82.489C56.5695 84.1558 56.3938 85.8641 56.4316 87.5744C56.4126 89.1175 56.5026 90.66 56.7009 92.1904C57.3348 97.3403 58.7812 102.357 60.9861 107.054C61.7125 108.706 62.6486 110.257 63.7711 111.67C65.4189 113.466 67.3123 115.02 69.395 116.286C70.2413 116.856 71.2491 117.44 72.2185 117.125C72.5012 117.02 72.762 116.863 72.9879 116.663C74.4188 115.478 74.9035 113.586 74.8574 111.693C74.8574 111.893 74.9189 112.101 74.942 112.293L75.0805 112.355C75.1799 113.599 75.1799 114.85 75.0805 116.094C73.7957 117.186 65.079 124.449 55.3237 128.465C52.0216 129.834 49.0656 131.921 46.6703 134.574C44.275 137.228 42.5005 140.381 41.4756 143.806C40.0028 148.829 37.7994 153.609 34.9362 157.992C33.5437 160.062 27.2966 188.32 23.1267 193.836C19.6416 198.452 33.6667 223.84 43.6297 233.596L44.076 234.019C46.384 236.434 48.5074 238.119 50.2307 238.635C49.9845 237.072 49.8559 235.493 49.846 233.911C50.977 235.45 52.0694 236.95 53.0542 238.435C52.6464 240.612 52.1694 242.751 51.6155 244.836C44.6914 270.993 48.8382 271.717 48.8382 271.717C48.8382 271.717 49.0459 271.817 49.4075 271.955C49.7691 273.009 50.223 273.094 50.223 273.094C50.223 273.094 50.4384 273.201 50.8308 273.348C51 303.513 55.7777 336.511 55.7777 336.511C55.7777 336.511 51.6078 377.87 53.6927 385.448C55.7777 393.027 53.6927 425.454 53.6927 425.454L55.116 425.831C54.3467 429.924 52.808 434.948 49.5229 437.864C43.2682 443.38 37.0211 453.028 45.3531 455.782C53.685 458.536 64.802 456.474 66.1869 448.196L66.8793 441.995L76.6038 438.549L74.942 427.008C77.6809 422.631 74.5188 400.635 74.5188 400.635C74.5188 400.635 76.6038 393.05 79.3811 348.251C79.458 346.989 79.5504 345.766 79.6427 344.55C79.6427 344.196 79.6965 343.85 79.7273 343.504C79.8042 342.586 79.8863 341.681 79.9735 340.788C79.9735 340.48 80.035 340.165 80.0658 339.857C80.1812 338.711 80.3043 337.549 80.4351 336.464C80.4351 336.295 80.4813 336.126 80.4966 335.957C80.6146 335.008 80.7351 334.074 80.8582 333.156L80.989 332.202C81.107 331.366 81.2301 330.546 81.3583 329.74C81.3583 329.502 81.4275 329.263 81.466 329.033C81.6301 328.007 81.7994 327.014 81.9738 326.055L82.0969 325.401C82.2354 324.637 82.379 323.883 82.5277 323.139L82.697 322.301C82.856 321.521 83.0175 320.752 83.1817 319.993L83.274 319.562C83.474 318.677 83.674 317.816 83.8741 316.977L84.0356 316.308C84.1946 315.667 84.3536 315.038 84.5126 314.423L84.6973 313.723C84.905 312.953 85.1127 312.184 85.3281 311.415V311.353C85.5435 310.584 85.7666 309.861 85.9898 309.137L86.1821 308.514C86.3513 307.976 86.5206 307.447 86.6899 306.929L86.8745 306.375C87.0976 305.706 87.3207 305.052 87.5438 304.421L87.6438 304.152C87.8387 303.608 88.0336 303.077 88.2285 302.559L88.4286 302.029C88.603 301.567 88.7773 301.118 88.9517 300.682L89.1133 300.282C89.3338 299.733 89.5544 299.203 89.7749 298.69L89.9211 298.351C90.0955 297.946 90.2699 297.551 90.4443 297.166L90.6443 296.728C90.8238 296.338 91.0007 295.959 91.1751 295.589L91.2828 295.351C91.4906 294.912 91.6983 294.497 91.8983 294.097L92.0676 293.774L92.5138 292.904L92.6907 292.573L93.2139 291.604V291.535L93.7447 290.604L93.8986 290.342C94.7176 288.889 95.6461 287.5 96.6759 286.188C96.6759 286.188 121.087 345.497 120.418 355.821C119.749 366.146 124.588 388.903 124.588 388.903C124.588 388.903 126.673 396.489 127.365 401.312C127.957 405.413 131.558 421.454 132.62 426.185L132.789 426.955V427.039L132.835 427.247V427.362V427.432L132.158 435.794L141.19 441.31C146.052 455.097 156.469 454.389 164.809 450.958C173.149 447.527 162.07 435.063 156.515 431.655ZM146.345 151.284L146.237 151.191V151.061L146.345 151.284ZM55.3545 213.039C54.8544 212.623 54.339 212.162 53.8158 211.669C53.2311 211.054 52.6618 210.4 52.131 209.708L52.5003 210.108C53.0388 210.615 53.5773 211.092 54.0928 211.515C54.1714 203.614 53.853 195.713 53.1388 187.843C53.4773 187.273 53.7851 186.773 54.062 186.358C55.0125 195.219 55.444 204.128 55.3545 213.039Z" fill="url(#paint2_linear)"/>
<path d="M74.6728 107.562V107.731L74.5112 107.493L74.6728 107.562ZM53.662 209.5C50.8693 206.53 48.3613 202.645 48.6844 198.452C49.1922 191.89 52.2542 186.427 53.9082 183.911C54.8631 192.867 55.2972 201.871 55.2084 210.877C54.7084 210.462 54.1852 209.992 53.662 209.5ZM146.406 148.252L146.522 148.46L146.414 148.368L146.406 148.252Z" fill="url(#paint3_linear)"/>
<path d="M148.76 410.444C148.76 410.444 149.437 423.285 154.838 426.662C160.239 430.04 171.056 442.203 162.947 445.58C154.838 448.958 144.706 449.635 139.974 436.125L131.188 430.74L132.543 413.814L148.76 410.444Z" fill="#1A2246"/>
<path d="M56.8697 414.483C56.8697 414.483 56.8697 427.324 50.7919 432.725C44.7141 438.125 38.6286 447.588 46.7375 450.289C54.8464 452.989 65.6556 450.966 67.0097 442.857L67.6867 436.779L77.1419 433.402L74.4415 414.483H56.8697Z" fill="#1A2246"/>
<path d="M138.627 251.66L141.328 333.41C141.328 333.41 142.682 345.574 144.028 348.951C145.375 352.328 151.46 415.83 151.46 415.83L131.865 422.585C131.865 422.585 127.133 401.643 126.48 396.912C125.826 392.18 123.779 384.748 123.779 384.748C123.779 384.748 119.048 362.438 119.725 352.321C120.402 342.204 96.7521 284.08 96.7521 284.08C96.7521 284.08 82.5655 301.006 79.8266 344.858C77.0877 388.711 75.0951 396.204 75.0951 396.204C75.0951 396.204 78.4725 419.854 75.0951 422.554C71.7177 425.254 54.823 420.531 54.823 420.531C54.823 420.531 56.8463 388.78 54.823 381.348C52.7996 373.916 56.8463 333.379 56.8463 333.379C56.8463 333.379 44.0368 244.267 60.2545 226.664L130.519 221.956L138.627 251.66Z" fill="#3B477B"/>
<g opacity="0.1">
<path opacity="0.1" d="M147.406 415.83C147.406 415.83 141.328 352.32 139.974 348.943C138.62 345.566 137.274 333.402 137.274 333.402L134.573 251.66L126.572 222.201L130.55 221.932L138.659 251.66L141.359 333.41C141.359 333.41 142.713 345.573 144.059 348.951C145.406 352.328 151.461 415.83 151.461 415.83L131.865 422.584L131.573 421.284L147.406 415.83Z" fill="black"/>
<path opacity="0.1" d="M71.0644 422.592C74.4418 419.892 71.0644 396.242 71.0644 396.242C71.0644 396.242 73.0878 388.81 75.7959 344.896C78.504 300.982 92.7214 284.118 92.7214 284.118C92.7214 284.118 93.2907 285.511 94.2601 287.903C90.0518 295.027 81.8814 312.699 79.9042 344.927C77.2038 388.841 75.1727 396.273 75.1727 396.273C75.1727 396.273 78.5501 419.923 75.1727 422.623C74.1187 423.469 71.7414 423.585 68.9795 423.354C69.7281 423.282 70.4459 423.02 71.0644 422.592Z" fill="black"/>
</g>
<path d="M100.791 92.2134C100.791 92.2134 95.4058 116.532 110.246 129.373C125.087 142.213 75.1105 152.345 66.3323 141.536C57.5541 130.727 72.4101 125.318 72.4101 125.318C72.4101 125.318 79.842 119.24 72.4101 100.999L100.791 92.2134Z" fill="#E0A17E"/>
<path d="M104.846 119.241L87.282 138.159L73.6646 120.033L62.2783 174.656L66.3328 238.112C66.3328 238.112 98.7606 246.898 117.002 230.003L111.616 171.225L104.846 119.241Z" fill="#F0F1F5"/>
<path opacity="0.1" d="M106.192 235.45L108.877 244.266C108.877 244.266 77.1265 249.652 66.3096 246.967L69.01 237.512C69.01 237.512 98.7605 244.905 106.192 235.45Z" fill="black"/>
<path d="M106.192 234.096L108.877 242.882C108.877 242.882 77.1265 248.267 66.3096 245.582L69.01 236.127C69.01 236.127 98.7605 243.551 106.192 234.096Z" fill="#1A2246"/>
<path opacity="0.1" d="M100.115 114.509C100.115 114.509 110.247 125.318 125.788 125.995C141.329 126.672 143.352 145.59 143.352 145.59L148.737 195.598C148.737 195.598 135.897 190.212 133.197 178.033L129.819 186.819C129.819 186.819 141.306 234.111 155.492 251.683C155.492 251.683 149.414 271.955 119.687 269.247C119.687 269.247 103.469 261.815 104.146 242.897L98.8764 213.277C97.0064 202.872 96.2329 192.3 96.5683 181.734L100.115 114.509Z" fill="black"/>
<path d="M100.792 113.155C100.792 113.155 110.924 123.964 126.465 124.641C142.005 125.318 144.029 144.252 144.029 144.252L149.414 194.259C149.414 194.259 136.574 188.874 133.873 176.695L130.496 185.481C130.496 185.481 142.005 232.726 156.192 250.313C156.192 250.313 150.114 270.585 120.387 267.877C120.387 267.877 104.169 260.445 104.846 241.527L99.5375 211.954C97.6676 201.549 96.894 190.977 97.2295 180.411L100.792 113.155Z" fill="#293158"/>
<path opacity="0.1" d="M75.6032 117.794C75.6032 117.794 68.0405 126.564 57.7544 130.834C54.5394 132.188 51.6657 134.24 49.3412 136.842C47.0166 139.443 45.2995 142.528 44.314 145.875C42.886 150.796 40.7423 155.48 37.9515 159.777C36.5975 161.8 30.5197 189.504 26.4653 194.913C22.4108 200.321 42.683 234.773 51.4612 237.481C51.4612 237.481 48.0838 218.562 61.5934 216.539C61.5934 216.539 49.4301 209.107 50.1072 200.321C50.7842 191.535 56.185 184.781 56.185 184.781C56.185 184.781 60.9164 219.24 54.1616 244.912C47.4068 270.585 51.4612 271.262 51.4612 271.262C51.4612 271.262 79.1575 284.772 75.1108 221.255C71.0641 157.738 74.4338 134.096 74.4338 134.096L75.6032 117.794Z" fill="black"/>
<path d="M50.1152 236.119C50.1152 236.119 47.4456 221.171 56.3469 216.431C56.0545 225.379 55.0852 234.957 52.8233 243.551C46.0685 269.224 50.1229 269.901 50.1229 269.901C50.8296 270.228 51.5665 270.486 52.3232 270.67C58.8011 272.293 77.1191 272.378 73.7648 219.893C69.7104 156.384 73.0878 132.735 73.0878 132.735L75.7882 117.194C75.7882 117.194 66.6868 125.195 56.4007 129.465C53.186 130.819 50.3125 132.872 47.9881 135.473C45.6636 138.074 43.9463 141.159 42.9603 144.506C41.5286 149.425 39.3851 154.109 36.5978 158.408C35.2438 160.431 29.166 188.135 25.1116 193.543C21.7188 198.067 35.3669 222.948 45.0529 232.511C46.9455 234.396 48.6842 235.68 50.1152 236.119ZM49.7382 204.106C48.9947 202.497 48.6616 200.729 48.7688 198.96C49.2689 192.482 52.3463 187.104 53.9157 184.734C54.4774 183.888 54.8467 183.427 54.8467 183.427C56.0185 193.028 56.5505 202.697 56.4392 212.369C54.0773 210.415 51.2231 207.476 49.7382 204.114V204.106Z" fill="#293158"/>
<path opacity="0.1" d="M85.251 115.863C81.8796 115.868 78.5514 115.105 75.5188 113.632C75.0025 109.752 73.9675 105.958 72.4414 102.353L100.815 93.5674C99.7766 99.0162 99.5794 104.592 100.23 110.101C96.1298 113.821 90.7877 115.876 85.251 115.863Z" fill="black"/>
<path d="M85.2506 114.509C97.5641 114.509 107.546 104.527 107.546 92.2135C107.546 79.9 97.5641 69.918 85.2506 69.918C72.9371 69.918 62.9551 79.9 62.9551 92.2135C62.9551 104.527 72.9371 114.509 85.2506 114.509Z" fill="#E0A17E"/>
<g opacity="0.1">
<path opacity="0.1" d="M153.5 250.313C139.313 232.749 127.827 185.45 127.827 185.45L131.189 176.664C131.48 177.966 131.898 179.236 132.435 180.457L130.512 185.45C130.512 185.45 142.006 232.726 156.192 250.313C156.192 250.313 150.645 268.777 124.326 268.093C148.322 267.462 153.5 250.313 153.5 250.313Z" fill="black"/>
</g>
<path d="M156.869 153.7C156.869 153.7 154.846 134.104 156.869 124.649C158.893 115.194 133.22 126.003 138.628 138.836C144.037 151.668 149.438 159.108 149.438 159.108L156.869 153.7Z" fill="#E0A17E"/>
<path opacity="0.1" d="M157.539 144.913L165.647 175.318C165.647 175.318 166.324 191.535 157.539 194.913C148.753 198.29 137.943 178.695 137.943 178.695L143.329 150.322C143.329 150.322 154.838 163.154 157.539 144.913Z" fill="black"/>
<path d="M157.539 146.268L165.647 176.672C165.647 176.672 166.324 192.89 157.539 196.267C148.753 199.645 137.943 180.049 137.943 180.049L143.329 151.676C143.329 151.676 154.838 164.509 157.539 146.268Z" fill="#293158"/>
<path opacity="0.02" d="M157.539 146.268L165.647 176.672C165.647 176.672 166.324 192.89 157.539 196.267C148.753 199.645 137.943 180.049 137.943 180.049L143.329 151.676C143.329 151.676 154.838 164.509 157.539 146.268Z" fill="black"/>
<path opacity="0.1" d="M52.8231 243.551C46.0683 269.224 50.1227 269.901 50.1227 269.901C50.8294 270.228 51.5664 270.486 52.323 270.67C59.1317 256.968 60.2857 234.588 59.6933 215.278C59.6933 215.124 59.6933 214.97 59.6933 214.808C59.2875 202.612 58.2423 190.444 56.5621 178.357C55.7928 179.026 54.8849 181.334 53.9386 184.735C54.5003 183.889 54.8696 183.427 54.8696 183.427C56.0414 193.029 56.5734 202.697 56.4621 212.37C56.5689 213.726 56.538 215.089 56.3698 216.439C56.0543 225.379 55.085 234.958 52.8231 243.551Z" fill="black"/>
<path d="M49.7461 231.057L50.5154 232.026C53.1056 235.296 55.3633 238.817 57.2549 242.535C61.3016 251.329 75.3806 227.287 63.3635 220.224C61.3939 219.078 59.5167 218.039 57.7473 217.147L56.3855 216.447C50.8309 219.386 49.7538 226.264 49.7461 231.057Z" fill="#E0A17E"/>
<path opacity="0.1" d="M49.7461 231.057L50.5154 232.026C50.5154 232.026 50.8309 219.44 57.755 217.14L56.3932 216.439C50.8309 219.386 49.7538 226.264 49.7461 231.057Z" fill="black"/>
<path opacity="0.1" d="M85.5199 86.0745C86.7739 85.6437 88.0895 84.9589 89.3666 85.3821C89.9488 85.6161 90.4736 85.973 90.9053 86.4284C92.6671 88.0902 94.4058 90.0212 96.7677 90.5367C98.228 90.759 99.7177 90.6936 101.153 90.3443C103.646 89.9058 106.208 89.4365 108.377 88.144C113.393 85.1513 114.993 78.658 115.301 72.8264C115.409 70.8646 115.001 68.3258 113.078 67.918C110.616 67.3948 108.816 71.1338 106.331 70.7261C105.572 70.5438 104.889 70.1297 104.376 69.5413C102.684 67.8488 101.538 65.6946 99.8451 63.9636C97.2098 61.5028 93.7969 60.0413 90.1975 59.8322C86.6234 59.6367 83.0401 59.9738 79.5652 60.8324C77.6506 61.1473 75.802 61.7792 74.0951 62.7019C73.2448 63.1699 72.5086 63.8202 71.9393 64.6063C71.37 65.3925 70.9818 66.2948 70.8024 67.2487C70.6331 68.5566 70.987 69.9029 70.7254 71.1877C70.3638 72.9649 68.9175 74.3112 67.3634 75.2498C65.8093 76.1884 64.086 76.7885 62.6242 77.8887C60.2903 79.7031 58.6718 82.2833 58.0544 85.1744C57.4526 88.0497 57.3693 91.0094 57.8082 93.9141C58.4145 98.9584 59.8113 103.876 61.9472 108.485C62.6534 110.1 63.5635 111.618 64.6553 113.001C66.2551 114.765 68.0967 116.294 70.1253 117.541C70.9485 118.095 71.9333 118.672 72.8719 118.364C73.1546 118.262 73.4157 118.108 73.6412 117.91C75.5569 116.31 75.7415 113.409 75.1799 110.986C74.6183 108.562 73.5566 106.216 73.4412 103.723C73.3678 103.024 73.5073 102.319 73.8413 101.7C74.2424 101.199 74.6963 100.742 75.1953 100.338C75.8591 99.593 76.3806 98.7325 76.734 97.7993C77.7572 95.4912 78.7958 93.0678 79.042 90.5213C79.2598 88.436 78.8041 86.3357 77.7418 84.5281C78.7792 85.462 80.0493 86.0986 81.4182 86.3707C82.7872 86.6429 84.2043 86.5405 85.5199 86.0745Z" fill="black"/>
<path d="M85.5199 85.305C86.7739 84.8741 88.0895 84.1894 89.3666 84.6125C89.9488 84.8466 90.4736 85.2035 90.9053 85.6589C92.6671 87.3206 94.4058 89.2517 96.7677 89.7671C98.228 89.9894 99.7177 89.9241 101.153 89.5748C103.646 89.1363 106.208 88.667 108.377 87.3745C113.393 84.3818 114.993 77.8885 115.301 72.0569C115.409 70.0951 115.001 67.5562 113.078 67.1485C110.616 66.6253 108.816 70.3643 106.331 69.9566C105.572 69.7743 104.889 69.3602 104.376 68.7718C102.684 67.0792 101.538 64.9251 99.8451 63.194C97.2098 60.7333 93.7969 59.2718 90.1975 59.0627C86.6234 58.8672 83.0401 59.2043 79.5652 60.0628C77.6506 60.3778 75.802 61.0096 74.0951 61.9323C73.2448 62.4003 72.5086 63.0507 71.9393 63.8368C71.37 64.6229 70.9818 65.5253 70.8024 66.4791C70.6331 67.787 70.987 69.1334 70.7254 70.4182C70.3638 72.1954 68.9175 73.5417 67.3634 74.4803C65.8093 75.4189 64.086 76.019 62.6242 77.1192C60.2903 78.9336 58.6718 81.5138 58.0544 84.4048C57.4526 87.2802 57.3693 90.2399 57.8082 93.1446C58.4145 98.1888 59.8113 103.106 61.9472 107.716C62.6534 109.331 63.5635 110.848 64.6553 112.232C66.2551 113.996 68.0967 115.524 70.1253 116.771C70.9485 117.325 71.9333 117.902 72.8719 117.594C73.1546 117.493 73.4157 117.339 73.6412 117.14C75.5569 115.54 75.7415 112.64 75.1799 110.216C74.6183 107.793 73.5566 105.446 73.4412 102.954C73.3678 102.254 73.5073 101.549 73.8413 100.93C74.2424 100.429 74.6963 99.9725 75.1953 99.5686C75.8591 98.8235 76.3806 97.963 76.734 97.0297C77.7572 94.7217 78.7958 92.2983 79.042 89.7518C79.2598 87.6665 78.8041 85.5662 77.7418 83.7586C78.7792 84.6924 80.0493 85.329 81.4182 85.6012C82.7872 85.8734 84.2043 85.771 85.5199 85.305Z" fill="#463E3B"/>
<defs>
<linearGradient id="paint0_linear" x1="279.21" y1="135.281" x2="279.21" y2="0" gradientUnits="userSpaceOnUse">
<stop stop-color="#808080" stop-opacity="0.25"/>
<stop offset="0.54" stop-color="#808080" stop-opacity="0.12"/>
<stop offset="1" stop-color="#808080" stop-opacity="0.1"/>
</linearGradient>
<linearGradient id="paint1_linear" x1="147984" y1="68017.1" x2="147984" y2="36020.9" gradientUnits="userSpaceOnUse">
<stop stop-color="#808080" stop-opacity="0.25"/>
<stop offset="0.54" stop-color="#808080" stop-opacity="0.12"/>
<stop offset="1" stop-color="#808080" stop-opacity="0.1"/>
</linearGradient>
<linearGradient id="paint2_linear" x1="39418.1" y1="280863" x2="39418.1" y2="72518.1" gradientUnits="userSpaceOnUse">
<stop stop-color="#808080" stop-opacity="0.25"/>
<stop offset="0.54" stop-color="#808080" stop-opacity="0.12"/>
<stop offset="1" stop-color="#808080" stop-opacity="0.1"/>
</linearGradient>
<linearGradient id="paint3_linear" x1="-36734.8" y1="39558.9" x2="-36734.8" y2="25666.2" gradientUnits="userSpaceOnUse">
<stop stop-color="#808080" stop-opacity="0.25"/>
<stop offset="0.54" stop-color="#808080" stop-opacity="0.12"/>
<stop offset="1" stop-color="#808080" stop-opacity="0.1"/>
</linearGradient>
</defs>
</svg>
