<svg width="379" height="205" viewBox="0 0 379 205" fill="none" xmlns="http://www.w3.org/2000/svg">
<g clip-path="url(#clip0)">
<path d="M243.342 132.421C249.722 132.421 254.894 127.236 254.894 120.841C254.894 114.446 249.722 109.261 243.342 109.261C236.962 109.261 231.79 114.446 231.79 120.841C231.79 127.236 236.962 132.421 243.342 132.421Z" fill="#767D9F"/>
<path d="M242.742 106.11C243.895 111.153 244.874 116.234 245.678 121.352C245.919 122.873 246.135 124.477 245.585 125.915C245.124 127.114 244.187 128.05 243.451 129.1C242.716 130.149 242.159 131.494 242.606 132.696C243.054 133.898 244.359 134.556 245.605 134.894C249.169 135.858 252.969 135.157 256.517 134.114C258.124 133.7 259.664 133.06 261.093 132.215C262.597 131.258 263.829 129.93 264.962 128.562C270.134 122.275 273.519 114.731 276.706 107.232C274.659 107.419 272.596 107.115 270.688 106.344C268.781 105.574 267.084 104.36 265.737 102.802C264.432 101.265 263.475 99.1227 264.21 97.2432C262.053 98.4287 259.492 98.5084 257.17 99.3187C255.73 99.87 254.344 100.554 253.029 101.361C251.443 102.28 249.866 103.216 248.298 104.17C246.506 105.253 244.826 106.216 242.742 106.11Z" fill="#AE6E79"/>
<path d="M266.903 114.804C264.879 118.752 262.245 122.548 258.485 124.899C254.725 127.25 249.663 127.888 245.896 125.563C244.041 124.427 242.636 122.701 241.016 121.246C239.396 119.792 237.372 118.546 235.195 118.736C232.797 118.945 230.918 120.821 229.312 122.618C226.873 125.347 224.518 128.193 222.792 131.424C219.479 137.634 218.694 144.893 218.839 151.934C218.985 158.974 220.002 165.977 220.025 173.017C220.058 181.678 218.594 190.269 217.113 198.8C230.729 197.12 244.362 200.793 258.008 202.184C266.741 203.084 275.54 203.064 284.32 203.041C285.863 203.041 287.507 203.001 288.792 202.144C289.578 201.57 290.213 200.813 290.644 199.939C291.856 197.698 292.343 195.141 292.681 192.613C293.539 186.231 293.566 179.769 293.589 173.326C293.649 157.718 293.705 142.054 291.727 126.569C291.24 122.76 290.617 118.931 289.16 115.368C287.702 111.805 285.323 108.527 281.997 106.618C279.86 105.389 274.907 103.251 272.39 104.489C269.564 105.871 268.258 112.16 266.903 114.804Z" fill="#767D9F"/>
<path d="M267.91 158.877C267.397 149.247 265.306 138.969 269.755 130.421C270.849 128.323 266.926 125.703 268.139 123.67C269.618 121.192 270.741 118.517 271.472 115.723C271.723 114.764 271.925 113.748 271.687 112.785C271.246 111.028 269.514 109.982 268.043 108.913C266.419 107.73 265.584 104.127 265.061 102.178C264.538 100.229 269.225 102.576 271.11 101.882C273.728 100.923 277.054 101.527 279.664 102.5C281.122 103.038 282.706 103.085 284.259 103.124C287.278 103.204 290.306 103.28 293.3 102.909C294.646 102.739 295.994 102.483 297.346 102.56C300.794 102.756 303.793 105.12 305.833 107.916C307.874 110.712 309.173 113.97 310.846 116.999C312.241 119.522 313.904 121.907 315.093 124.534C316.146 126.858 316.812 129.355 317.472 131.839L319.171 138.212C319.468 139.124 319.61 140.079 319.589 141.038C319.502 142.057 319.052 143.007 318.595 143.914C316.866 147.274 314.793 150.445 312.409 153.375C308.835 157.768 304.495 161.73 302.371 166.99C301.543 169.039 301.083 171.217 300.662 173.389C298.965 182.076 297.76 190.851 297.051 199.673C293.18 197.878 289.122 196.518 284.952 195.619C282.873 195.173 280.772 194.84 278.657 194.623C276.805 194.43 274.417 194.795 272.654 194.29C269.706 193.45 269.381 188.452 268.934 185.836C268.218 181.668 268.076 177.427 268.049 173.217C268.016 168.428 268.165 163.649 267.91 158.877Z" fill="#4C4981"/>
<path d="M203.159 140.869C204.554 148.839 206.091 156.832 209.123 164.32C209.047 164.393 208.97 164.46 208.894 164.526C208.626 164.755 208.348 164.971 208.056 165.19C207.377 165.668 206.631 166.074 206.068 166.698C205.855 166.937 205.687 167.212 205.571 167.511C205.467 167.745 205.413 167.998 205.413 168.254C205.413 168.509 205.467 168.762 205.571 168.996C203.991 169.697 202.156 169.481 200.383 169.414C198.856 169.358 197.375 169.414 196.149 170.254C194.446 171.43 193.933 173.688 193.658 175.74C193.556 176.489 193.469 177.238 193.396 177.989C193.326 178.686 193.268 179.386 193.224 180.087C193.074 182.409 193.053 184.737 193.161 187.061C193.179 187.486 193.202 187.911 193.231 188.336C187.817 188.207 182.884 185.377 178.216 182.628C177.15 182 176.05 181.339 175.357 180.303C174.719 179.286 174.449 178.079 174.592 176.886C174.592 176.717 174.622 176.554 174.645 176.381C174.793 175.396 175.048 174.429 175.404 173.499C176.864 169.535 179.017 165.864 181.761 162.656C182.947 161.268 184.282 159.91 184.836 158.167C185.077 157.406 185.167 156.599 185.412 155.842C186.512 152.561 190.481 151.01 191.839 147.826C192.17 147.065 192.323 146.232 192.734 145.501C193.103 144.894 193.581 144.359 194.142 143.924C194.383 143.721 194.635 143.525 194.884 143.329C197.212 141.501 199.454 139.569 201.612 137.535C202.014 137.156 202.412 136.773 202.805 136.385C202.752 137.889 202.871 139.393 203.159 140.869Z" fill="#4C4981"/>
<path d="M236.544 117.297C236.067 117.802 235.55 118.277 235.043 118.749L234.907 118.871L234.37 119.37C233.396 120.212 232.553 121.196 231.869 122.289L231.813 122.382C230.123 125.413 230.749 129.146 231.22 132.59C231.803 136.881 232.066 141.21 232.005 145.541C231.919 151.518 231.216 157.456 231.203 163.427C231.203 164.782 231.233 166.133 231.293 167.488C231.389 169.69 231.554 171.888 231.753 174.087C231.968 176.497 232.227 178.905 232.469 181.313C232.661 183.176 232.843 185.035 232.996 186.895C233.072 187.858 233.145 188.818 233.204 189.781C233.274 190.91 233.33 192.042 233.363 193.171C233.386 193.888 233.4 194.602 233.4 195.32C233.4 195.728 233.4 196.133 233.4 196.538C233.4 197.316 233.379 198.09 233.337 198.863C233.293 199.857 233.225 200.853 233.135 201.852C233.032 202.938 232.85 204.123 232.088 204.887C232.041 204.933 231.992 204.977 231.942 205.02L230.869 204.887C223.469 203.999 215.999 203.866 208.573 204.489C208.735 203.366 208.884 202.247 209.03 201.121C209.096 200.59 209.162 200.055 209.225 199.521C209.298 198.91 209.368 198.299 209.434 197.688C209.51 197.023 209.58 196.359 209.646 195.695C209.818 193.984 209.969 192.271 210.1 190.558C210.292 188.058 210.438 185.554 210.537 183.046C210.586 181.848 210.623 180.65 210.65 179.45C210.687 177.962 210.705 176.473 210.703 174.983C210.703 173.535 210.691 172.085 210.666 170.633C210.666 170.155 210.646 169.676 210.607 169.202C210.578 168.774 210.519 168.349 210.431 167.93C210.185 166.963 209.852 166.02 209.437 165.114C209.364 164.941 209.295 164.782 209.225 164.599C209.185 164.509 209.149 164.416 209.113 164.327C211.021 162.623 212.379 160.342 213.684 158.097C215.801 154.48 217.968 150.705 218.323 146.527C218.677 142.35 216.606 137.657 212.624 136.382C211.541 136.05 210.395 135.957 209.278 135.761C208.225 135.575 206.028 135.153 204.809 134.396C204.146 135.078 203.484 135.748 202.821 136.405C202.861 135.402 203.106 134.418 203.54 133.513L204.011 133.536C203.972 133.43 203.954 133.317 203.958 133.204C203.958 132.849 204.203 132.447 204.726 132.002C206.287 130.674 208.741 130.378 209.725 128.582C210.136 127.834 210.206 126.944 210.537 126.161C211.488 123.926 214.218 123.102 215.861 121.316C217.504 119.529 217.915 116.999 219.244 115.006C220.236 113.551 221.612 112.401 223.219 111.685C223.352 111.622 223.487 111.559 223.623 111.503C226.373 110.324 229.64 110.055 232.489 110.061C233.595 110.061 236.464 110.095 237.869 110.656C238.097 110.737 238.305 110.865 238.482 111.031C239.979 112.665 237.65 116.115 236.544 117.297Z" fill="#4C4981"/>
<path d="M203.653 133.281C206.212 132.508 208.899 132.254 211.557 132.531C214.216 132.809 216.792 133.613 219.138 134.898C221.523 136.226 223.663 138.079 224.975 140.47C226.946 144.057 226.86 148.38 226.721 152.475C226.652 154.524 226.562 156.646 225.661 158.486C224.617 160.614 222.65 162.075 220.642 163.271C219.384 164.075 218.006 164.673 216.56 165.041C214.334 165.526 212.022 165.114 209.779 164.709C207.34 164.257 204.723 163.712 203.03 161.893C202.036 160.837 201.493 159.465 200.956 158.124C200.186 156.186 199.413 154.251 198.637 152.319C197.296 148.961 196.842 146.169 198.614 142.898C199.419 141.407 200.403 140.012 201.198 138.511C201.596 137.747 203.02 133.476 203.653 133.281Z" fill="#4C4981"/>
<path d="M342.889 190.687V200.617C336.093 203.446 328.803 204.891 321.445 204.867H232.098C232.052 204.914 232.002 204.957 231.952 205L230.879 204.867H71.9472C58.6126 204.867 46.2554 201.261 36.1211 195.117V179.958L112.557 171.115H112.617L157.129 174.894L168.649 175.89L174.632 176.398L187.015 177.451L193.386 177.992L202.662 178.782L203.968 178.892L210.653 179.46L219.724 180.207L232.479 181.289L253.741 183.099L268.699 184.371L293.261 186.46L297.933 186.855L298.436 186.898L298.873 186.935L305.042 187.46L311.814 188.037L312.599 188.104L342.889 190.687Z" fill="#504F60"/>
<path d="M253.109 190.322L157.318 173.934L153.604 192.759L197.514 198.03L211.034 199.727L248.225 192.384L253.109 190.322Z" fill="#9C9CA1"/>
<path d="M203.523 198.784L251.515 189.741C251.755 189.695 252.002 189.703 252.239 189.764C252.475 189.825 252.696 189.938 252.884 190.094C253.072 190.251 253.223 190.447 253.327 190.669C253.43 190.891 253.483 191.133 253.482 191.378C253.484 191.767 253.348 192.144 253.101 192.443C252.853 192.742 252.509 192.945 252.127 193.015L205.259 201.812L203.523 198.784Z" fill="#9C9CA1"/>
<path d="M224.342 170.347C225.836 170.208 227.35 169.972 228.695 169.308C230.352 168.481 231.641 167.057 233.175 166.007C236.547 163.683 241.059 163.37 244.926 164.705C248.792 166.04 252.019 168.9 254.278 172.313C255.779 174.588 256.905 177.491 255.845 180.001C255.481 180.768 255.023 181.487 254.48 182.14L251.717 185.759C251.192 186.52 250.561 187.201 249.842 187.782C248.808 188.536 247.523 188.844 246.257 189.03C242.895 189.522 239.472 189.243 236.083 189.469C230.262 189.857 224.578 191.737 218.743 191.674C215.391 191.637 212.081 190.96 208.805 190.282L194.304 187.294C191.779 186.776 188.927 186.018 187.738 183.724C187.204 182.691 187.105 181.495 187.042 180.333C186.87 177.132 187.042 173.572 189.255 171.264C191.335 169.099 194.625 168.415 197.11 166.814C200.151 164.852 201.155 165.486 204.362 166.96C210.618 169.8 217.502 170.967 224.342 170.347Z" fill="#AE6E79"/>
<path opacity="0.05" d="M224.342 170.347C225.836 170.208 227.35 169.972 228.695 169.308C230.352 168.481 231.641 167.057 233.175 166.007C236.547 163.683 241.059 163.37 244.926 164.705C248.792 166.04 252.019 168.9 254.278 172.313C255.779 174.588 256.905 177.491 255.845 180.001C255.481 180.768 255.023 181.487 254.48 182.14L251.717 185.759C251.192 186.52 250.561 187.201 249.842 187.782C248.808 188.536 247.523 188.844 246.257 189.03C242.895 189.522 239.472 189.243 236.083 189.469C230.262 189.857 224.578 191.737 218.743 191.674C215.391 191.637 212.081 190.96 208.805 190.282L194.304 187.294C191.779 186.776 188.927 186.018 187.738 183.724C187.204 182.691 187.105 181.495 187.042 180.333C186.87 177.132 187.042 173.572 189.255 171.264C191.335 169.099 194.625 168.415 197.11 166.814C200.151 164.852 201.155 165.486 204.362 166.96C210.618 169.8 217.502 170.967 224.342 170.347Z" fill="black"/>
<path d="M282.574 165.795C278.505 167.372 274.414 168.956 270.154 169.896C263.011 171.473 255.537 171.224 248.45 173.027C244.707 173.984 240.986 175.525 237.14 175.212C235.421 175.073 233.761 174.548 232.088 174.15C222.689 171.825 212.005 172.579 204.372 178.557C201.761 180.599 199.624 183.146 197.686 185.862C197.272 186.449 196.991 187.12 196.866 187.828C196.74 188.536 196.771 189.263 196.959 189.957C197.146 190.652 197.483 191.296 197.948 191.844C198.412 192.392 198.991 192.831 199.644 193.128C202.613 194.497 205.792 195.347 209.046 195.642C213.396 196.027 217.766 195.41 222.093 194.792C228.513 193.879 234.937 192.962 241.341 191.936C243.64 191.567 245.939 191.186 248.252 190.893C264.893 188.785 281.835 191.348 298.519 189.588C300.205 189.409 301.921 189.176 303.455 188.456C307.338 186.629 309.259 181.814 308.458 177.584C307.656 173.353 304.562 169.836 300.838 167.678C297.717 165.861 294.351 165.127 290.876 164.357C287.649 163.603 285.681 164.599 282.574 165.795Z" fill="#AE6E79"/>
<path opacity="0.1" d="M318.264 140.503C320.1 142.914 320.491 146.149 320.292 149.167C320.093 152.186 319.377 155.171 319.271 158.203C319.126 162.361 320.126 166.505 319.957 170.65C319.838 173.549 319.152 176.391 318.341 179.174C317.383 182.458 315.998 185.988 312.974 187.566C308.958 189.661 300.537 188.482 296.313 190.123C296.697 187.722 300.381 184.245 300.765 181.844C301.03 180.184 301.299 178.477 301.014 176.813C300.649 174.691 299.407 172.808 297.933 171.241C295.587 168.747 292.526 166.871 289.163 166.26C285.801 165.649 277.568 166.15 274.878 168.279C274.547 166.08 280.709 163.962 282.876 163.487C283.956 163.244 285.195 163.38 286.059 162.693C287.716 161.391 286.513 158.798 286.593 156.716C286.656 155.055 287.623 153.534 287.818 151.874C288.15 149.217 286.42 146.511 287.1 143.904C287.351 142.941 287.911 142.094 288.299 141.178C289.478 138.371 288.961 135.17 288.332 132.188C287.941 130.315 287.56 128.203 288.6 126.606C289.564 125.115 292.301 130.425 294.053 130.179C299.841 129.365 305.079 125.065 309.753 128.585C312.135 130.378 312.447 132.238 313.398 134.798C314.322 137.236 316.717 138.484 318.264 140.503Z" fill="black"/>
<path d="M319.257 140.503C321.093 142.914 321.484 146.149 321.285 149.167C321.086 152.186 320.371 155.171 320.265 158.203C320.119 162.361 321.119 166.505 320.95 170.65C320.831 173.549 320.145 176.391 319.334 179.174C318.376 182.458 316.991 185.988 313.967 187.566C309.951 189.661 301.53 188.482 297.306 190.123C297.69 187.722 301.374 184.245 301.759 181.844C302.024 180.184 302.292 178.477 302.007 176.813C301.643 174.691 300.4 172.808 298.926 171.241C296.58 168.747 293.519 166.87 290.157 166.259C286.794 165.648 278.561 166.15 275.871 168.279C275.54 166.08 281.702 163.961 283.869 163.487C284.949 163.244 286.188 163.38 287.052 162.693C288.709 161.391 287.506 158.798 287.586 156.715C287.649 155.055 288.616 153.534 288.812 151.874C289.143 149.217 287.413 146.511 288.093 143.904C288.344 142.941 288.904 142.094 289.292 141.177C290.471 138.371 289.955 135.17 289.325 132.188C288.934 130.315 288.553 128.203 289.593 126.606C290.557 125.115 292.443 124.55 294.195 124.301C300.063 123.505 306.008 125.043 310.76 128.585C313.142 130.378 313.453 132.238 314.404 134.798C315.315 137.236 317.71 138.484 319.257 140.503Z" fill="#4C4981"/>
<path d="M100.051 124.769L118.063 191.498C118.284 192.315 118.748 193.046 119.394 193.592C120.04 194.139 120.836 194.475 121.677 194.556L202.752 202.363C203.412 202.427 204.079 202.331 204.695 202.084C205.311 201.836 205.859 201.445 206.293 200.941C206.728 200.438 207.035 199.837 207.19 199.19C207.345 198.543 207.343 197.869 207.184 197.223L187.459 116.733C187.224 115.776 186.659 114.934 185.863 114.356C185.067 113.777 184.093 113.501 183.113 113.575L103.738 119.526C103.128 119.573 102.537 119.755 102.006 120.058C101.474 120.361 101.016 120.777 100.664 121.278C100.312 121.779 100.074 122.352 99.9683 122.955C99.8622 123.558 99.8903 124.178 100.051 124.769Z" fill="#9C9CA1"/>
<path d="M260.764 137.79C265.686 137.79 269.676 133.739 269.676 128.741C269.676 123.743 265.686 119.692 260.764 119.692C255.842 119.692 251.853 123.743 251.853 128.741C251.853 133.739 255.842 137.79 260.764 137.79Z" fill="white"/>
<path d="M268.083 112.233C268.083 112.233 269.962 117.832 264.419 120.187L263.71 121.429L267.182 124.862C267.182 124.862 271.462 117.035 270.998 114.256C270.998 114.256 270.336 111.433 268.083 112.233Z" fill="white"/>
<path d="M261.788 137.79C266.534 137.79 270.382 133.933 270.382 129.176C270.382 124.418 266.534 120.562 261.788 120.562C257.042 120.562 253.194 124.418 253.194 129.176C253.194 133.933 257.042 137.79 261.788 137.79Z" fill="white"/>
<path d="M271.042 115.527L269.677 113.269L267.689 112.987C268.113 105.552 266.188 103.337 266.188 103.337L265.741 103.294L263.793 103.104L260.129 99.2921V98.2095C265.277 98.8238 268.123 101.275 269.66 104.147C272.377 109.188 271.042 115.527 271.042 115.527Z" fill="white"/>
<path opacity="0.1" d="M265.758 101.925V103.294L263.81 103.104L260.146 99.292C260.146 99.292 265.814 100.564 265.758 101.925Z" fill="black" stroke="#4C4981" stroke-miterlimit="10"/>
<path opacity="0.1" d="M271.042 115.528L269.677 113.269V104.16C272.377 109.188 271.042 115.528 271.042 115.528Z" fill="black" stroke="#4C4981" stroke-miterlimit="10"/>
<path d="M245.909 132.717C248.195 131.394 248.097 126.932 245.689 122.752C243.281 118.571 239.475 116.255 237.189 117.578C234.902 118.902 235.001 123.363 237.409 127.544C239.817 131.724 243.622 134.04 245.909 132.717Z" fill="white"/>
<path d="M242.839 124.417C245.247 128.598 248.202 131.391 245.916 132.719C243.63 134.048 236.971 133.383 234.563 129.199C232.154 125.015 234.341 119.237 236.627 117.908C238.913 116.58 240.427 120.226 242.839 124.417Z" fill="white"/>
<path opacity="0.1" d="M264.283 94.2977C264.283 107.657 255.163 120.532 241.835 120.532C235.434 120.532 229.295 117.983 224.769 113.446C220.243 108.909 217.7 102.756 217.7 96.34C217.7 89.9239 220.243 83.7705 224.769 79.2336C229.295 74.6967 235.434 72.1479 241.835 72.1479C255.163 72.1612 264.283 80.9348 264.283 94.2977Z" fill="black"/>
<path d="M241.835 119.881C255.164 119.881 265.97 109.05 265.97 95.6889C265.97 82.328 255.164 71.4968 241.835 71.4968C228.506 71.4968 217.7 82.328 217.7 95.6889C217.7 109.05 228.506 119.881 241.835 119.881Z" fill="#AE6E79"/>
<path d="M239.715 84.9696C242.587 86.0289 244.286 89.0044 246.864 90.6615C250.508 92.986 255.252 92.385 259.413 91.236C261.732 90.6017 264.157 89.8279 266.44 90.532C266.776 90.681 267.146 90.7339 267.51 90.6847C268.007 90.5419 268.252 89.9907 268.414 89.4992C271.237 81.0643 269.968 71.5104 265.708 63.7065C264.608 61.6941 263.289 59.7481 261.474 58.35C260.043 57.2508 258.36 56.5302 256.663 55.9159C253.564 54.7999 250.358 54.0065 247.096 53.5481C246.52 53.4432 245.931 53.4242 245.35 53.4917C244.551 53.6212 243.836 54.0529 243.124 54.4381C240.073 56.0773 236.69 56.9983 233.231 57.1313C228.593 57.3073 223.292 56.2114 219.718 59.1935C215.411 62.77 216.484 69.747 213.691 74.602C211.843 77.8133 208.278 80.1445 207.692 83.8007C207.539 84.9182 207.61 86.055 207.9 87.1447C209.265 92.7702 214.699 97.1271 220.49 97.23C221.379 97.298 222.269 97.1151 223.06 96.702C223.579 96.3475 224.036 95.9113 224.415 95.4102C228.209 90.9072 232.549 82.3262 239.715 84.9696Z" fill="#444053"/>
<path opacity="0.1" d="M268.415 87.0517C268.252 87.5432 268.007 88.0945 267.51 88.2373C267.146 88.2864 266.776 88.2335 266.44 88.0845C264.157 87.3805 261.719 88.1542 259.417 88.7885C255.252 89.9375 250.498 90.5519 246.867 88.214C244.286 86.5536 242.59 83.5649 239.715 82.5221C232.549 79.8655 228.209 88.4598 224.406 92.9628C224.026 93.4638 223.569 93.9001 223.051 94.2546C222.26 94.6677 221.369 94.8506 220.48 94.7826C214.709 94.6796 209.272 90.3227 207.891 84.6973C207.814 84.3652 207.748 84.0331 207.698 83.701C207.698 83.7309 207.698 83.7575 207.682 83.7874C207.529 84.9049 207.6 86.0417 207.891 87.1314C209.256 92.7569 214.692 97.1138 220.48 97.2167C221.369 97.2847 222.26 97.1018 223.051 96.6887C223.569 96.3342 224.026 95.898 224.406 95.3969C228.209 90.8939 232.549 82.3129 239.715 84.9563C242.59 86.0156 244.286 88.9911 246.867 90.6482C250.511 92.9727 255.252 92.3717 259.417 91.2227C261.736 90.5884 264.157 89.8147 266.44 90.5187C266.776 90.6677 267.146 90.7206 267.51 90.6714C268.007 90.5286 268.252 89.9774 268.415 89.4859C269.553 86.0346 270.056 82.4046 269.899 78.7729C269.801 81.5895 269.301 84.3774 268.415 87.0517Z" fill="black"/>
</g>
<defs>
<clipPath id="clip0">
<rect width="379" height="205" fill="white"/>
</clipPath>
</defs>
</svg>
