<svg width="41" height="27" viewBox="0 0 41 27" fill="none" xmlns="http://www.w3.org/2000/svg">
<path d="M5.148 19.124L2.268 26H0L11.052 0.511963H13.104L23.94 26H21.672L18.792 19.124H5.148ZM12.024 2.67196L5.904 17.252H18.036L12.024 2.67196Z" fill="white"/>
<path d="M32.2715 26.468C30.7835 26.468 29.4515 26.048 28.2755 25.208C27.0995 24.368 26.5115 23.12 26.5115 21.464C26.5115 20.312 26.7875 19.352 27.3395 18.584C27.9155 17.792 28.7195 17.216 29.7515 16.856C30.8075 16.472 31.8755 16.208 32.9555 16.064C34.0355 15.92 35.2835 15.848 36.6995 15.848H38.3915V15.092C38.3915 11.972 36.8075 10.412 33.6395 10.412C31.6715 10.412 30.0035 11.072 28.6355 12.392L27.5555 11.096C29.1395 9.55996 31.2275 8.79196 33.8195 8.79196C35.7635 8.79196 37.3235 9.30796 38.4995 10.34C39.6755 11.372 40.2635 12.884 40.2635 14.876V22.22C40.2635 23.732 40.3595 24.992 40.5515 26H38.7875C38.5955 24.848 38.4995 23.816 38.4995 22.904H38.4275C37.1075 25.28 35.0555 26.468 32.2715 26.468ZM32.7395 24.848C34.5635 24.848 35.9555 24.26 36.9155 23.084C37.8995 21.884 38.3915 20.444 38.3915 18.764V17.396H37.1315C31.3955 17.396 28.5275 18.716 28.5275 21.356C28.5275 22.556 28.9355 23.444 29.7515 24.02C30.5915 24.572 31.5875 24.848 32.7395 24.848Z" fill="white"/>
</svg>
